<svg width="512" height="512" viewBox="0 0 512 512" fill="none" xmlns="http://www.w3.org/2000/svg">
<path d="M42 192C183.24 192 324.48 192 470 192C470.093 253.782 470.093 253.782 470.188 316.812C470.215 329.816 470.242 342.82 470.27 356.218C470.284 372.101 470.284 372.101 470.286 379.537C470.289 384.729 470.3 389.921 470.317 395.113C470.338 401.74 470.343 408.367 470.339 414.994C470.34 417.424 470.346 419.853 470.358 422.282C470.373 425.571 470.369 428.859 470.361 432.148C470.374 433.565 470.374 433.565 470.387 435.01C470.301 447.99 465.928 459.476 457.152 469.078C446.252 478.811 435.549 480.301 421.565 480.267C420.082 480.271 418.599 480.276 417.116 480.281C413.048 480.293 408.981 480.293 404.913 480.291C400.523 480.29 396.133 480.301 391.743 480.311C383.145 480.327 374.547 480.333 365.949 480.334C358.959 480.335 351.969 480.339 344.979 480.346C325.154 480.363 305.33 480.372 285.505 480.371C283.903 480.371 283.903 480.371 282.268 480.371C281.198 480.371 280.128 480.37 279.026 480.37C261.69 480.37 244.355 480.389 227.02 480.417C209.214 480.446 191.408 480.459 173.602 480.458C163.608 480.457 153.614 480.463 143.62 480.484C135.11 480.502 126.6 480.507 118.091 480.493C113.751 480.487 109.412 480.486 105.072 480.504C101.095 480.519 97.1174 480.517 93.1398 480.499C91.7058 480.496 90.2717 480.5 88.8377 480.511C75.6105 480.607 65.1182 477.771 55 469C44.871 458.211 41.6705 446.908 41.7595 432.389C41.7578 431.359 41.7561 430.328 41.7543 429.267C41.751 425.824 41.762 422.381 41.773 418.937C41.7736 416.423 41.7733 413.909 41.7722 411.395C41.7718 405.353 41.7804 399.312 41.7932 393.27C41.8077 386.277 41.8092 379.283 41.8108 372.29C41.8213 353.839 41.8492 335.388 41.875 316.938C41.9163 275.708 41.9575 234.479 42 192ZM112.977 251.711C112.308 252.535 112.308 252.535 111.625 253.375C110.933 254.191 110.933 254.191 110.227 255.023C106.029 261.787 106.668 269.214 106.688 276.875C106.671 278.116 106.655 279.358 106.639 280.637C106.634 288.819 107.293 294.746 111.75 301.75C119.584 309.584 128.241 309.232 138.688 309.312C139.93 309.342 141.172 309.371 142.451 309.4C150.562 309.456 157.713 309.01 163.872 303.249C170.408 296.207 170.373 289.006 170.371 279.818C170.375 277.704 170.411 275.592 170.449 273.479C170.522 264.854 170.063 258.708 164.254 251.977C163.696 251.531 163.138 251.085 162.563 250.625C162.007 250.164 161.451 249.702 160.879 249.227C154.625 245.144 148.004 245.628 140.818 245.629C138.704 245.625 136.592 245.589 134.479 245.551C125.84 245.478 119.761 245.974 112.977 251.711ZM229.977 251.824C229.531 252.439 229.085 253.054 228.625 253.688C228.164 254.289 227.702 254.891 227.227 255.512C223.813 262.437 223.684 269.919 223.75 277.5C223.742 278.386 223.735 279.271 223.727 280.184C223.75 288.098 224.037 295.797 229.625 301.875C230.257 302.594 230.888 303.314 231.539 304.055C238.941 309.906 246.965 309.46 256 309.375C257.232 309.387 258.465 309.398 259.734 309.41C267.661 309.385 274.036 309.134 280.461 304.055C281.093 303.335 281.724 302.616 282.375 301.875C283.022 301.171 283.669 300.467 284.336 299.742C288.431 292.995 288.317 285.185 288.25 277.5C288.258 276.614 288.265 275.729 288.273 274.816C288.252 267.545 287.965 259.675 283.375 253.688C282.706 252.765 282.706 252.765 282.023 251.824C274.846 245.353 267.385 245.37 258.164 245.479C256.004 245.5 253.847 245.479 251.688 245.453C243.046 245.434 236.62 245.835 229.977 251.824ZM347.977 251.746C347.531 252.304 347.085 252.862 346.625 253.438C346.164 253.993 345.702 254.549 345.227 255.121C341.144 261.375 341.628 267.996 341.629 275.182C341.625 277.296 341.589 279.408 341.551 281.521C341.478 290.16 341.974 296.239 347.711 303.023C348.26 303.469 348.809 303.915 349.375 304.375C349.919 304.836 350.463 305.298 351.023 305.773C357.787 309.971 365.214 309.332 372.875 309.312C374.737 309.337 374.737 309.337 376.637 309.361C384.819 309.366 390.746 308.707 397.75 304.25C405.584 296.416 405.232 287.759 405.312 277.312C405.342 276.07 405.371 274.828 405.4 273.549C405.456 265.438 405.01 258.287 399.249 252.128C392.207 245.592 385.006 245.627 375.818 245.629C373.704 245.625 371.592 245.589 369.479 245.551C360.854 245.478 354.708 245.937 347.977 251.746ZM112 370C106.461 378.01 106.76 385.233 106.688 394.688C106.659 395.93 106.63 397.172 106.6 398.451C106.544 406.562 106.99 413.713 112.751 419.872C119.793 426.408 126.994 426.373 136.182 426.371C138.296 426.375 140.408 426.411 142.521 426.449C151.146 426.522 157.292 426.063 164.023 420.254C164.469 419.696 164.915 419.138 165.375 418.562C165.836 418.007 166.298 417.451 166.773 416.879C170.856 410.625 170.372 404.004 170.371 396.818C170.375 394.704 170.411 392.592 170.449 390.479C170.522 381.84 170.026 375.761 164.289 368.977C163.74 368.531 163.191 368.085 162.625 367.625C161.809 366.933 161.809 366.933 160.977 366.227C154.213 362.029 146.786 362.668 139.125 362.688C137.884 362.671 136.642 362.655 135.363 362.639C126.329 362.634 118.707 363.293 112 370ZM229.625 370.125C228.978 370.829 228.331 371.533 227.664 372.258C223.569 379.005 223.683 386.815 223.75 394.5C223.742 395.386 223.735 396.271 223.727 397.184C223.748 404.455 224.035 412.325 228.625 418.312C229.071 418.927 229.517 419.542 229.977 420.176C237.154 426.647 244.615 426.63 253.836 426.521C255.996 426.5 258.153 426.521 260.313 426.547C268.954 426.566 275.38 426.165 282.023 420.176C282.692 419.253 282.692 419.253 283.375 418.312C283.836 417.711 284.298 417.109 284.773 416.488C288.187 409.563 288.316 402.081 288.25 394.5C288.258 393.614 288.265 392.729 288.273 391.816C288.25 383.902 287.963 376.203 282.375 370.125C281.743 369.406 281.112 368.686 280.461 367.945C273.059 362.094 265.035 362.54 256 362.625C254.768 362.613 253.535 362.602 252.266 362.59C243.342 362.619 235.871 363.012 229.625 370.125ZM346.562 370.438C341.221 376.997 341.628 384.131 341.629 392.182C341.625 394.296 341.589 396.408 341.551 398.521C341.478 407.146 341.937 413.292 347.746 420.023C348.583 420.692 348.583 420.692 349.438 421.375C349.993 421.836 350.549 422.298 351.121 422.773C357.375 426.856 363.996 426.372 371.182 426.371C373.296 426.375 375.408 426.411 377.521 426.449C386.16 426.522 392.239 426.026 399.023 420.289C399.692 419.465 399.692 419.465 400.375 418.625C400.836 418.081 401.298 417.537 401.773 416.977C405.971 410.213 405.332 402.786 405.312 395.125C405.329 393.884 405.345 392.642 405.361 391.363C405.366 383.181 404.707 377.254 400.25 370.25C392.416 362.416 383.759 362.768 373.312 362.688C372.07 362.658 370.828 362.629 369.549 362.6C360.298 362.536 353.055 363.443 346.562 370.438Z" fill="#93969A"/>
<path d="M86.4375 63.8731C87.3598 63.8821 88.2821 63.8911 89.2324 63.9004C91.4886 63.9238 93.7441 63.9566 96 63.9981C96.098 65.242 96.1959 66.486 96.2969 67.7676C97.6402 83.3033 100.323 96.69 112.688 107.311C121.439 113.947 132.09 116.888 143 115.998C155.107 114.073 164.138 109.16 172.023 99.7285C180.119 88.5449 179.631 78.3677 181 63.9981C230.5 63.9981 280 63.9981 331 63.9981C331.66 70.9281 332.32 77.8581 333 84.9981C336.296 96.2292 343.056 104.763 353 110.998C364.038 116.484 374.592 117.447 386.367 113.904C396.855 110.294 404.014 104.39 409.676 94.8184C413.037 87.6587 414.523 80.7881 415.188 72.9356C415.31 71.6372 415.31 71.6372 415.436 70.3125C415.633 68.2086 415.818 66.1034 416 63.9981C432.039 63.4325 444.317 64.0036 457 74.9981C480.79 100.338 470 139.54 470 170.998C328.76 170.998 187.52 170.998 42 170.998C42 88.9765 42 88.9765 54.8477 74.9199C64.2032 66.5661 74.1932 63.6439 86.4375 63.8731Z" fill="white"/>
<path d="M148.559 32.9433C153.726 36.0593 157.777 40.3422 160 46.0019C160.227 48.6979 160.352 51.2887 160.371 53.9862C160.385 55.1479 160.385 55.1479 160.398 56.333C160.413 57.9703 160.422 59.6077 160.426 61.245C160.437 63.7301 160.487 66.2126 160.537 68.6972C160.688 83.5033 160.688 83.5033 155 90.0019C148.73 95.813 143.912 96.4688 135.484 96.3027C130.84 95.9018 127.535 95.102 124 92.0019C117.283 83.8237 116.734 76.9154 116.65 66.653C116.633 65.1896 116.606 63.7263 116.568 62.2633C116.336 53.3693 116.407 45.4434 122 38.0019C129.028 31.3708 139.435 29.5865 148.559 32.9433Z" fill="#93969A"/>
<path d="M382.484 32.5821C388.192 35.0047 391.158 39.6605 394 45C395.747 50.2418 395.305 55.8605 395.35 61.3489C395.367 62.8123 395.394 64.2756 395.432 65.7386C395.664 74.6326 395.593 82.5585 390 90C383.769 95.8791 377.78 96.4073 369.527 96.3477C363.232 95.7273 359.809 92.9523 355.625 88.4375C352.361 83.542 351.671 79.9011 351.629 74.0157C351.615 72.854 351.615 72.854 351.602 71.6689C351.587 70.0316 351.578 68.3943 351.574 66.7569C351.563 64.2718 351.513 61.7893 351.463 59.3047C351.312 44.4986 351.312 44.4986 357 38C364.385 31.1553 372.713 30.2929 382.484 32.5821Z" fill="#93969A"/>
</svg>
