<svg width="512" height="512" viewBox="0 0 512 512" fill="none" xmlns="http://www.w3.org/2000/svg">
<g clip-path="url(#clip0_335_41)">
<path d="M87.4209 62.4321C89.3725 62.4326 89.3725 62.4326 91.3635 62.4332C92.7788 62.4588 94.1941 62.4848 95.6094 62.5114C97.061 62.5208 98.5126 62.5279 99.9642 62.5329C103.779 62.5519 107.592 62.601 111.406 62.6564C115.301 62.7076 119.195 62.7304 123.09 62.7556C130.727 62.8091 138.363 62.8944 146 62.9997C146.253 64.0187 146.505 65.0377 146.765 66.0876C147.111 67.4438 147.458 68.7999 147.805 70.156C147.969 70.8253 148.134 71.4947 148.303 72.1843C150.805 81.8594 156.028 87.8847 164.082 93.5271C173.251 98.1546 182.162 98.4383 192.281 98.4038C193.802 98.4095 195.322 98.4164 196.843 98.4246C200.946 98.4424 205.049 98.4413 209.153 98.4356C212.589 98.4325 216.026 98.4386 219.463 98.4447C227.575 98.4587 235.688 98.4572 243.801 98.4458C252.146 98.4343 260.492 98.4484 268.837 98.4752C276.026 98.4974 283.214 98.5039 290.403 98.4981C294.686 98.4947 298.969 98.497 303.252 98.5143C307.282 98.5299 311.311 98.5257 315.34 98.507C316.811 98.5034 318.282 98.5064 319.753 98.5169C333.496 98.6077 343.616 95.9168 353.684 86.4099C358.881 80.9014 361.663 74.3142 362.548 66.8295C362.697 65.5657 362.846 64.3019 363 62.9997C371.797 62.8839 380.594 62.795 389.391 62.7406C393.476 62.7146 397.561 62.6792 401.646 62.6225C405.588 62.5682 409.53 62.5383 413.472 62.5253C414.976 62.5161 416.48 62.498 417.984 62.4711C420.091 62.4347 422.196 62.4298 424.304 62.4321C425.503 62.421 426.702 62.4099 427.937 62.3984C431 62.9997 431 62.9997 433.16 65.0712C435.393 68.6253 435.559 71.3912 435.503 75.457C435.509 76.2025 435.515 76.9479 435.521 77.716C435.536 80.2222 435.522 82.7273 435.508 85.2335C435.513 87.045 435.519 88.8566 435.527 90.6681C435.544 95.6525 435.535 100.637 435.523 105.621C435.514 110.994 435.528 116.367 435.539 121.74C435.557 132.268 435.553 142.796 435.541 153.324C435.532 161.879 435.531 170.433 435.535 178.987C435.536 180.204 435.536 181.42 435.537 182.673C435.538 185.144 435.54 187.614 435.541 190.085C435.552 213.266 435.539 236.448 435.518 259.629C435.5 279.532 435.503 299.434 435.521 319.336C435.543 342.433 435.551 365.53 435.539 388.627C435.538 391.089 435.536 393.55 435.535 396.012C435.534 397.829 435.534 397.829 435.533 399.683C435.53 408.229 435.536 416.776 435.545 425.323C435.556 435.735 435.553 446.146 435.532 456.558C435.522 461.873 435.517 467.188 435.531 472.503C435.543 477.365 435.536 482.227 435.515 487.088C435.51 488.851 435.513 490.613 435.522 492.376C435.534 494.765 435.522 497.153 435.503 499.542C435.513 500.232 435.522 500.922 435.532 501.633C435.479 504.979 435.001 506.998 433.34 509.926C430.387 512.542 428.964 512.626 425.053 512.629C423.216 512.648 423.216 512.649 421.342 512.668C419.981 512.658 418.62 512.646 417.259 512.635C415.814 512.64 414.37 512.648 412.926 512.658C408.952 512.679 404.978 512.669 401.004 512.653C396.721 512.642 392.437 512.659 388.153 512.673C379.76 512.695 371.366 512.691 362.973 512.676C356.153 512.665 349.333 512.663 342.513 512.669C341.543 512.67 340.573 512.67 339.574 512.671C337.604 512.673 335.635 512.674 333.665 512.676C315.183 512.69 296.702 512.674 278.22 512.647C262.353 512.625 246.486 512.628 230.618 512.652C212.204 512.678 193.79 512.689 175.375 512.674C173.413 512.672 171.45 512.67 169.487 512.669C168.039 512.668 168.039 512.668 166.561 512.666C159.747 512.662 152.933 512.669 146.119 512.681C137.818 512.695 129.517 512.691 121.217 512.665C116.979 512.652 112.742 512.647 108.504 512.663C104.628 512.678 100.752 512.67 96.8762 512.643C95.4711 512.638 94.066 512.64 92.661 512.653C90.7564 512.668 88.8516 512.649 86.9471 512.629C85.8876 512.628 84.828 512.627 83.7364 512.626C81 512 81 512 78.6598 509.926C76.6453 506.374 76.4427 503.517 76.4966 499.542C76.4908 498.797 76.485 498.052 76.479 497.283C76.4644 494.777 76.4783 492.272 76.4921 489.766C76.4875 487.954 76.4811 486.143 76.4732 484.331C76.4564 479.347 76.4647 474.363 76.4771 469.378C76.4861 464.005 76.4722 458.632 76.4612 453.26C76.4434 442.731 76.4473 432.203 76.4588 421.675C76.4679 413.121 76.4691 404.567 76.4647 396.012C76.4638 394.188 76.4638 394.188 76.4629 392.326C76.4616 389.856 76.4603 387.385 76.459 384.915C76.4476 361.733 76.4607 338.552 76.4822 315.37C76.5001 295.468 76.497 275.566 76.4785 255.663C76.4571 232.566 76.4487 209.469 76.461 186.372C76.4622 183.911 76.4635 181.449 76.4647 178.987C76.4654 177.776 76.466 176.565 76.4666 175.317C76.4701 166.77 76.4642 158.223 76.4548 149.677C76.4436 139.265 76.4466 128.853 76.4679 118.441C76.4785 113.126 76.4825 107.811 76.4693 102.496C76.4575 97.6344 76.4639 92.7729 76.4853 87.911C76.4897 86.1487 76.4874 84.3863 76.4778 82.6239C76.4657 80.2345 76.478 77.8464 76.4966 75.457C76.4873 74.7673 76.4779 74.0775 76.4683 73.3669C76.5226 69.8958 76.9778 68.0349 78.8472 65.0712C81.7577 62.2706 83.4243 62.3934 87.4209 62.4321ZM118 125C116.295 128.697 116.845 133.145 116.839 137.161C116.834 137.981 116.829 138.801 116.824 139.646C116.809 142.355 116.802 145.064 116.797 147.773C116.791 149.659 116.785 151.544 116.78 153.43C116.769 157.383 116.763 161.335 116.76 165.288C116.754 170.347 116.73 175.407 116.702 180.466C116.683 184.361 116.678 188.256 116.676 192.151C116.673 194.016 116.665 195.881 116.652 197.746C116.635 200.357 116.637 202.968 116.644 205.579C116.634 206.346 116.625 207.113 116.616 207.903C116.653 212.669 117.349 216.012 120 220C123.53 222.889 128.103 222.288 132.453 222.274C133.304 222.279 134.155 222.285 135.031 222.29C137.843 222.304 140.654 222.303 143.465 222.3C145.42 222.304 147.375 222.309 149.331 222.313C153.429 222.321 157.527 222.321 161.625 222.315C166.875 222.31 172.125 222.327 177.375 222.35C181.413 222.364 185.451 222.365 189.489 222.362C191.425 222.363 193.361 222.368 195.296 222.378C198.004 222.39 200.71 222.384 203.418 222.372C204.616 222.383 204.616 222.383 205.838 222.395C210.394 222.352 213.389 221.854 217 219C218.65 215.699 218.175 212.021 218.193 208.391C218.201 207.5 218.209 206.608 218.218 205.69C218.243 202.734 218.259 199.777 218.273 196.82C218.281 195.308 218.281 195.308 218.29 193.765C218.316 188.431 218.336 183.096 218.35 177.762C218.367 172.245 218.412 166.728 218.462 161.211C218.496 156.974 218.508 152.738 218.513 148.502C218.52 146.468 218.535 144.434 218.559 142.4C218.591 139.555 218.591 136.712 218.583 133.867C218.6 133.025 218.616 132.182 218.633 131.314C218.592 127.425 218.472 125.599 216.01 122.478C211.97 120.494 208.697 120.438 204.25 120.482C203.379 120.475 202.509 120.468 201.612 120.461C198.741 120.443 195.871 120.455 193 120.468C191.001 120.466 189.003 120.462 187.004 120.457C182.818 120.451 178.632 120.46 174.445 120.478C169.082 120.501 163.719 120.488 158.355 120.464C154.229 120.449 150.103 120.454 145.976 120.464C143.999 120.467 142.021 120.464 140.043 120.455C137.279 120.444 134.515 120.46 131.75 120.482C130.526 120.47 130.526 120.47 129.278 120.458C124.312 120.532 121.507 121.142 118 125ZM243 150C242.083 153 242.083 153 243 156C244.653 158.561 245.401 159.569 248 161C252.444 161.763 256.856 161.672 261.356 161.631C262.729 161.636 264.103 161.643 265.476 161.652C269.2 161.671 272.922 161.658 276.645 161.638C280.543 161.622 284.441 161.631 288.339 161.636C294.883 161.64 301.428 161.625 307.972 161.597C315.538 161.565 323.103 161.565 330.669 161.582C337.949 161.598 345.229 161.591 352.51 161.574C355.607 161.567 358.705 161.568 361.802 161.575C365.45 161.583 369.096 161.571 372.743 161.544C374.72 161.533 376.696 161.543 378.673 161.553C379.85 161.54 381.026 161.527 382.238 161.514C383.26 161.512 384.282 161.509 385.335 161.506C388.711 160.865 389.879 159.647 392 157C393.253 153.741 393.233 152.527 391.812 149.312C389.874 146.839 388.881 146.122 386 145C383.321 144.692 383.321 144.692 380.358 144.726C379.209 144.716 378.059 144.706 376.875 144.695C375.618 144.695 374.36 144.694 373.065 144.693C371.724 144.686 370.384 144.677 369.043 144.668C365.405 144.646 361.766 144.637 358.128 144.632C355.854 144.629 353.579 144.622 351.305 144.615C343.368 144.591 335.432 144.578 327.495 144.574C320.101 144.571 312.708 144.541 305.315 144.499C298.963 144.464 292.611 144.449 286.259 144.448C282.467 144.447 278.676 144.438 274.884 144.41C271.317 144.384 267.75 144.382 264.182 144.398C262.254 144.4 260.325 144.378 258.396 144.355C251.54 144.413 247.528 144.591 243 150ZM243 189C242.167 192 242.167 192 243 195C245.619 198.309 247.104 199.829 251.301 200.628C252.554 200.629 253.807 200.63 255.098 200.631C255.793 200.638 256.488 200.645 257.204 200.652C259.491 200.669 261.776 200.65 264.062 200.629C265.658 200.629 267.253 200.632 268.848 200.636C272.187 200.639 275.525 200.624 278.864 200.597C283.138 200.563 287.411 200.569 291.686 200.587C294.978 200.598 298.271 200.589 301.563 200.574C303.139 200.569 304.714 200.569 306.29 200.575C308.495 200.581 310.698 200.56 312.902 200.533C314.155 200.527 315.408 200.521 316.699 200.514C320.597 199.907 322.251 198.784 325 196C326.247 193.103 326.247 193.103 326 190C324.23 187.253 322.937 185.468 320 184C317.75 183.882 315.496 183.83 313.243 183.807C312.201 183.795 312.201 183.795 311.138 183.782C308.836 183.757 306.533 183.741 304.23 183.726C303.444 183.721 302.658 183.716 301.848 183.71C297.686 183.683 293.524 183.664 289.362 183.65C285.064 183.633 280.767 183.588 276.47 183.537C273.164 183.504 269.859 183.492 266.554 183.486C264.97 183.48 263.386 183.464 261.802 183.44C259.582 183.409 257.365 183.409 255.145 183.416C253.883 183.408 252.621 183.4 251.321 183.392C247.098 184.165 245.627 185.672 243 189ZM116.843 251.157C115.264 254.607 115.322 257.94 115.385 261.68C115.379 262.531 115.374 263.382 115.368 264.259C115.356 267.06 115.38 269.859 115.406 272.66C115.408 274.612 115.408 276.565 115.406 278.517C115.408 282.603 115.426 286.689 115.458 290.775C115.498 296.01 115.502 301.244 115.495 306.479C115.491 310.508 115.504 314.537 115.521 318.567C115.528 320.497 115.531 322.427 115.53 324.357C115.532 327.055 115.553 329.752 115.58 332.449C115.577 333.245 115.574 334.04 115.571 334.86C115.641 339.397 116.078 342.456 119 346C122.619 348.829 127.082 348.281 131.469 348.258C132.321 348.262 133.174 348.265 134.052 348.269C136.868 348.278 139.684 348.272 142.5 348.265C144.458 348.267 146.415 348.269 148.373 348.271C152.475 348.274 156.577 348.27 160.68 348.26C165.939 348.249 171.198 348.256 176.457 348.268C180.5 348.275 184.542 348.273 188.584 348.267C190.524 348.266 192.463 348.268 194.402 348.272C197.112 348.277 199.821 348.27 202.531 348.258C203.735 348.265 203.735 348.265 204.962 348.271C210.312 348.268 210.312 348.268 215 346C217.584 342.123 217.303 338.882 217.306 334.385C217.319 333.065 217.319 333.065 217.332 331.718C217.356 328.804 217.364 325.89 217.371 322.976C217.38 320.952 217.389 318.928 217.398 316.904C217.415 312.659 217.423 308.414 217.426 304.169C217.431 298.729 217.469 293.289 217.514 287.85C217.544 283.668 217.551 279.487 217.552 275.306C217.556 273.3 217.569 271.295 217.59 269.289C217.617 266.484 217.612 263.679 217.599 260.873C217.614 260.045 217.629 259.217 217.644 258.363C217.593 254.341 217.279 252.423 215.015 248.987C210.945 246.305 207.937 246.287 203.158 246.337C202.278 246.327 201.398 246.316 200.491 246.305C197.587 246.278 194.685 246.288 191.781 246.3C189.76 246.295 187.739 246.287 185.718 246.279C181.484 246.267 177.252 246.274 173.018 246.293C167.594 246.316 162.171 246.289 156.746 246.248C152.574 246.222 148.401 246.225 144.228 246.236C142.228 246.237 140.228 246.23 138.229 246.213C135.432 246.193 132.638 246.211 129.842 246.239C129.017 246.225 128.192 246.212 127.342 246.198C122.581 246.294 119.749 246.955 116.843 251.157ZM244 275C242.556 277.888 242.623 279.796 243 283C244.648 285.591 245.377 286.57 248 288C252.438 288.771 256.845 288.693 261.34 288.663C262.712 288.671 264.084 288.681 265.456 288.694C269.175 288.721 272.893 288.716 276.612 288.704C279.719 288.697 282.825 288.706 285.932 288.714C293.26 288.734 300.588 288.729 307.917 288.706C315.475 288.684 323.032 288.702 330.59 288.74C337.083 288.771 343.575 288.779 350.068 288.768C353.945 288.761 357.82 288.763 361.697 288.787C365.342 288.808 368.985 288.8 372.63 288.77C374.603 288.76 376.576 288.781 378.549 288.802C384.535 288.896 384.535 288.896 389.926 286.723C392.223 284.138 392.987 282.326 393.125 278.875C391.714 275.268 390.209 274.127 387 272C384.21 271.408 384.21 271.408 381.193 271.499C380.033 271.489 378.872 271.479 377.676 271.469C376.411 271.478 375.147 271.488 373.844 271.498C372.492 271.494 371.139 271.489 369.787 271.482C366.122 271.468 362.457 271.479 358.791 271.495C354.953 271.509 351.114 271.503 347.275 271.499C340.829 271.497 334.383 271.51 327.938 271.533C320.489 271.56 313.04 271.562 305.591 271.55C298.421 271.539 291.251 271.545 284.081 271.559C281.031 271.565 277.982 271.565 274.933 271.56C271.341 271.555 267.749 271.566 264.157 271.587C262.213 271.595 260.269 271.589 258.324 271.582C257.163 271.592 256.003 271.602 254.807 271.612C253.297 271.616 253.297 271.616 251.756 271.619C248.521 272.066 246.627 273.088 244 275ZM243 316C242.25 319.043 242.25 319.043 243 322C244.867 324.302 246.356 325.678 249 327C251.22 327.112 253.443 327.159 255.665 327.177C256.35 327.183 257.035 327.19 257.74 327.197C260.01 327.216 262.281 327.228 264.551 327.238C265.326 327.242 266.101 327.246 266.9 327.25C271.004 327.271 275.107 327.285 279.211 327.295C283.448 327.306 287.684 327.34 291.921 327.38C295.18 327.406 298.439 327.415 301.699 327.418C303.26 327.423 304.822 327.435 306.384 327.453C308.572 327.478 310.758 327.477 312.947 327.47C314.191 327.476 315.435 327.481 316.717 327.487C320.618 326.908 322.26 325.792 325 323C325.997 319.81 326.31 317.93 325.25 314.75C323.949 312.71 323.949 312.71 321 311C317.778 310.673 317.778 310.673 314.038 310.693C312.981 310.681 312.981 310.681 311.903 310.668C309.573 310.644 307.244 310.635 304.914 310.629C303.294 310.62 301.673 310.611 300.053 310.601C296.655 310.585 293.257 310.577 289.859 310.574C285.509 310.569 281.159 310.531 276.809 310.485C273.462 310.456 270.114 310.448 266.767 310.447C265.163 310.443 263.56 310.431 261.956 310.41C259.711 310.383 257.467 310.388 255.221 310.4C253.945 310.395 252.668 310.39 251.352 310.385C247.109 311.163 245.632 312.648 243 316ZM117 375C115.733 378.801 115.836 382.378 115.823 386.339C115.816 387.19 115.81 388.04 115.803 388.917C115.783 391.734 115.772 394.55 115.762 397.367C115.758 398.329 115.754 399.291 115.749 400.282C115.729 405.371 115.714 410.46 115.705 415.549C115.694 420.807 115.659 426.065 115.62 431.323C115.594 435.366 115.585 439.408 115.582 443.45C115.577 445.389 115.565 447.327 115.547 449.266C115.522 451.978 115.523 454.689 115.53 457.402C115.517 458.202 115.504 459.002 115.491 459.826C115.526 463.597 115.851 465.767 117.904 468.975C121.741 472.682 125.334 472.166 130.409 472.193C131.28 472.201 132.15 472.209 133.046 472.217C135.933 472.242 138.82 472.259 141.707 472.273C142.692 472.278 143.677 472.284 144.691 472.289C149.904 472.316 155.116 472.335 160.328 472.35C165.716 472.366 171.102 472.411 176.489 472.462C180.629 472.496 184.768 472.507 188.907 472.513C190.893 472.52 192.879 472.535 194.865 472.559C197.645 472.59 200.423 472.591 203.202 472.583C204.023 472.6 204.843 472.616 205.689 472.633C209.694 472.589 211.586 472.272 215.01 470.017C217.7 465.938 217.699 462.931 217.631 458.142C217.638 457.26 217.645 456.378 217.653 455.47C217.67 452.561 217.65 449.654 217.629 446.746C217.63 444.722 217.632 442.699 217.636 440.675C217.639 436.438 217.624 432.2 217.597 427.963C217.563 422.53 217.569 417.097 217.588 411.664C217.598 407.487 217.589 403.31 217.574 399.133C217.569 397.13 217.57 395.126 217.576 393.123C217.581 390.324 217.561 387.527 217.533 384.728C217.54 383.899 217.546 383.071 217.553 382.217C217.493 378.571 217.348 376.452 215.092 373.517C211.036 370.575 207.539 370.839 202.682 370.823C201.822 370.816 200.962 370.81 200.075 370.803C197.221 370.783 194.366 370.771 191.512 370.761C190.538 370.757 189.564 370.753 188.561 370.749C183.407 370.728 178.253 370.714 173.099 370.705C167.772 370.693 162.446 370.659 157.12 370.619C153.027 370.593 148.934 370.585 144.841 370.581C142.877 370.576 140.913 370.565 138.95 370.546C136.202 370.522 133.454 370.523 130.706 370.53C129.895 370.517 129.084 370.504 128.248 370.491C123.211 370.537 120.471 371.288 117 375ZM244.699 401.346C242.613 404.604 242.273 406.203 243 410C244.867 412.302 246.356 413.678 249 415C250.813 415.102 252.63 415.139 254.446 415.147C255.603 415.154 256.759 415.161 257.951 415.169C259.864 415.173 259.864 415.173 261.816 415.177C263.167 415.183 264.519 415.19 265.871 415.197C269.549 415.214 273.227 415.225 276.904 415.233C279.202 415.238 281.499 415.244 283.796 415.25C290.982 415.269 298.169 415.284 305.355 415.292C313.653 415.302 321.951 415.328 330.248 415.368C336.66 415.399 343.072 415.413 349.484 415.417C353.315 415.419 357.145 415.428 360.975 415.453C364.58 415.476 368.183 415.481 371.788 415.47C373.739 415.47 375.691 415.489 377.642 415.508C378.808 415.502 379.973 415.495 381.173 415.487C382.184 415.49 383.194 415.492 384.235 415.495C387.779 414.86 389.455 413.501 392 411C392.997 407.81 393.31 405.93 392.25 402.75C390.949 400.71 390.949 400.71 388 399C385.37 398.689 385.37 398.689 382.358 398.726C381.183 398.716 380.008 398.706 378.798 398.695C377.507 398.695 376.217 398.694 374.887 398.693C373.516 398.686 372.144 398.677 370.772 398.668C367.045 398.646 363.318 398.637 359.59 398.632C357.262 398.629 354.933 398.622 352.605 398.615C344.481 398.591 336.357 398.578 328.234 398.574C320.661 398.571 313.089 398.541 305.516 398.499C299.015 398.464 292.514 398.449 286.013 398.448C282.13 398.447 278.247 398.438 274.364 398.41C270.712 398.384 267.06 398.382 263.407 398.398C261.429 398.4 259.451 398.378 257.473 398.355C250.533 398.161 250.533 398.161 244.699 401.346ZM244.125 440.687C242.464 444.101 243.08 446.387 244 450C245.895 452.584 246.888 452.962 250 454C252.197 454.104 254.396 454.148 256.595 454.161C257.261 454.166 257.926 454.171 258.612 454.176C260.811 454.191 263.011 454.197 265.211 454.203C266.742 454.209 268.272 454.214 269.803 454.22C273.013 454.231 276.222 454.236 279.432 454.24C283.54 454.245 287.647 454.269 291.755 454.298C294.918 454.317 298.08 454.322 301.242 454.323C302.756 454.326 304.27 454.334 305.785 454.347C307.905 454.365 310.025 454.363 312.146 454.356C313.352 454.36 314.557 454.363 315.799 454.367C319.312 453.964 321.175 453.083 324 451C325.947 448.434 326.008 447.189 325.875 443.937C324.858 440.524 324.087 439.675 321 438C317.515 436.864 314.216 436.867 310.567 436.854C308.609 436.845 308.609 436.845 306.612 436.835C305.191 436.834 303.769 436.832 302.348 436.832C300.886 436.829 299.424 436.825 297.962 436.822C294.899 436.816 291.837 436.814 288.775 436.814C284.856 436.814 280.938 436.801 277.019 436.784C274 436.772 270.982 436.77 267.963 436.771C266.518 436.77 265.074 436.765 263.629 436.758C261.607 436.748 259.585 436.752 257.563 436.757C256.413 436.755 255.264 436.754 254.08 436.752C250.03 437.078 247.157 437.958 244.125 440.687Z" fill="#93969A"/>
<path d="M254.312 -0.311082C255.067 -0.305443 255.821 -0.299803 256.597 -0.293993C267.304 -0.0605562 274.191 3.48897 281.914 10.8178C288.066 17.2971 290.607 24.2884 292 33.0014C293.17 33.0108 294.34 33.0201 295.545 33.0297C299.914 33.0698 304.282 33.1356 308.65 33.2089C310.536 33.237 312.421 33.2583 314.307 33.2724C317.028 33.294 319.748 33.3407 322.469 33.392C323.719 33.3939 323.719 33.3939 324.995 33.3958C331.323 33.5517 336.824 34.9955 341.529 39.4483C346.894 45.6375 347.388 50.347 347.438 58.2514C347.47 59.1679 347.503 60.0845 347.537 61.0288C347.589 67.6318 346.217 71.8866 342 77.0014C336.977 81.7731 332.482 83.247 325.62 83.2756C324.331 83.2855 323.043 83.2955 321.716 83.3058C320.295 83.3067 318.875 83.3074 317.454 83.3078C315.953 83.3154 314.451 83.3239 312.949 83.333C308.875 83.355 304.8 83.3638 300.725 83.3689C298.176 83.3725 295.628 83.3788 293.079 83.3859C284.178 83.4104 275.277 83.4234 266.376 83.427C258.095 83.4306 249.814 83.4605 241.532 83.5024C234.411 83.5371 227.29 83.5525 220.169 83.5532C215.92 83.554 211.673 83.5627 207.425 83.5912C203.425 83.6175 199.425 83.6195 195.425 83.6035C193.964 83.6017 192.502 83.6084 191.041 83.6244C182.458 83.7126 175.06 83.3367 168 78.0014C161.567 70.156 161.27 61.8417 161.782 52.0732C162.376 46.4205 164.661 41.9537 169.008 38.3256C173.182 35.5915 176.964 33.872 182.012 33.8879C182.813 33.888 183.614 33.888 184.439 33.8881C185.728 33.8959 185.728 33.8959 187.043 33.9038C187.927 33.9052 188.81 33.9066 189.721 33.9081C192.543 33.9136 195.365 33.9262 198.187 33.9389C200.101 33.9439 202.014 33.9485 203.928 33.9526C208.619 33.9636 213.309 33.9809 218 34.0014C218.061 33.3845 218.122 32.7675 218.184 32.1318C218.268 31.322 218.352 30.5121 218.439 29.6777C218.52 28.8751 218.602 28.0725 218.685 27.2456C219.697 20.03 224.613 12.7805 230 8.00142C237.782 2.50445 244.69 -0.385929 254.312 -0.311082Z" fill="white"/>
<path d="M132 387C154.77 387 177.54 387 201 387C201 409.77 201 432.54 201 456C178.23 456 155.46 456 132 456C132 433.23 132 410.46 132 387ZM175 408C173.792 409.196 172.584 410.391 171.375 411.586C167.896 415.037 164.443 418.513 161 422C158.148 420.69 156.513 419.555 154.125 417.375C151.223 414.796 151.223 414.796 147.875 414.438C144.324 415.132 143.154 416.128 141 419C139.914 420.843 139.914 420.843 140 423C142.115 428.184 145.106 431.508 149.062 435.312C149.876 436.118 149.876 436.118 150.705 436.939C154.594 440.773 154.594 440.773 159.625 442.5C168.304 441.214 176.007 430.142 181.938 424.188C182.904 423.224 183.871 422.262 184.838 421.299C185.746 420.389 186.654 419.48 187.59 418.543C188.413 417.718 189.237 416.893 190.086 416.044C192.428 413.543 192.941 412.544 193.312 409.125C193.254 405.96 193.254 405.96 191.375 403.688C183.954 398.415 180.485 402.464 175 408Z" fill="white"/>
<path d="M132 263C154.77 263 177.54 263 201 263C201 285.77 201 308.54 201 332C178.23 332 155.46 332 132 332C132 309.23 132 286.46 132 263ZM174 284C173.194 284.796 173.194 284.796 172.372 285.607C168.554 289.378 164.768 293.18 161 297C158.498 295.82 156.702 294.748 154.562 292.938C151.829 290.87 150.411 290.085 147 290C143.539 291.368 142.28 292.506 140.438 295.75C139.958 299.309 140.436 301.004 142.391 303.996C149.037 312.519 149.037 312.519 158 318C162.625 317.758 164.989 316.66 168.312 313.5C169.154 312.703 169.996 311.907 170.863 311.086C171.911 310.059 172.956 309.03 174 308C174.688 307.326 175.375 306.652 176.083 305.958C179.887 302.223 183.674 298.471 187.438 294.695C188.395 293.736 188.395 293.736 189.371 292.758C191.677 290.269 192.922 288.511 193.438 285.125C193.23 281.833 193.23 281.833 190.875 279.125C188.186 276.865 188.186 276.865 185.188 276.25C180.216 277.42 177.562 280.455 174 284Z" fill="white"/>
<path d="M134 137C156.44 137 178.88 137 202 137C202 159.77 202 182.54 202 206C179.56 206 157.12 206 134 206C134 183.23 134 160.46 134 137ZM149 156C147.998 158.868 147.998 158.868 149 162C151.114 164.893 153.475 167.462 156 170C154.713 172.753 153.274 175.01 151.375 177.375C149.626 179.819 148.976 181.108 148.312 184.125C148.824 187.271 148.824 187.271 151.625 189.938C154.77 192.22 154.77 192.22 158 192.188C162.099 190.565 164.071 188.278 167 185C169.525 186.082 171.006 187.006 172.875 189.062C175.668 191.609 177.224 192.076 181 192C184.608 189.795 186.597 188.365 187.812 184.25C186.56 179.239 183.347 175.842 180 172C181.31 169.148 182.445 167.513 184.625 165.125C187.184 162.226 187.184 162.226 187.625 158.938C186.768 154.908 185.289 153.431 182 151C179 150.167 179 150.167 176 151C173.333 153.333 173.333 153.333 171 156C169.689 156.71 168.359 157.387 167 158C166.564 157.495 166.129 156.989 165.68 156.469C161.936 152.312 161.936 152.312 156.875 150.25C152.952 151.273 151.398 152.756 149 156Z" fill="white"/>
</g>
<defs>
<clipPath id="clip0_335_41">
<rect width="512" height="512" fill="white"/>
</clipPath>
</defs>
</svg>
