<svg width="512" height="512" viewBox="0 0 512 512" fill="none" xmlns="http://www.w3.org/2000/svg">
<path d="M390 61.9988C391.454 63.043 391.454 63.043 392.937 64.1082C413.996 79.5735 432.925 97.6074 448 118.999C448.839 120.146 449.679 121.293 450.519 122.44C484.441 169.889 497.964 232.555 489.481 290.043C487.61 301.165 484.987 312.128 482 322.999C481.758 323.882 481.517 324.766 481.267 325.676C472.699 355.989 456.485 384.252 436 407.999C434.882 409.312 434.882 409.312 433.742 410.651C422.642 423.334 410.651 435.097 397 444.999C396.463 445.391 395.926 445.784 395.373 446.188C374.187 461.563 350.989 473.212 326 480.999C324.898 481.35 324.898 481.35 323.774 481.708C302.238 488.487 279.883 491.231 257.375 491.249C256.603 491.25 255.83 491.25 255.034 491.251C241.509 491.232 228.333 490.414 215 487.999C214.107 487.838 213.213 487.677 212.293 487.511C188.098 482.955 160.7 475.363 140.305 461.116C136.279 459.164 132.399 460.559 128.303 461.846C125.024 462.985 121.765 464.172 118.508 465.374C116.68 466.039 116.68 466.039 114.816 466.717C111.572 467.898 108.331 469.087 105.09 470.278C101.886 471.454 98.6791 472.622 95.4726 473.792C94.2052 474.254 92.9379 474.717 91.6705 475.18C89.1471 476.101 86.623 477.02 84.0984 477.937C78.0251 480.148 71.9654 482.385 65.9286 484.694C64.8099 485.115 63.6911 485.536 62.5384 485.969C60.4611 486.751 58.3887 487.546 56.3229 488.358C48.5355 491.261 40.5889 492.781 32.6874 489.436C26.8473 486.055 23.2587 481.278 20.9999 474.999C18.788 464.182 24.3757 453.286 28.0624 443.374C28.7834 441.392 29.5027 439.409 30.2204 437.426C33.5415 428.277 36.9362 419.155 40.3508 410.039C41.7583 406.278 43.1574 402.513 44.5568 398.749C45.5472 396.102 46.5551 393.462 47.5646 390.823C48.17 389.206 48.7747 387.589 49.3788 385.971C49.6613 385.248 49.9438 384.525 50.2349 383.781C52.116 378.674 52.3074 375.095 50.1872 370.075C49.8663 369.521 49.5454 368.968 49.2148 368.397C48.6721 367.431 48.6721 367.431 48.1186 366.446C47.7288 365.762 47.339 365.078 46.9374 364.374C28.9891 331.544 20.4998 293.711 20.6874 256.436C20.6896 255.657 20.6917 254.877 20.6939 254.074C20.8533 217.891 29.3344 183.578 44.9999 150.999C45.3372 150.297 45.6744 149.595 46.0219 148.872C53.9382 132.656 64.1287 117.585 75.9999 103.999C76.656 103.233 77.3122 102.467 77.9882 101.679C89.2144 88.8667 101.253 77.0676 115 66.9988C115.87 66.3569 116.74 65.7149 117.637 65.0535C148.11 43.1678 183.072 29.1767 220 22.9988C221.013 22.8209 221.013 22.8209 222.046 22.6395C278.917 13.0515 343.309 28.3073 390 61.9988Z" fill="#93969A"/>
</svg>
