<svg width="683" height="683" viewBox="0 0 683 683" fill="none" xmlns="http://www.w3.org/2000/svg">
<path d="M574.667 73.9999C528.267 105.333 481.467 145.2 426 200.667C384.267 242.4 345.867 285.333 310.133 330.4C305.467 336.267 301.733 339.867 300.667 339.467C299.6 339.067 272.8 320.667 241.067 298.4C191.067 263.467 182.667 258.133 178.4 258.133C174 258 171.867 259.733 153.733 276.8C132.933 296.667 128.4 302.533 129.733 308.267C130.267 310.133 141.867 327.2 155.6 346.133C209.2 420.4 259.333 493.333 283.2 531.6C289.6 542 295.867 551.333 296.933 552.267C300.267 555.067 310.133 554.4 313.067 551.333C314.4 549.867 323.2 535.733 332.667 520C389.2 424.933 462 317.2 520 242.8C562.667 187.867 590.267 156.133 631.6 114.933C649.733 96.7999 664.4 81.0666 664.8 79.1999C665.333 77.4666 664.933 74.1333 664 71.8666C660.8 64.1333 660 63.9999 623.067 63.9999H589.333L574.667 73.9999Z" fill="#D0541E"/>
<path d="M266.533 139.333C178.933 153.6 107.467 213.333 78.8 296.267C44.6667 395.333 80 504.4 166 566C180.4 576.4 210.8 591.733 227.333 597.2C305.333 622.533 390.267 606.667 452 555.333C502.267 513.467 531.733 456.667 537.467 390.8C539.2 371.467 537.733 344.267 534 328.667C531.333 316.933 524.133 312.267 515.2 316.533C507.733 320 507.333 322.533 510 344.8C515.333 389.067 508.533 429.467 489.333 467.467C478.533 488.8 468.4 502.533 449.467 521.467C425.2 545.6 401.733 560.4 370.8 571.2C345.733 580 333.467 581.867 302.667 582C278.933 582 273.467 581.6 260.8 578.933C220 570.133 184.533 551.333 155.6 522.933C123.6 491.6 103.467 453.733 95.0667 408.667C91.8667 391.333 91.8667 354.4 95.2 336.667C105.867 279.333 138.667 229.467 186.933 197.733C238.4 163.867 301.6 154.267 360.667 171.333C374.933 175.467 378.667 175.467 383.067 171.467C388 166.8 388.933 161.867 385.867 156.133C383.6 152 382 150.933 372.667 147.733C350.667 140.4 337.6 138.4 306.667 137.867C286.4 137.6 274.667 138 266.533 139.333Z" fill="#D0541E"/>
</svg>
