<svg width="512" height="512" viewBox="0 0 512 512" fill="none" xmlns="http://www.w3.org/2000/svg">
<path d="M120 213C238.8 213 357.6 213 480 213C480 234.45 480 255.9 480 278C477.03 278.99 474.06 279.98 471 281C454.947 287.833 444.574 297.377 437.777 313.684C432.898 328.225 434.642 342.921 441.375 356.562C443.727 361.207 446.292 364.374 450 368C450 368.66 450 369.32 450 370C450.577 370.272 451.155 370.544 451.75 370.824C453.997 371.998 455.942 373.336 458 374.812C464.751 379.373 472.024 382.405 480 384C480 405.45 480 426.9 480 449C361.2 449 242.4 449 120 449C120 427.55 120 406.1 120 384C126.93 382.02 126.93 382.02 134 380C137.946 377.757 141.401 375.666 145 373C145.656 372.539 146.312 372.077 146.988 371.602C156.567 364.253 162.678 351.314 164.684 339.59C166.52 324.558 162.799 310.341 153.879 298.086C145.696 288.33 135.463 282.217 123.012 279.473C121 279 121 279 120 278C120 256.55 120 235.1 120 213ZM320.549 287.027C319.893 288.029 319.238 289.03 318.562 290.062C317.129 292.234 315.694 294.404 314.258 296.574C313.54 297.66 312.822 298.746 312.083 299.865C309.073 304.395 306.01 308.888 302.938 313.375C293.937 326.537 284.998 339.742 276.081 352.961C273.216 357.206 270.337 361.442 267.449 365.672C266.174 367.552 264.899 369.432 263.625 371.312C263.055 372.141 262.484 372.969 261.896 373.823C261.386 374.578 260.877 375.334 260.352 376.113C259.917 376.75 259.482 377.388 259.034 378.044C257.807 380.366 257.332 382.401 257 385C258.14 388.325 258.967 388.978 262 391C265.387 391.389 265.387 391.389 269 390C273.26 385.923 276.255 380.634 279.5 375.746C284.815 367.763 290.19 359.82 295.562 351.875C296.66 350.252 297.757 348.629 298.854 347.005C304.366 338.851 309.881 330.698 315.398 322.547C316.425 321.03 317.452 319.513 318.478 317.997C320.836 314.513 323.195 311.03 325.555 307.548C326.848 305.636 328.137 303.721 329.425 301.806C331.21 299.157 333.02 296.527 334.844 293.905C335.762 292.57 336.68 291.234 337.598 289.898C338.026 289.293 338.454 288.688 338.894 288.065C341.391 284.404 342.788 281.453 343 277C341.659 273.99 341.659 273.99 339 272C329.501 269.889 325.104 280.127 320.549 287.027ZM239.562 282.062C236.053 288.661 236.779 295.719 236.76 303.016C236.75 305.294 236.719 307.572 236.688 309.85C236.681 311.312 236.676 312.775 236.672 314.238C236.66 314.911 236.647 315.585 236.634 316.278C236.663 322.507 238.29 326.966 242.312 331.75C247.997 336.509 252.701 337.503 259.875 337.438C260.639 337.457 261.404 337.477 262.191 337.498C268.692 337.493 274.137 335.827 278.84 331.184C279.202 330.607 279.564 330.031 279.938 329.438C280.508 328.569 280.508 328.569 281.09 327.684C283.265 323.659 283.193 319.777 283.238 315.332C283.246 314.578 283.254 313.825 283.263 313.048C283.277 311.452 283.287 309.856 283.295 308.26C283.307 306.637 283.327 305.015 283.357 303.392C283.8 291.067 283.8 291.067 279 280C273.029 274.327 268.185 273.615 260.25 273.562C258.947 273.513 258.947 273.513 257.617 273.463C249.707 273.398 244.504 275.853 239.562 282.062ZM320.688 332.438C317.395 337.437 316.683 341.731 316.664 347.645C316.657 348.373 316.651 349.102 316.644 349.852C316.634 351.39 316.629 352.927 316.629 354.464C316.625 356.795 316.589 359.124 316.551 361.455C316.412 373.419 316.412 373.419 322.412 383.499C327.796 388.357 332.819 389.345 339.875 389.312C340.557 389.329 341.239 389.345 341.941 389.361C348.237 389.367 352.846 387.811 357.75 383.688C362.171 378.406 363.462 373.833 363.434 367.039C363.439 366.29 363.444 365.54 363.449 364.768C363.456 363.19 363.455 361.611 363.446 360.033C363.438 357.638 363.466 355.246 363.498 352.852C363.647 340.674 363.647 340.674 357.517 330.468C352.038 325.594 347.183 325.762 340.25 325.688C339.368 325.658 338.487 325.629 337.578 325.6C330.295 325.529 325.833 327.014 320.688 332.438Z" fill="#934C32"/>
<path d="M391 63.9984C392.325 66.6475 392.383 68.9623 392.664 71.9168C392.784 73.158 392.904 74.3991 393.028 75.6779C393.156 77.0373 393.283 78.3967 393.41 79.7562C393.543 81.1434 393.676 82.5306 393.809 83.9178C394.16 87.5704 394.505 91.2234 394.85 94.8766C395.202 98.6036 395.559 102.33 395.916 106.057C396.615 113.37 397.309 120.684 398 127.998C396.363 128.691 396.363 128.691 394.693 129.398C393.243 130.02 391.793 130.642 390.344 131.264C389.627 131.566 388.91 131.869 388.171 132.181C373.976 138.303 365.55 149.087 359.91 163.272C358.057 168.824 357.817 173.945 357.812 179.748C357.8 180.509 357.788 181.269 357.775 182.053C357.773 182.814 357.772 183.574 357.77 184.358C357.765 185.033 357.761 185.708 357.757 186.404C357.991 188.907 358.459 191.211 359.015 193.661C359.199 194.472 359.382 195.284 359.571 196.121C359.783 197.05 359.783 197.05 360 197.998C358.09 198.003 358.09 198.003 356.141 198.008C325.919 198.087 295.696 198.177 265.474 198.278C261.755 198.291 258.036 198.303 254.318 198.316C253.577 198.318 252.837 198.321 252.074 198.323C240.082 198.363 228.09 198.396 216.098 198.426C203.796 198.457 191.493 198.496 179.191 198.541C171.598 198.569 164.005 198.591 156.412 198.606C150.592 198.617 144.773 198.64 138.953 198.666C136.564 198.675 134.174 198.681 131.785 198.683C128.529 198.686 125.273 198.701 122.016 198.72C121.066 198.718 120.116 198.716 119.136 198.714C112.83 198.747 112.83 198.747 107 200.998C105.426 204.147 105.844 207.523 105.839 210.981C105.834 211.805 105.829 212.63 105.824 213.479C105.809 216.213 105.802 218.948 105.797 221.682C105.791 223.578 105.785 225.473 105.78 227.369C105.769 231.346 105.763 235.323 105.76 239.3C105.754 244.403 105.73 249.505 105.702 254.608C105.683 258.524 105.678 262.44 105.676 266.356C105.673 268.238 105.665 270.119 105.652 272.001C105.635 274.63 105.637 277.258 105.644 279.887C105.634 280.668 105.625 281.449 105.616 282.253C105.613 286.358 105.613 286.358 107.397 289.943C110.578 292.037 113.106 292.266 116.875 292.686C127.829 294.344 137.208 299.1 144 307.998C147.137 313.065 149.525 317.979 150 323.998C146.977 325.51 143.744 325.527 140.42 325.846C139.638 325.924 138.855 326.003 138.049 326.083C135.451 326.342 132.853 326.594 130.254 326.846C128.445 327.024 126.635 327.202 124.826 327.38C121.024 327.753 117.222 328.123 113.419 328.492C108.57 328.962 103.722 329.44 98.8742 329.921C95.1314 330.291 91.3881 330.656 87.6447 331.02C85.8589 331.194 84.0734 331.37 82.288 331.547C73.1763 332.451 64.1709 333.316 55 332.998C54.2147 325.392 53.4322 317.786 52.6531 310.18C52.2912 306.647 51.9284 303.115 51.5635 299.583C51.1437 295.52 50.728 291.456 50.3125 287.393C50.1813 286.128 50.05 284.863 49.9148 283.56C49.7947 282.38 49.6745 281.199 49.5508 279.982C49.3909 278.426 49.3909 278.426 49.2278 276.84C49.017 274.21 48.9573 271.635 49 268.998C49.7618 268.707 50.5237 268.416 51.3086 268.116C58.1446 265.402 64.0782 262.351 70 257.998C70.8662 257.421 71.7325 256.843 72.625 256.248C82.272 247.109 88.331 233.937 89.2188 220.748C89.6315 205.063 85.2269 191.205 74.3125 179.623C65.9944 171.94 57.9238 167.994 47.0898 165.299C46.2132 165.075 45.3366 164.851 44.4335 164.62C42.2905 164.073 40.1461 163.533 38 162.998C37.216 155.097 36.4335 147.195 35.6531 139.294C35.2906 135.625 34.9277 131.956 34.5635 128.287C34.2121 124.747 33.8621 121.206 33.5131 117.666C33.3796 116.315 33.2457 114.964 33.1112 113.613C32.923 111.721 32.7369 109.83 32.5508 107.939C32.4442 106.862 32.3376 105.785 32.2278 104.675C32 101.998 32 101.998 32 98.9984C41.4295 97.5795 50.8435 96.4314 60.3342 95.5051C61.721 95.3675 63.1077 95.2296 64.4944 95.0915C68.2628 94.7171 72.0315 94.3464 75.8002 93.9763C79.8809 93.575 83.9612 93.1702 88.0415 92.7658C96.017 91.976 103.993 91.1895 111.969 90.4044C118.453 89.7661 124.936 89.1267 131.42 88.4866C132.345 88.3953 133.27 88.304 134.223 88.2099C136.102 88.0244 137.981 87.8388 139.861 87.6533C157.453 85.9167 175.046 84.1841 192.638 82.4527C208.723 80.8697 224.807 79.2813 240.891 77.6905C257.428 76.055 273.965 74.4231 290.502 72.7951C299.779 71.8819 309.054 70.9672 318.33 70.0487C326.221 69.2673 334.113 68.4893 342.005 67.7158C346.029 67.3212 350.052 66.9252 354.076 66.5249C357.762 66.158 361.45 65.7958 365.137 65.437C367.094 65.2455 369.05 65.0493 371.006 64.8528C377.697 64.207 384.278 63.8262 391 63.9984Z" fill="#FF6C2F"/>
<path d="M256.125 288.867C257.404 288.87 258.683 288.872 260 288.875C261.279 288.872 262.558 288.87 263.875 288.867C267 289 267 289 268 290C268.1 292.279 268.131 294.562 268.133 296.844C268.134 297.87 268.134 297.87 268.136 298.917C268.136 300.367 268.135 301.816 268.13 303.265C268.125 305.491 268.13 307.716 268.137 309.941C268.136 311.346 268.135 312.751 268.133 314.156C268.132 315.443 268.131 316.731 268.129 318.057C268 321 268 321 267 322C264.668 322.099 262.334 322.13 260 322.125C258.721 322.128 257.442 322.13 256.125 322.133C253 322 253 322 252 321C251.9 318.721 251.869 316.438 251.867 314.156C251.866 313.472 251.865 312.788 251.864 312.083C251.864 310.633 251.865 309.184 251.87 307.735C251.875 305.509 251.87 303.284 251.863 301.059C251.864 299.654 251.865 298.249 251.867 296.844C251.868 295.557 251.869 294.269 251.871 292.943C252.042 289.041 252.042 289.041 256.125 288.867Z" fill="black"/>
<path d="M336.125 340.867C337.404 340.87 338.683 340.872 340 340.875C341.279 340.872 342.558 340.87 343.875 340.867C347 341 347 341 348 342C348.1 344.279 348.131 346.562 348.133 348.844C348.134 349.87 348.134 349.87 348.136 350.917C348.136 352.367 348.135 353.816 348.13 355.265C348.125 357.491 348.13 359.716 348.137 361.941C348.136 363.346 348.135 364.751 348.133 366.156C348.132 367.443 348.131 368.731 348.129 370.057C348 373 348 373 347 374C344.856 374.099 342.709 374.13 340.562 374.125C339.388 374.128 338.214 374.13 337.004 374.133C334 374 334 374 332 373C331.975 368.603 331.957 364.207 331.945 359.81C331.94 358.314 331.933 356.817 331.925 355.32C331.912 353.173 331.907 351.026 331.902 348.879C331.897 347.585 331.892 346.292 331.886 344.959C332.037 341.041 332.037 341.041 336.125 340.867Z" fill="black"/>
</svg>
