<svg width="512" height="512" viewBox="0 0 512 512" fill="none" xmlns="http://www.w3.org/2000/svg">
<g clip-path="url(#clip0_344_108)">
<path d="M348 268.002C348.824 268.69 349.647 269.379 350.496 270.088C373.463 289.938 389.013 319.439 391.287 349.843C391.936 360.63 392.149 371.378 392.133 382.182C392.134 383.853 392.134 385.525 392.136 387.197C392.137 390.664 392.135 394.131 392.13 397.598C392.125 402.009 392.128 406.42 392.134 410.83C392.138 414.269 392.136 417.708 392.134 421.146C392.133 422.772 392.134 424.397 392.136 426.023C392.172 457.09 392.172 457.09 382.074 469.338C372.214 478.704 357.487 478.845 344.593 479.548C343.811 479.591 343.028 479.634 342.222 479.678C334.128 480.089 326.048 480.146 317.945 480.135C316.316 480.136 314.686 480.137 313.056 480.139C307.746 480.143 302.435 480.135 297.125 480.127C295.273 480.125 293.42 480.122 291.568 480.12C279.547 480.104 267.525 480.069 255.504 480.025C251.086 480.009 246.668 479.995 242.25 479.983C229.624 479.948 216.999 479.899 204.374 479.815C198.804 479.778 193.234 479.747 187.664 479.731C182.401 479.716 177.138 479.682 171.875 479.634C169.938 479.619 168.001 479.611 166.064 479.61C151.792 479.597 140.906 478.757 130.164 468.373C121.18 458.529 119.846 447.605 119.855 434.754C119.85 433.598 119.85 433.598 119.845 432.419C119.835 429.897 119.833 427.375 119.832 424.853C119.829 423.073 119.825 421.293 119.822 419.513C119.816 415.786 119.814 412.059 119.815 408.332C119.815 403.612 119.801 398.891 119.784 394.17C119.773 390.491 119.771 386.812 119.771 383.133C119.77 381.396 119.766 379.659 119.758 377.922C119.694 362.269 120.386 346.491 124.25 331.252C124.466 330.38 124.682 329.508 124.905 328.609C133.308 295.994 154.399 271.886 182.875 254.689C231.911 227.717 305.241 231.816 348 268.002Z" fill="#934C32"/>
<path d="M311.609 51.2535C328.038 64.5508 340.515 84.8002 343 106C344.063 120.69 343.951 135.022 339 149C338.638 150.058 338.276 151.116 337.902 152.207C333.398 164.101 325.856 173.991 317 183C316.314 183.698 315.628 184.397 314.922 185.117C297.372 201.821 273.962 207.684 250.391 207.25C229.838 206.533 211.191 197.471 196 184C195.301 183.396 194.603 182.793 193.883 182.171C178.751 168.195 169.383 146.847 168.566 126.386C168.543 124.153 168.542 121.92 168.562 119.687C168.572 118.506 168.581 117.326 168.59 116.109C169.077 91.4437 179.668 70.6686 197.25 53.6871C229.971 25.3877 277.825 24.9308 311.609 51.2535Z" fill="#FF6C2F"/>
<path d="M76.1514 239.609C78.3672 239.625 80.5811 239.609 82.7969 239.59C102.729 239.56 118.324 243.808 135 255C133.459 258.642 131.24 260.99 128.5 263.813C122.433 270.295 117.619 277.438 113 285C112.636 285.593 112.273 286.185 111.898 286.796C94.6297 315.499 91.6075 349.886 91.8047 382.645C91.8084 384.52 91.8113 386.396 91.8133 388.272C91.8208 393.13 91.8403 397.987 91.8627 402.845C91.8834 407.833 91.8923 412.822 91.9023 417.811C91.9236 427.541 91.9576 437.27 92 447C83.1763 447.093 74.3528 447.164 65.5287 447.207C61.4304 447.228 57.3325 447.256 53.2344 447.302C49.2727 447.346 45.3113 447.369 41.3493 447.38C39.8448 447.387 38.3402 447.401 36.8358 447.423C25.6986 447.578 16.0291 446.653 7.53516 438.781C2.80144 433.289 -0.11387 427.086 -0.147171 419.836C-0.154326 418.767 -0.161482 417.698 -0.168854 416.596C-0.171543 415.422 -0.174232 414.249 -0.177002 413.04C-0.183573 411.804 -0.190144 410.568 -0.196915 409.294C-0.216675 405.19 -0.228324 401.085 -0.238281 396.981C-0.242331 395.563 -0.24645 394.146 -0.250633 392.729C-0.269693 386.062 -0.283914 379.396 -0.292244 372.729C-0.301984 365.061 -0.328216 357.393 -0.368744 349.726C-0.399057 343.784 -0.413725 337.842 -0.417023 331.901C-0.419358 328.36 -0.428119 324.82 -0.453484 321.279C-0.481428 317.314 -0.476889 313.349 -0.469971 309.384C-0.482781 308.232 -0.495591 307.081 -0.508789 305.895C-0.395882 288.004 6.63328 272.34 19.1172 259.723C35.4414 244.306 54.3224 239.422 76.1514 239.609Z" fill="#934C32"/>
<path d="M431.11 239.685C433.366 239.688 435.62 239.664 437.875 239.639C450.479 239.582 463.102 240.584 474.375 246.75C475.041 247.1 475.706 247.449 476.392 247.809C481.716 250.676 486.508 253.938 491 258C491.61 258.53 492.219 259.06 492.848 259.606C503.231 269.213 511.199 284.54 512.192 298.746C512.274 302.004 512.293 305.257 512.291 308.516C512.297 309.751 512.304 310.986 512.311 312.259C512.327 315.626 512.333 318.994 512.335 322.362C512.336 324.471 512.34 326.579 512.346 328.688C512.364 336.058 512.372 343.427 512.371 350.797C512.369 357.646 512.391 364.496 512.422 371.345C512.448 377.244 512.459 383.143 512.458 389.043C512.457 392.558 512.463 396.073 512.484 399.588C512.507 403.511 512.498 407.433 512.486 411.356C512.497 412.507 512.508 413.659 512.52 414.846C512.443 424.766 509.753 431.916 503 439.207C496.494 445.04 489.98 447.13 481.396 447.114C480.414 447.114 480.414 447.114 479.413 447.114C477.26 447.114 475.107 447.106 472.953 447.098C471.457 447.096 469.96 447.095 468.464 447.094C464.531 447.09 460.599 447.08 456.667 447.069C452.651 447.059 448.636 447.054 444.621 447.049C436.747 447.038 428.874 447.021 421 447C419.767 443.19 419.881 439.416 419.918 435.46C419.921 434.704 419.924 433.949 419.928 433.171C419.935 431.53 419.944 429.89 419.955 428.249C419.973 425.63 419.983 423.011 419.991 420.391C420.016 412.943 420.051 405.495 420.096 398.047C420.399 346.443 416.915 299.382 379.715 260.024C378 258 378 258 377 255C393.713 242.665 410.722 239.625 431.11 239.685Z" fill="#934C32"/>
<path d="M463 104.998C464.1 105.718 464.1 105.718 465.223 106.451C476.939 114.731 483.968 127.115 487 140.998C488.519 159.67 485.459 174.933 473.375 189.623C463.712 200.003 450.624 206.393 436.434 207.201C418.984 207.406 404.996 203.096 392 190.998C379.778 178.026 376.353 163.439 376.691 146.213C377.296 132.262 383.838 121.221 393 110.998C412.93 94.8559 440.811 89.6004 463 104.998Z" fill="#FF6C2F"/>
<path d="M111 104.998C112.1 105.718 112.1 105.718 113.223 106.451C124.939 114.731 131.968 127.115 135 140.998C136.519 159.67 133.459 174.933 121.375 189.623C111.712 200.003 98.6239 206.393 84.4336 207.201C66.9842 207.406 52.996 203.096 40 190.998C27.7781 178.026 24.3529 163.439 24.6914 146.213C25.296 132.262 31.8382 121.221 41 110.998C60.9298 94.8559 88.8114 89.6004 111 104.998Z" fill="#FF6C2F"/>
</g>
<defs>
<clipPath id="clip0_344_108">
<rect width="512" height="512" fill="white"/>
</clipPath>
</defs>
</svg>
