<svg width="512" height="512" viewBox="0 0 512 512" fill="none" xmlns="http://www.w3.org/2000/svg">
<g clip-path="url(#clip0_329_7)">
<path d="M37.0507 212.852C37.761 212.848 38.4713 212.845 39.2031 212.841C41.5834 212.83 43.9637 212.826 46.344 212.822C48.0509 212.816 49.7578 212.809 51.4646 212.802C57.0715 212.781 62.6783 212.771 68.2852 212.761C70.2178 212.757 72.1504 212.753 74.0831 212.748C83.1659 212.729 92.2487 212.715 101.331 212.707C111.802 212.697 122.273 212.671 132.743 212.63C140.844 212.6 148.946 212.585 157.047 212.582C161.881 212.58 166.716 212.571 171.55 212.546C176.103 212.522 180.656 212.518 185.209 212.528C186.873 212.529 188.538 212.523 190.202 212.509C202.623 212.412 213.071 213.684 222.93 221.952C230.998 229.93 235.293 239.025 235.406 250.365C235.4 251.261 235.394 252.157 235.388 253.081C235.396 254.545 235.396 254.545 235.404 256.038C235.418 259.287 235.411 262.536 235.404 265.786C235.41 268.124 235.417 270.462 235.425 272.8C235.443 279.137 235.442 285.474 235.436 291.81C235.432 297.777 235.44 303.743 235.447 309.709C235.461 322.249 235.456 334.788 235.444 347.327C235.434 358.781 235.447 370.235 235.471 381.689C235.495 393.47 235.505 405.251 235.498 417.031C235.495 423.637 235.497 430.243 235.515 436.849C235.53 443.063 235.526 449.276 235.507 455.49C235.504 457.765 235.507 460.041 235.517 462.316C235.585 478.174 235.025 490.833 223.34 502.683C216.018 509.371 208.711 512.114 198.873 512.146C198.155 512.15 197.437 512.154 196.696 512.157C194.288 512.168 191.88 512.172 189.472 512.176C187.746 512.182 186.019 512.189 184.293 512.196C178.621 512.217 172.949 512.227 167.277 512.237C165.322 512.241 163.368 512.246 161.413 512.25C152.225 512.269 143.038 512.283 133.85 512.291C123.259 512.301 112.667 512.327 102.075 512.368C93.8805 512.398 85.6859 512.413 77.4912 512.416C72.6008 512.419 67.7107 512.427 62.8205 512.453C58.2149 512.476 53.6097 512.48 49.0041 512.47C47.3204 512.469 45.6366 512.476 43.9529 512.489C32.0862 512.581 21.4106 511.619 11.8477 503.823C3.85039 495.927 -0.294834 486.774 -0.405853 475.576C-0.399843 474.672 -0.393834 473.767 -0.387642 472.835C-0.39572 471.358 -0.39572 471.358 -0.403961 469.851C-0.418198 466.571 -0.411148 463.292 -0.404015 460.013C-0.40972 457.654 -0.416685 455.294 -0.424812 452.935C-0.442735 446.54 -0.441578 440.146 -0.435871 433.751C-0.433557 429.754 -0.435773 425.756 -0.44035 421.759C-0.441098 421.094 -0.441844 420.429 -0.442616 419.744C-0.444147 418.394 -0.445686 417.043 -0.447231 415.692C-0.460941 403.042 -0.455529 390.392 -0.444046 377.742C-0.434114 366.184 -0.447054 354.626 -0.470978 343.068C-0.495394 331.182 -0.504971 319.297 -0.498325 307.411C-0.494839 300.745 -0.497365 294.079 -0.514576 287.414C-0.530056 281.145 -0.526082 274.877 -0.507275 268.608C-0.503592 266.311 -0.506687 264.014 -0.517159 261.718C-0.53039 258.575 -0.518801 255.433 -0.501167 252.29C-0.515575 250.937 -0.515575 250.937 -0.530273 249.556C-0.405343 238.687 4.18486 230.038 11.625 222.312C18.9251 215.552 27.2609 212.885 37.0507 212.852Z" fill="#934C32"/>
<path d="M313.127 -0.14741C313.845 -0.151087 314.563 -0.154764 315.304 -0.158552C317.712 -0.169567 320.12 -0.173429 322.528 -0.177241C324.254 -0.183508 325.981 -0.190155 327.707 -0.197154C333.379 -0.21818 339.051 -0.228557 344.723 -0.238521C346.678 -0.242569 348.632 -0.246686 350.587 -0.250871C359.775 -0.269921 368.962 -0.284151 378.15 -0.292483C388.742 -0.302247 399.333 -0.328547 409.925 -0.368983C418.12 -0.399191 426.314 -0.413956 434.509 -0.417264C439.399 -0.419609 444.289 -0.428507 449.18 -0.453725C453.785 -0.47709 458.39 -0.481205 462.996 -0.470963C464.68 -0.47047 466.363 -0.476734 468.047 -0.490519C479.914 -0.582187 490.589 0.379888 500.152 8.17554C508.15 16.0714 512.295 25.2252 512.406 36.4226C512.4 37.3273 512.394 38.232 512.388 39.1641C512.396 40.6412 512.396 40.6412 512.404 42.1482C512.418 45.4275 512.411 48.7065 512.404 51.9858C512.41 54.3453 512.417 56.7048 512.425 59.0642C512.443 65.4588 512.442 71.8533 512.436 78.2479C512.434 82.2453 512.436 86.2427 512.44 90.2401C512.441 90.9049 512.442 91.5696 512.443 92.2545C512.444 93.6052 512.446 94.9559 512.447 96.3066C512.461 108.957 512.456 121.606 512.444 134.256C512.434 145.815 512.447 157.372 512.471 168.931C512.495 180.816 512.505 192.702 512.498 204.588C512.495 211.254 512.497 217.92 512.515 224.585C512.53 230.854 512.526 237.122 512.507 243.391C512.504 245.688 512.507 247.984 512.517 250.281C512.53 253.424 512.519 256.566 512.501 259.708C512.516 261.062 512.516 261.062 512.53 262.443C512.405 273.312 507.815 281.961 500.375 289.687C493.087 296.436 484.757 299.117 474.981 299.14C474.274 299.143 473.567 299.146 472.838 299.149C470.47 299.158 468.101 299.159 465.732 299.161C464.033 299.166 462.335 299.171 460.636 299.176C456.02 299.189 451.404 299.196 446.788 299.2C443.902 299.203 441.016 299.207 438.13 299.211C429.095 299.225 420.06 299.235 411.024 299.239C400.606 299.243 390.187 299.261 379.769 299.29C371.709 299.311 363.65 299.321 355.59 299.323C350.78 299.324 345.969 299.33 341.159 299.348C336.63 299.364 332.101 299.366 327.572 299.357C325.915 299.357 324.258 299.361 322.602 299.371C309.102 299.447 298.557 298.119 288 289C275.777 276.614 276.419 262.29 276.482 245.986C276.477 243.648 276.47 241.309 276.461 238.971C276.443 232.642 276.45 226.314 276.463 219.986C276.472 214.024 276.465 208.063 276.459 202.102C276.448 189.576 276.461 177.05 276.482 164.524C276.5 153.795 276.497 143.066 276.479 132.337C276.457 119.853 276.449 107.37 276.461 94.8862C276.467 88.2869 276.468 81.6877 276.455 75.0884C276.443 68.883 276.451 62.678 276.474 56.4727C276.48 54.2003 276.478 51.928 276.469 49.6557C276.413 33.8108 276.986 21.1556 288.66 9.31617C295.982 2.62777 303.289 -0.114752 313.127 -0.14741Z" fill="#FF6C2F"/>
<path d="M323.912 340.597C325.619 340.591 327.327 340.584 329.034 340.576C333.652 340.558 338.27 340.559 342.888 340.565C346.752 340.568 350.616 340.562 354.48 340.556C363.601 340.542 372.722 340.543 381.843 340.555C391.232 340.566 400.621 340.552 410.01 340.525C418.09 340.503 426.17 340.497 434.25 340.502C439.068 340.506 443.885 340.503 448.703 340.486C453.235 340.471 457.768 340.475 462.3 340.493C463.957 340.497 465.613 340.494 467.269 340.484C481.274 340.401 492.401 342.521 502.684 352.661C508.451 358.974 512.102 366.07 512.147 374.698C512.158 376.108 512.158 376.108 512.169 377.547C512.172 378.572 512.174 379.597 512.177 380.653C512.184 381.738 512.19 382.823 512.197 383.941C512.217 387.535 512.228 391.129 512.238 394.723C512.242 395.953 512.246 397.182 512.251 398.448C512.269 404.287 512.284 410.126 512.292 415.964C512.301 422.014 512.32 428.063 512.357 434.112C512.395 440.613 512.414 447.115 512.418 453.616C512.423 456.088 512.435 458.561 512.453 461.033C512.478 464.503 512.477 467.972 512.47 471.442C512.489 472.959 512.489 472.959 512.509 474.505C512.434 484.824 509.362 494.544 502 502.001C490.711 511.558 480.029 512.447 465.889 512.405C464.16 512.41 462.431 512.417 460.702 512.426C456.026 512.443 451.351 512.442 446.675 512.437C442.764 512.434 438.852 512.44 434.941 512.446C425.71 512.46 416.479 512.458 407.248 512.447C397.742 512.435 388.236 512.449 378.73 512.476C370.551 512.498 362.372 512.505 354.194 512.499C349.316 512.496 344.439 512.498 339.562 512.515C334.974 512.531 330.387 512.527 325.799 512.508C324.122 512.504 322.444 512.507 320.766 512.518C306.836 512.598 296.602 510.284 286.312 500.376C280.441 494.034 276.899 486.051 276.853 477.38C276.846 476.456 276.839 475.533 276.831 474.581C276.828 473.575 276.826 472.569 276.823 471.532C276.816 470.466 276.81 469.401 276.803 468.303C276.783 464.774 276.772 461.245 276.762 457.716C276.758 456.508 276.754 455.301 276.749 454.057C276.729 447.665 276.714 441.272 276.705 434.879C276.694 428.291 276.659 421.703 276.62 415.115C276.593 410.037 276.585 404.959 276.582 399.881C276.577 397.453 276.565 395.026 276.547 392.598C276.522 389.19 276.523 385.783 276.53 382.375C276.517 381.383 276.504 380.391 276.491 379.369C276.572 368.343 280.205 358.885 288 351.001C299.193 341.476 309.863 340.554 323.912 340.597Z" fill="#934C32"/>
<path d="M46.1111 -0.40332C47.84 -0.40903 49.5689 -0.415996 51.2979 -0.424118C55.9735 -0.442002 60.649 -0.44089 65.3247 -0.435176C69.2361 -0.432077 73.1475 -0.438184 77.0589 -0.444214C86.2901 -0.458242 95.5211 -0.456713 104.752 -0.445313C114.258 -0.433832 123.764 -0.44791 133.27 -0.474709C141.449 -0.496897 149.628 -0.503496 157.806 -0.497633C162.684 -0.494269 167.561 -0.496635 172.438 -0.513884C177.026 -0.529401 181.613 -0.525344 186.201 -0.506578C187.878 -0.502906 189.556 -0.505962 191.234 -0.516464C205.164 -0.596971 215.398 1.71745 225.688 11.6257C231.559 17.9672 235.101 25.9508 235.147 34.6217C235.158 36.0071 235.158 36.0071 235.169 37.4204C235.172 38.4267 235.174 39.433 235.177 40.4697C235.184 41.5353 235.19 42.6008 235.197 43.6987C235.217 47.2278 235.228 50.7568 235.238 54.2859C235.242 55.4931 235.246 56.7003 235.251 57.9441C235.271 64.3369 235.286 70.7297 235.295 77.1226C235.306 83.7108 235.341 90.2986 235.38 96.8867C235.407 101.965 235.415 107.043 235.418 112.121C235.423 114.548 235.435 116.976 235.453 119.403C235.478 122.811 235.477 126.218 235.47 129.626C235.489 131.114 235.489 131.114 235.509 132.632C235.428 143.666 231.79 153.106 224 161.001C212.75 170.72 201.32 171.448 187.067 171.405C185.369 171.41 183.671 171.417 181.973 171.426C177.386 171.443 172.8 171.442 168.213 171.437C164.373 171.434 160.534 171.44 156.695 171.446C147.633 171.46 138.571 171.458 129.509 171.447C120.182 171.435 110.855 171.449 101.528 171.476C93.4983 171.498 85.4692 171.505 77.44 171.499C72.6538 171.496 67.8677 171.498 63.0815 171.515C58.5792 171.531 54.0774 171.527 49.5751 171.508C47.9301 171.504 46.285 171.507 44.64 171.518C30.6708 171.6 19.5699 169.451 9.31641 159.341C3.53187 153.008 -0.10231 145.909 -0.147171 137.259C-0.154326 136.309 -0.161482 135.359 -0.168854 134.38C-0.172887 132.826 -0.172887 132.826 -0.177002 131.24C-0.183573 130.144 -0.190144 129.048 -0.196915 127.918C-0.216637 124.287 -0.228309 120.655 -0.238281 117.024C-0.242357 115.783 -0.246434 114.541 -0.250633 113.262C-0.269341 107.366 -0.283905 101.47 -0.292244 95.5747C-0.302001 88.7896 -0.328283 82.0049 -0.368744 75.22C-0.402665 69.3275 -0.4144 63.4351 -0.418449 57.5425C-0.423311 55.0443 -0.43491 52.5462 -0.453484 50.0481C-0.477913 46.5443 -0.476904 43.0413 -0.469971 39.5374C-0.482781 38.5136 -0.495591 37.4899 -0.508789 36.4351C-0.436028 26.3005 2.88189 17.3475 10 10.0007C21.276 0.434409 31.9795 -0.445513 46.1111 -0.40332Z" fill="#FF6C2F"/>
</g>
<defs>
<clipPath id="clip0_329_7">
<rect width="512" height="512" fill="white"/>
</clipPath>
</defs>
</svg>
