<svg width="512" height="512" viewBox="0 0 512 512" fill="none" xmlns="http://www.w3.org/2000/svg">
<g clip-path="url(#clip0_348_5)">
<path d="M85 113C197.86 113 310.72 113 427 113C427.121 200.64 427.121 200.64 427.146 237.232C427.152 245.608 427.158 253.984 427.165 262.359C427.166 263.934 427.166 263.934 427.167 265.54C427.18 282.482 427.204 299.423 427.231 316.365C427.26 333.755 427.276 351.145 427.282 368.534C427.286 379.263 427.299 389.991 427.324 400.719C427.34 408.079 427.344 415.438 427.341 422.797C427.339 427.041 427.341 431.286 427.358 435.53C427.372 439.421 427.373 443.311 427.363 447.202C427.361 448.605 427.365 450.008 427.375 451.41C427.48 468.016 422.943 483.826 411.156 496.043C399.602 506.53 386.282 512.318 370.748 512.267C369.22 512.274 369.22 512.274 367.662 512.281C364.257 512.294 360.852 512.292 357.447 512.291C355.002 512.297 352.557 512.303 350.113 512.311C344.165 512.327 338.218 512.333 332.271 512.334C327.433 512.335 322.595 512.339 317.758 512.346C304.025 512.363 290.293 512.372 276.561 512.371C275.821 512.371 275.082 512.371 274.32 512.371C273.209 512.37 273.209 512.37 272.076 512.37C260.082 512.37 248.089 512.389 236.096 512.417C223.765 512.446 211.434 512.459 199.103 512.458C192.186 512.457 185.27 512.462 178.354 512.484C171.846 512.504 165.338 512.504 158.83 512.489C156.446 512.487 154.063 512.492 151.68 512.504C128.541 512.614 128.541 512.614 119 508C118.018 507.534 117.035 507.069 116.023 506.589C101.881 499.604 92.2591 487.792 87 473C84.8246 465.164 84.7233 457.684 84.7595 449.592C84.7586 448.137 84.7569 446.681 84.7543 445.226C84.7499 441.244 84.7578 437.262 84.7679 433.281C84.7765 428.98 84.7736 424.68 84.7721 420.379C84.771 412.934 84.7773 405.49 84.7885 398.045C84.8048 387.281 84.81 376.517 84.8125 365.753C84.8169 348.288 84.8302 330.823 84.8491 313.358C84.8675 296.395 84.8816 279.432 84.8901 262.469C84.8907 261.412 84.8912 260.356 84.8918 259.267C84.8959 251.002 84.8998 242.737 84.9037 234.473C84.9225 193.982 84.9628 153.491 85 113Z" fill="white"/>
<path d="M248.444 -3.4699C254.323 -3.368 260.19 -3.40468 266.068 -3.51857C324.858 -4.63149 324.858 -4.63149 335.962 4.42993C339.46 7.82854 342.36 11.5107 345.186 15.4745C349.682 21.7404 353.431 26.7211 361.252 28.4993C375.393 30.7584 389.964 29.9246 404.21 29.319C411.097 29.0615 417.988 29.0117 424.879 28.9255C435.264 28.7731 445.61 28.3641 456 28.0015C456 47.1415 456 66.2815 456 86.0015C324 86.0015 192 86.0015 56 86.0015C56 66.8615 56 47.7215 56 28.0015C66.3583 28.363 66.3583 28.363 76.9258 28.7319C81.3609 28.8245 85.7932 28.9089 90.2285 28.9643C97.2367 29.0528 104.236 29.1679 111.239 29.4656C136.708 31.9799 136.708 31.9799 159.709 24.2971C162.88 20.9935 165.515 17.2968 168.168 13.5757C185.364 -10.0299 222.319 -3.97602 248.444 -3.4699Z" fill="white"/>
</g>
<defs>
<clipPath id="clip0_348_5">
<rect width="512" height="512" fill="white"/>
</clipPath>
</defs>
</svg>
