<svg width="512" height="512" viewBox="0 0 512 512" fill="none" xmlns="http://www.w3.org/2000/svg">
<path d="M269 115C270.112 115.951 271.223 116.902 272.334 117.854C273.263 118.648 273.263 118.648 274.21 119.459C287.521 130.917 299.732 143.6 312.126 156.025C315.117 159.022 318.11 162.015 321.103 165.01C326.75 170.66 332.394 176.312 338.038 181.966C344.471 188.41 350.907 194.852 357.344 201.294C370.566 214.526 383.784 227.762 397 241C395.574 244.243 393.845 246.407 391.349 248.908C390.585 249.678 389.822 250.448 389.035 251.242C387.771 252.501 387.771 252.501 386.482 253.786C385.589 254.683 384.697 255.58 383.777 256.504C381.299 258.994 378.815 261.478 376.33 263.961C373.65 266.64 370.977 269.325 368.303 272.008C363.06 277.267 357.813 282.52 352.563 287.771C348.293 292.042 344.025 296.314 339.759 300.587C327.656 312.707 315.55 324.822 303.438 336.932C302.785 337.586 302.132 338.239 301.459 338.911C300.805 339.565 300.151 340.219 299.478 340.893C288.891 351.478 278.315 362.074 267.743 372.674C256.883 383.562 246.016 394.443 235.141 405.317C229.038 411.42 222.937 417.525 216.845 423.639C211.655 428.847 206.458 434.049 201.252 439.241C198.599 441.888 195.948 444.538 193.307 447.197C190.436 450.087 187.55 452.96 184.661 455.833C183.839 456.666 183.016 457.499 182.169 458.357C170.3 470.087 158.122 475.382 141.754 477.41C140.754 477.537 139.754 477.664 138.724 477.795C135.484 478.203 132.242 478.603 129 479C127.382 479.199 127.382 479.199 125.731 479.402C119.026 480.222 112.319 481.015 105.61 481.79C103.319 482.056 101.028 482.327 98.7386 482.601C54.6193 487.89 54.6193 487.89 39.4805 476.168C32.0219 469.649 27.3757 460.848 26 451C25.4792 441.69 26.7851 432.431 27.8282 423.199C28.0205 421.473 28.2127 419.748 28.4048 418.022C28.8076 414.417 29.2152 410.812 29.6255 407.207C30.1466 402.623 30.6509 398.037 31.1511 393.451C31.5424 389.888 31.9451 386.327 32.3509 382.766C32.5415 381.078 32.7281 379.389 32.9104 377.699C35.1199 357.317 40.4252 342.889 55.3078 328.211C56.6827 326.831 56.6827 326.831 58.0854 325.423C60.6032 322.897 63.1332 320.382 65.6656 317.87C68.4042 315.149 71.1311 312.416 73.8596 309.685C78.5795 304.963 83.3066 300.248 88.0388 295.538C94.8807 288.729 101.711 281.909 108.539 275.086C119.62 264.014 130.709 252.951 141.804 241.894C152.577 231.158 163.346 220.418 174.109 209.672C175.105 208.677 175.105 208.677 176.122 207.662C179.454 204.335 182.787 201.007 186.119 197.679C213.733 170.107 241.362 142.549 269 115Z" fill="white"/>
<path d="M409 35.0008C417.148 41.7008 424.541 49.3466 432.016 56.7782C432.617 57.3753 433.218 57.9723 433.837 58.5875C437.011 61.7408 440.182 64.8973 443.351 68.0562C446.599 71.2933 449.858 74.5185 453.121 77.7413C455.653 80.2476 458.177 82.7627 460.698 85.2803C461.895 86.4729 463.096 87.6621 464.3 88.8476C472.442 96.8707 479.557 104.779 483.312 115.813C483.771 117.122 483.771 117.122 484.238 118.458C488.091 131.319 486.39 144.729 480.375 156.626C474.27 166.922 465.055 175.088 456.621 183.477C455.558 184.539 454.494 185.601 453.431 186.663C450.667 189.424 447.899 192.181 445.131 194.938C442.293 197.766 439.458 200.596 436.623 203.427C431.085 208.954 425.543 214.479 420 220.001C416.157 218.417 413.729 215.976 410.811 213.053C410.047 212.291 410.047 212.291 409.267 211.513C407.561 209.811 405.862 208.101 404.163 206.391C402.941 205.169 401.719 203.947 400.496 202.725C397.178 199.407 393.866 196.084 390.555 192.759C387.094 189.285 383.627 185.817 380.161 182.349C373.598 175.78 367.04 169.205 360.484 162.629C353.021 155.143 345.551 147.662 338.081 140.182C322.714 124.795 307.355 109.4 292 94.0008C293.771 90.212 295.975 87.7604 298.934 84.7767C299.435 84.2688 299.936 83.7609 300.452 83.2377C302.109 81.5622 303.773 79.8944 305.438 78.2274C306.599 77.0593 307.761 75.8912 308.922 74.7228C311.36 72.2732 313.801 69.8277 316.246 67.3846C319.358 64.2725 322.456 61.1468 325.551 58.0174C327.948 55.5979 330.355 53.1877 332.763 50.78C333.908 49.6327 335.05 48.4822 336.188 47.3283C344.094 39.3249 351.959 32.3821 362.812 28.6883C363.685 28.3828 364.558 28.0773 365.457 27.7625C380.429 23.2779 396.142 26.4264 409 35.0008Z" fill="white"/>
</svg>
