<svg width="512" height="512" viewBox="0 0 512 512" fill="none" xmlns="http://www.w3.org/2000/svg">
<path d="M82.8148 47.6114C84.0726 47.606 85.3304 47.6006 86.6263 47.5951C90.0923 47.5807 93.5581 47.5848 97.0241 47.5922C100.772 47.597 104.52 47.5844 108.268 47.5742C115.6 47.5571 122.933 47.5562 130.266 47.5614C136.228 47.5655 142.191 47.564 148.154 47.5587C149.429 47.5576 149.429 47.5576 150.729 47.5564C152.456 47.5549 154.183 47.5533 155.91 47.5518C172.091 47.5381 188.271 47.5435 204.452 47.555C219.238 47.5649 234.025 47.552 248.812 47.528C264.013 47.5036 279.214 47.494 294.416 47.5007C302.943 47.5042 311.47 47.502 319.997 47.4844C327.256 47.4697 334.514 47.4691 341.773 47.4865C345.473 47.495 349.173 47.4972 352.873 47.4819C356.892 47.4654 360.912 47.4802 364.931 47.4979C366.088 47.4883 367.245 47.4786 368.436 47.4688C382.651 47.5967 393.425 52.7316 403.75 62.3116C416.029 75.2856 416.446 89.5469 416.404 106.405C416.41 108.475 416.417 110.546 416.425 112.617C416.443 118.22 416.442 123.823 416.436 129.427C416.433 134.113 416.439 138.8 416.445 143.487C416.459 154.548 416.458 165.609 416.446 176.67C416.435 188.062 416.449 199.453 416.476 210.845C416.498 220.644 416.504 230.443 416.498 240.242C416.495 246.086 416.497 251.93 416.515 257.774C416.53 263.272 416.526 268.77 416.507 274.268C416.504 276.278 416.507 278.289 416.517 280.3C416.602 297.814 413.972 310.508 401.688 323.749C392.085 332.838 380.799 336.478 367.785 336.378C366.807 336.382 365.828 336.387 364.821 336.391C361.57 336.403 358.319 336.393 355.068 336.384C352.727 336.388 350.385 336.393 348.044 336.4C343.014 336.412 337.985 336.414 332.956 336.41C325.675 336.404 318.394 336.416 311.113 336.433C299.285 336.462 287.457 336.479 275.628 336.488C274.922 336.488 274.215 336.489 273.487 336.489C267.752 336.493 262.018 336.497 256.284 336.5C251.27 336.503 246.256 336.507 241.242 336.51C240.182 336.511 240.182 336.511 239.102 336.512C227.314 336.521 215.527 336.541 203.739 336.57C195.834 336.588 187.928 336.592 180.023 336.585C175.103 336.583 170.184 336.594 165.265 336.608C162.987 336.612 160.709 336.611 158.431 336.604C155.317 336.596 152.203 336.606 149.088 336.621C148.192 336.614 147.295 336.607 146.371 336.6C137.297 336.681 130.601 338.83 123.813 344.999C122.692 345.994 121.57 346.986 120.445 347.976C119.877 348.48 119.309 348.984 118.724 349.504C115.961 351.9 113.079 354.136 110.188 356.374C105.073 360.353 100.02 364.4 95.0001 368.499C89.4587 373.021 83.8793 377.486 78.2408 381.886C75.1175 384.325 72.0146 386.787 68.9337 389.28C68.2564 389.827 67.579 390.375 66.8812 390.938C65.5758 391.995 64.2727 393.054 62.9725 394.116C56.8198 399.089 52.9746 400.468 44.9141 400.312C39.7114 399.754 37.2365 397.388 33.8756 393.612C30.8048 388.84 31.4499 383.295 31.4921 377.817C31.4828 375.96 31.4828 375.96 31.4732 374.066C31.4601 370.636 31.4648 367.207 31.4772 363.778C31.4862 360.076 31.4723 356.374 31.4613 352.673C31.4435 345.422 31.4473 338.172 31.4589 330.922C31.468 325.026 31.4692 319.13 31.4648 313.234C31.4642 312.394 31.4636 311.555 31.463 310.69C31.4617 308.985 31.4604 307.279 31.4591 305.574C31.4477 289.578 31.4608 273.583 31.4823 257.588C31.5001 243.878 31.4971 230.168 31.4786 216.458C31.4572 200.528 31.4488 184.599 31.461 168.67C31.4623 166.969 31.4636 165.268 31.4648 163.567C31.4657 162.312 31.4657 162.312 31.4667 161.031C31.4701 155.149 31.4643 149.266 31.4549 143.384C31.4436 136.205 31.4468 129.027 31.468 121.848C31.4785 118.189 31.4827 114.53 31.4694 110.871C31.4552 106.895 31.4723 102.919 31.4921 98.9428C31.4832 97.799 31.4743 96.6552 31.4651 95.4767C31.6021 81.3055 36.7648 70.54 46.3126 60.2491C56.8632 50.2636 68.6756 47.5382 82.8148 47.6114ZM187.297 127.44C181.677 133.7 176.834 141.52 176 149.999C176.745 154.902 178.21 158.711 182 161.999C186.547 165.031 190.624 165.682 196 164.999C202.44 162.379 204.63 158.868 208 152.999C210.985 148.268 214.242 145.84 219.598 144.343C224.423 143.652 228.672 144.576 232.828 147.116C235.75 149.4 237.658 151.573 239 154.999C239.652 160.442 239.707 165.38 237.5 170.437C234.886 173.116 232.361 174.851 229.149 176.726C219.49 182.451 211.883 189.947 208.414 200.839C207.213 207.105 206.942 213.766 209.688 219.562C213.846 223.944 216.639 226.61 222.949 227.097C227.636 226.874 231.014 224.694 234.75 222.062C237.183 218.751 237.414 217.09 238.063 213.124C238.907 209.143 239.416 207.475 242.606 204.874C245.696 203.154 248.835 201.576 252 199.999C262.162 193.205 268.382 181.737 271 169.999C271.957 154.311 269.952 141.745 260 128.999C251.037 118.994 239.392 113.196 226 111.999C210.955 111.431 198.087 117.252 187.297 127.44ZM213.414 244.468C209.349 249.262 208.643 252.339 208.723 258.46C209.274 263.505 212.005 266.099 215.625 269.374C220.203 271.578 224.006 271.796 229 270.999C233.839 268.669 236.67 265.838 239 260.999C239.797 256.005 239.579 252.202 237.375 247.624C234.021 243.917 230.896 241.617 226.125 240.062C221.269 239.964 217.04 241.11 213.414 244.468Z" fill="#93969A"/>
<path d="M448 162C450.234 163.069 452.462 164.149 454.688 165.234C455.626 165.682 455.626 165.682 456.584 166.138C467.929 171.707 474.263 181.391 478.556 193.013C480.291 198.304 480.422 203.229 480.388 208.761C480.396 210.334 480.396 210.334 480.404 211.939C480.418 215.435 480.411 218.931 480.404 222.427C480.41 224.94 480.417 227.454 480.425 229.968C480.441 236.075 480.443 242.181 480.438 248.288C480.434 253.252 480.435 258.215 480.44 263.179C480.441 263.886 480.442 264.594 480.443 265.323C480.444 266.76 480.446 268.198 480.447 269.635C480.461 283.098 480.456 296.561 480.444 310.024C480.434 322.338 480.447 334.652 480.471 346.966C480.495 359.621 480.505 372.275 480.498 384.929C480.495 392.03 480.497 399.13 480.515 406.231C480.531 412.903 480.526 419.575 480.507 426.247C480.504 428.697 480.507 431.148 480.517 433.598C480.53 436.939 480.519 440.279 480.501 443.62C480.511 444.593 480.52 445.565 480.53 446.567C480.468 452.228 479.806 455.522 476 460C471.451 464.322 467.423 464.554 461.423 464.458C454.987 463.597 449.54 460.468 443.879 457.473C442.564 456.8 441.248 456.13 439.931 455.462C436.494 453.713 433.072 451.936 429.654 450.151C424.163 447.292 418.649 444.479 413.138 441.66C411.224 440.677 409.315 439.683 407.407 438.687C405.663 437.786 405.663 437.786 403.885 436.867C402.866 436.337 401.848 435.806 400.798 435.259C395.636 432.936 390.679 432.857 385.09 432.875C384.299 432.874 383.509 432.873 382.694 432.871C380.047 432.868 377.401 432.871 374.754 432.874C372.855 432.873 370.956 432.871 369.057 432.868C364.966 432.864 360.876 432.862 356.786 432.862C350.309 432.861 343.831 432.848 337.354 432.832C336.26 432.83 335.165 432.827 334.038 432.825C331.8 432.819 329.563 432.814 327.325 432.809C312.248 432.774 297.171 432.747 282.094 432.75C271.921 432.751 261.748 432.735 251.575 432.699C246.197 432.68 240.819 432.671 235.441 432.683C230.374 432.695 225.307 432.683 220.24 432.654C218.39 432.647 216.54 432.649 214.69 432.66C198.019 432.752 185.176 429.936 172.852 417.902C162.267 406.747 159.663 395.512 159.875 380.562C159.884 379.354 159.893 378.146 159.902 376.9C159.926 373.933 159.959 370.967 160 368C161.062 367.997 162.125 367.993 163.219 367.99C189.12 367.909 215.021 367.816 240.922 367.712C253.447 367.662 265.973 367.616 278.499 367.578C289.421 367.545 300.344 367.505 311.267 367.457C317.045 367.432 322.824 367.41 328.602 367.397C334.052 367.384 339.502 367.362 344.952 367.333C346.942 367.324 348.932 367.318 350.921 367.316C375.954 367.285 399.119 364.793 419 348C419.592 347.553 420.183 347.105 420.793 346.645C434.559 335.903 443.64 317.065 446 300C446.856 291.683 447.163 283.428 447.205 275.071C447.215 273.841 447.225 272.61 447.235 271.342C447.261 268.008 447.283 264.674 447.303 261.34C447.325 257.841 447.353 254.342 447.379 250.842C447.429 244.234 447.474 237.626 447.517 231.018C447.567 223.487 447.622 215.956 447.677 208.425C447.79 192.95 447.897 177.475 448 162Z" fill="white"/>
</svg>
