<svg width="512" height="512" viewBox="0 0 512 512" fill="none" xmlns="http://www.w3.org/2000/svg">
<path d="M480 151C480 223.6 480 296.2 480 371C468.929 376.827 457.888 382.628 446.688 388.188C445.415 388.822 444.142 389.456 442.87 390.091C438.252 392.393 433.631 394.691 429.011 396.989C425.071 398.949 421.132 400.911 417.194 402.875C415.401 403.768 413.607 404.659 411.813 405.55C405.272 408.811 398.787 412.158 392.33 415.582C380.42 421.886 368.364 427.9 356.312 433.928C354.38 434.894 352.449 435.861 350.518 436.828C343.767 440.208 337.015 443.586 330.261 446.962C323.981 450.102 317.702 453.247 311.425 456.393C306.005 459.109 300.584 461.823 295.161 464.534C291.935 466.147 288.708 467.761 285.484 469.379C281.911 471.171 278.334 472.957 274.758 474.743C273.691 475.279 272.625 475.815 271.526 476.367C270.074 477.09 270.074 477.09 268.592 477.827C267.327 478.461 267.327 478.461 266.036 479.107C264 480 264 480 262 480C262 407.4 262 334.8 262 260C291.7 245.15 321.4 230.3 352 215C358.27 211.7 364.54 208.4 371 205C375.012 202.954 379.026 200.918 383.055 198.908C384.637 198.115 384.637 198.115 386.251 197.307C389.648 195.607 393.047 193.909 396.445 192.211C398.837 191.015 401.229 189.818 403.621 188.622C408.587 186.138 413.554 183.656 418.521 181.174C424.264 178.306 430.005 175.434 435.746 172.561C440.704 170.08 445.663 167.6 450.623 165.121C453.574 163.647 456.524 162.171 459.474 160.695C462.74 159.061 466.007 157.429 469.274 155.798C470.25 155.309 471.227 154.82 472.233 154.316C473.115 153.876 473.998 153.436 474.908 152.983C476.064 152.405 476.064 152.405 477.243 151.815C479 151 479 151 480 151Z" fill="#934C32"/>
<path d="M32 151C35.0077 152.421 38.0149 153.843 41.0219 155.265C41.864 155.663 42.7062 156.061 43.5738 156.47C51.0787 160.021 58.5222 163.688 65.9453 167.406C67.2609 168.064 68.5766 168.721 69.8923 169.378C72.5999 170.731 75.3068 172.086 78.0132 173.441C81.4851 175.18 84.9589 176.915 88.4332 178.65C91.1275 179.995 93.8209 181.342 96.514 182.69C97.7968 183.332 99.0799 183.973 100.363 184.613C102.137 185.499 103.908 186.387 105.68 187.275C106.687 187.779 107.693 188.283 108.73 188.801C111 190 111 190 112 191C112.095 193.556 112.126 196.085 112.114 198.641C112.114 199.441 112.114 200.241 112.114 201.065C112.113 203.722 112.105 206.378 112.098 209.035C112.096 210.872 112.094 212.709 112.093 214.546C112.09 219.391 112.08 224.236 112.069 229.081C112.058 234.021 112.054 238.961 112.049 243.9C112.038 253.6 112.021 263.3 112 273C112.91 272.921 113.821 272.843 114.759 272.762C144.036 270.568 144.036 270.568 152.791 277.633C156.189 280.921 159.075 284.304 162.062 288C166.332 292.95 170.601 297.9 175 303C175.495 263.895 175.495 263.895 176 224C202.023 232.674 225.465 247.733 250 260C250 332.6 250 405.2 250 480C245.926 478.642 242.542 477.396 238.775 475.511C237.767 475.009 236.76 474.508 235.722 473.991C234.633 473.444 233.543 472.896 232.421 472.332C231.261 471.753 230.101 471.174 228.905 470.577C225.729 468.991 222.555 467.401 219.382 465.809C216.04 464.133 212.695 462.462 209.351 460.79C203.722 457.975 198.094 455.157 192.467 452.336C186.012 449.101 179.554 445.869 173.095 442.641C166.17 439.178 159.247 435.713 152.323 432.247C150.356 431.262 148.387 430.277 146.419 429.293C134.062 423.112 121.722 416.911 109.516 410.435C102.419 406.674 95.2501 403.067 88.058 399.491C85.7868 398.362 83.517 397.231 81.2476 396.098C76.4579 393.709 71.6665 391.323 66.875 388.938C61.2516 386.138 55.6288 383.336 50.0078 380.532C47.7722 379.417 45.5354 378.305 43.2985 377.193C41.9449 376.518 40.5913 375.843 39.2378 375.168C38.6167 374.86 37.9956 374.552 37.3556 374.234C33.1138 372.114 33.1138 372.114 32 371C31.9021 368.168 31.87 365.36 31.8797 362.528C31.8789 361.628 31.878 360.729 31.8771 359.803C31.8755 356.766 31.881 353.728 31.8864 350.691C31.8867 348.524 31.8866 346.356 31.886 344.188C31.8857 338.284 31.8916 332.379 31.8986 326.474C31.9048 320.311 31.9054 314.148 31.9066 307.984C31.9097 296.304 31.9179 284.624 31.928 272.944C31.9391 259.65 31.9446 246.357 31.9497 233.063C31.9601 205.709 31.9777 178.354 32 151Z" fill="#934C32"/>
<path d="M400.6 103.551C401.951 104.217 403.298 104.891 404.642 105.572C405.382 105.94 406.123 106.307 406.886 106.686C409.32 107.897 411.748 109.119 414.176 110.342C415.868 111.188 417.561 112.034 419.255 112.879C422.795 114.649 426.333 116.424 429.868 118.203C434.408 120.487 438.954 122.758 443.501 125.026C446.994 126.769 450.484 128.517 453.973 130.268C455.649 131.108 457.325 131.947 459.003 132.784C461.34 133.951 463.673 135.125 466.005 136.302C467.052 136.822 467.052 136.822 468.119 137.353C472.886 139.773 472.886 139.773 474 142.002C456.172 151.316 438.257 160.44 420.253 169.41C416.964 171.049 413.677 172.691 410.39 174.332C402.095 178.475 393.797 182.613 385.5 186.752C376.503 191.239 367.506 195.727 358.512 200.219C355.268 201.839 352.023 203.459 348.778 205.076C335.086 211.897 321.448 218.796 307.94 225.975C300.141 230.104 292.263 234.083 284.388 238.065C282.228 239.161 280.071 240.264 277.917 241.373C274.758 242.998 271.589 244.601 268.418 246.201C267.459 246.7 266.499 247.199 265.511 247.713C264.162 248.385 264.162 248.385 262.786 249.071C262.004 249.469 261.222 249.868 260.416 250.278C255.47 251.76 251.262 249.883 246.831 247.66C245.357 246.928 245.357 246.928 243.854 246.181C242.804 245.649 241.754 245.117 240.672 244.568C239.569 244.016 238.466 243.464 237.329 242.896C234.991 241.723 232.654 240.547 230.319 239.367C226.808 237.594 223.292 235.833 219.773 234.074C207.012 227.673 194.4 221.079 182 214.002C185.249 211.278 188.405 209.107 192.184 207.189C193.181 206.678 194.179 206.167 195.207 205.64C196.273 205.099 197.339 204.559 198.438 204.002C206.492 199.868 214.507 195.684 222.438 191.314C231.783 186.176 241.195 181.17 250.625 176.189C265.781 168.184 280.899 160.11 296 152.002C300.583 149.543 305.166 147.084 309.75 144.627C310.891 144.015 312.032 143.404 313.207 142.773C321.564 138.297 329.935 133.849 338.311 129.409C348.297 124.114 358.269 118.798 368.188 113.377C369.068 112.898 369.949 112.418 370.857 111.924C374.602 109.882 378.332 107.822 382.02 105.678C382.618 105.336 383.217 104.995 383.833 104.643C385.344 103.779 386.844 102.897 388.344 102.014C392.867 100.291 396.262 101.684 400.6 103.551Z" fill="#FF6C2F"/>
<path d="M263.379 34.4486C264.626 35.0662 265.868 35.6926 267.107 36.326C267.791 36.6676 268.474 37.0091 269.179 37.3609C271.422 38.4843 273.66 39.6188 275.898 40.7535C277.459 41.5375 279.02 42.3208 280.581 43.1034C284.678 45.1595 288.77 47.2252 292.861 49.293C297.041 51.4035 301.226 53.5049 305.41 55.607C313.611 59.729 321.807 63.8611 330 67.9996C326.999 71.1061 324.346 73.08 320.477 75.0309C319.385 75.5874 318.294 76.144 317.17 76.7174C315.415 77.5996 315.415 77.5996 313.625 78.4996C311.148 79.7611 308.673 81.0287 306.199 82.2965C305.27 82.7713 305.27 82.7713 304.323 83.2558C298.976 85.9952 293.697 88.8472 288.438 91.7496C279.013 96.9383 269.515 101.979 260 107C250.635 111.942 241.28 116.899 232 122C222.841 127.032 213.615 131.931 204.375 136.812C190.383 144.204 176.42 151.647 162.478 159.133C158.795 161.109 155.111 163.082 151.426 165.054C150.16 165.732 148.894 166.409 147.628 167.087C145.251 168.359 142.874 169.631 140.497 170.903C139.414 171.483 138.331 172.062 137.215 172.66C136.174 173.213 135.134 173.766 134.062 174.336C131.998 175.457 129.953 176.613 127.926 177.8C126.962 178.36 125.998 178.919 125.004 179.496C124.158 180.002 123.312 180.507 122.44 181.029C119.38 182.246 118.159 181.855 115 181C112.967 180.114 110.961 179.162 108.979 178.167C108.398 177.878 107.816 177.588 107.217 177.29C105.301 176.333 103.389 175.368 101.477 174.402C100.13 173.727 98.7828 173.053 97.4356 172.379C94.6078 170.962 91.7819 169.542 88.9575 168.119C85.3825 166.317 81.8041 164.523 78.2243 162.731C74.7655 160.999 71.3085 159.263 67.8516 157.527C67.2126 157.207 66.5736 156.886 65.9153 156.556C56.532 151.847 47.2443 146.976 38 142C41.0884 138.681 44.7281 136.94 48.75 134.962C49.5392 134.568 50.3284 134.174 51.1416 133.768C53.7583 132.463 56.3791 131.167 59 129.871C60.8338 128.958 62.6673 128.044 64.5005 127.13C69.3437 124.717 74.1902 122.311 79.0377 119.907C86.7388 116.086 94.4351 112.255 102.131 108.423C104.792 107.1 107.454 105.779 110.117 104.459C118.177 100.457 126.199 96.3998 134.151 92.1861C152.042 82.7057 170.184 73.7014 188.276 64.6132C195.368 61.0507 202.454 57.4776 209.533 53.891C214.555 51.3481 219.582 48.8174 224.615 46.2956C227.606 44.7964 230.592 43.2903 233.575 41.774C236.883 40.0931 240.202 38.4324 243.523 36.7762C244.5 36.2741 245.477 35.7719 246.484 35.2545C253.174 31.9553 256.389 31.4511 263.379 34.4486Z" fill="#FF6C2F"/>
</svg>
