<svg width="512" height="512" viewBox="0 0 512 512" fill="none" xmlns="http://www.w3.org/2000/svg">
<path d="M113.8 20.4929C115.08 20.4867 116.36 20.4804 117.68 20.474C121.219 20.4574 124.757 20.4656 128.296 20.478C132.119 20.487 135.942 20.473 139.765 20.462C147.251 20.4443 154.737 20.4481 162.223 20.4597C168.314 20.4687 174.405 20.47 180.495 20.4656C181.363 20.465 182.231 20.4644 183.126 20.4637C184.889 20.4625 186.653 20.4612 188.416 20.4599C204.952 20.4484 221.488 20.4616 238.024 20.4831C252.182 20.5009 266.341 20.4978 280.499 20.4794C296.962 20.4579 313.424 20.4496 329.886 20.4618C331.646 20.4631 333.406 20.4644 335.166 20.4656C336.465 20.4665 336.465 20.4665 337.79 20.4675C343.862 20.4709 349.933 20.4651 356.005 20.4557C363.422 20.4444 370.839 20.4476 378.257 20.4688C382.034 20.4792 385.811 20.4836 389.589 20.4702C427.419 20.3474 427.419 20.3474 442.562 28.8759C443.545 29.4001 443.545 29.4001 444.548 29.9349C446.383 30.9289 448.194 31.9544 450 33.0009C450.861 33.4959 451.722 33.9909 452.609 34.5009C471.712 46.4231 483.637 65.4988 489.309 86.9149C490.497 92.2176 491.126 97.1955 491.134 102.636C491.137 103.28 491.139 103.925 491.141 104.589C491.148 106.745 491.148 108.901 491.147 111.057C491.15 112.62 491.154 114.182 491.158 115.745C491.168 120.037 491.172 124.33 491.175 128.622C491.179 133.252 491.188 137.882 491.197 142.512C491.217 153.689 491.227 164.867 491.236 176.044C491.24 181.308 491.245 186.572 491.251 191.836C491.268 209.332 491.282 226.829 491.289 244.326C491.291 248.864 491.293 253.402 491.295 257.94C491.296 259.068 491.296 260.196 491.297 261.358C491.305 279.643 491.33 297.928 491.363 316.213C491.396 334.985 491.414 353.757 491.417 372.529C491.419 383.069 491.428 393.609 491.453 404.149C491.475 413.122 491.483 422.095 491.474 431.068C491.469 435.646 491.471 440.224 491.49 444.803C491.508 448.995 491.507 453.187 491.491 457.379C491.489 458.894 491.493 460.41 491.505 461.925C491.571 470.901 491.386 477.919 485.254 485.024C484.696 485.47 484.138 485.916 483.562 486.376C483.007 486.837 482.451 487.299 481.879 487.774C476.194 491.485 470.606 491.822 464 491.001C456.215 488.728 450.724 483.309 445.012 477.837C442.249 475.197 439.354 472.771 436.375 470.376C432.818 467.512 429.375 464.577 426 461.501C421.709 457.59 417.26 453.924 412.746 450.274C409.124 447.276 405.653 444.128 402.191 440.946C401.468 440.304 400.745 439.662 400 439.001C399.328 438.4 398.657 437.799 397.965 437.181C396.101 435.82 396.101 435.82 394.035 436.063C391.347 437.302 389.585 438.963 387.438 441.001C383.882 444.3 380.277 447.457 376.5 450.501C372.905 453.409 369.417 456.386 366 459.501C361.701 463.419 357.243 467.093 352.719 470.747C350.067 472.945 347.531 475.228 345 477.563C336.176 485.597 329.256 491.453 317.055 491.263C308.687 490.546 303.761 485.209 297.859 479.649C295.132 477.123 292.332 474.769 289.438 472.438C285.862 469.552 282.396 466.596 279 463.501C274.704 459.586 270.25 455.915 265.73 452.263C263.019 450.016 260.411 447.689 257.812 445.313C253.729 441.59 249.5 438.206 245 435.001C244.109 435.819 244.109 435.819 243.199 436.653C238.724 440.725 234.205 444.696 229.5 448.501C225.905 451.409 222.417 454.386 219 457.501C214.701 461.419 210.244 465.091 205.723 468.747C203.059 470.952 200.492 473.233 197.938 475.563C180.077 491.751 180.077 491.751 167.711 491.345C160.843 490.474 156.557 487.094 152.227 481.88C149.362 477.491 148.75 473.71 148.749 468.514C148.744 467.194 148.739 465.875 148.734 464.515C148.739 463.052 148.744 461.589 148.748 460.126C148.746 458.57 148.743 457.015 148.739 455.459C148.731 451.182 148.736 446.905 148.742 442.628C148.746 438.016 148.739 433.403 148.734 428.791C148.725 420.795 148.723 412.799 148.726 404.803C148.729 393.223 148.717 381.644 148.701 370.064C148.675 351.253 148.655 332.442 148.642 313.631C148.641 312.505 148.64 311.379 148.639 310.219C148.628 294.258 148.623 278.297 148.62 262.337C148.62 261.214 148.619 260.091 148.619 258.935C148.619 257.814 148.619 256.693 148.619 255.538C148.615 236.812 148.596 218.086 148.564 199.361C148.545 187.819 148.539 176.277 148.55 164.736C148.556 156.815 148.548 148.895 148.529 140.974C148.518 136.411 148.514 131.848 148.527 127.285C148.539 123.096 148.533 118.908 148.512 114.719C148.508 113.215 148.51 111.711 148.52 110.206C148.604 96.6551 146.837 82.612 140.188 70.5634C139.844 69.9107 139.501 69.258 139.147 68.5856C135.006 60.8777 130.281 54.0914 124 48.0009C124 47.3409 124 46.6809 124 46.0009C123.426 45.7456 122.853 45.4904 122.262 45.2274C119.762 43.8721 117.937 42.2634 115.812 40.3759C108.983 34.7686 101.037 31.5068 93 28.0009C93 27.0109 93 26.0209 93 25.0009C99.9948 20.6986 105.697 20.4322 113.8 20.4929ZM240 114.001C236.117 119.394 234.728 124.33 235 131.001C236.204 136.665 238.815 141.798 243.672 145.157C248.787 148.218 252.64 149.123 258.514 149.141C259.636 149.147 260.757 149.153 261.913 149.159C263.139 149.16 264.365 149.161 265.628 149.162C267.57 149.169 267.57 149.169 269.551 149.177C273.101 149.19 276.651 149.197 280.201 149.201C282.421 149.204 284.64 149.208 286.86 149.213C293.812 149.226 300.764 149.236 307.716 149.24C315.729 149.244 323.742 149.262 331.755 149.291C337.957 149.312 344.158 149.322 350.36 149.324C354.06 149.325 357.76 149.331 361.46 149.349C365.592 149.368 369.723 149.364 373.854 149.357C375.681 149.371 375.681 149.371 377.545 149.385C386.225 149.343 393.569 148.432 400 142.001C403.883 136.608 405.272 131.672 405 125.001C403.796 119.337 401.185 114.203 396.328 110.845C391.213 107.784 387.36 106.878 381.486 106.86C379.804 106.852 379.804 106.852 378.087 106.843C376.861 106.842 375.635 106.841 374.372 106.84C373.077 106.835 371.783 106.83 370.449 106.825C366.899 106.812 363.349 106.805 359.799 106.801C357.579 106.798 355.36 106.794 353.14 106.789C346.188 106.775 339.236 106.766 332.284 106.762C324.271 106.757 316.258 106.74 308.245 106.711C302.043 106.689 295.842 106.679 289.64 106.678C285.94 106.677 282.24 106.671 278.54 106.653C274.408 106.633 270.277 106.638 266.146 106.644C264.928 106.635 263.71 106.626 262.455 106.616C253.775 106.659 246.431 107.57 240 114.001ZM239.887 199.786C236.26 204.044 235.257 207.984 234.562 213.438C235.475 220.866 238.332 226.095 244.121 230.809C248.283 233.448 251.889 234.252 256.786 234.268C257.943 234.277 259.099 234.285 260.291 234.294C262.181 234.293 262.181 234.293 264.109 234.291C265.456 234.297 266.803 234.304 268.151 234.312C271.804 234.329 275.457 234.334 279.11 234.335C281.394 234.337 283.679 234.341 285.964 234.346C293.942 234.365 301.92 234.373 309.898 234.371C317.323 234.37 324.747 234.391 332.172 234.423C338.556 234.449 344.94 234.46 351.324 234.459C355.133 234.458 358.941 234.464 362.75 234.485C366.335 234.504 369.919 234.504 373.503 234.49C375.436 234.487 377.369 234.503 379.303 234.521C387.27 234.463 392.775 233.573 399.023 228.29C403.722 222.505 405.656 217.605 405 210.001C403.816 203.607 400.436 199.981 395.742 195.665C388.426 191.225 379.663 191.713 371.371 191.742C369.518 191.737 369.518 191.737 367.628 191.731C364.264 191.724 360.901 191.726 357.537 191.732C354.002 191.737 350.467 191.733 346.931 191.729C340.997 191.726 335.062 191.731 329.128 191.74C322.286 191.751 315.444 191.747 308.602 191.736C302.707 191.727 296.812 191.726 290.917 191.731C287.405 191.734 283.893 191.735 280.382 191.728C276.464 191.721 272.546 191.731 268.629 191.742C267.479 191.738 266.328 191.734 265.143 191.73C254.863 191.784 247.472 192.466 239.887 199.786ZM238.188 287.212C234.719 292.438 234.232 297.85 235.359 303.942C237.173 310.203 241.493 314.659 247 318.001C254.079 320.334 261.252 320.286 268.629 320.26C270.482 320.265 270.482 320.265 272.372 320.27C275.736 320.278 279.099 320.276 282.463 320.27C285.998 320.264 289.533 320.269 293.069 320.272C299.003 320.276 304.938 320.271 310.872 320.262C317.714 320.251 324.556 320.254 331.398 320.265C337.293 320.274 343.188 320.276 349.083 320.27C352.595 320.267 356.107 320.267 359.618 320.273C363.536 320.28 367.454 320.271 371.371 320.26C372.521 320.264 373.672 320.268 374.857 320.272C385.137 320.218 392.528 319.536 400.113 312.216C403.74 307.958 404.743 304.018 405.438 298.563C404.525 291.135 401.668 285.907 395.879 281.192C391.717 278.553 388.111 277.75 383.214 277.733C382.057 277.725 380.901 277.716 379.709 277.708C377.819 277.709 377.819 277.709 375.891 277.71C374.544 277.704 373.197 277.698 371.849 277.69C368.196 277.672 364.543 277.668 360.89 277.666C358.605 277.665 356.321 277.661 354.036 277.655C346.058 277.637 338.08 277.629 330.102 277.63C322.677 277.631 315.253 277.61 307.828 277.579C301.444 277.553 295.06 277.542 288.676 277.543C284.867 277.544 281.059 277.538 277.25 277.517C273.665 277.497 270.081 277.497 266.497 277.512C264.564 277.515 262.631 277.498 260.697 277.481C251.04 277.551 244.332 279.365 238.188 287.212Z" fill="#93969A"/>
<path d="M91.8673 68.2682C99.5773 74.2134 104.996 83.5343 107 92.9986C107.43 99.0012 107.38 104.988 107.341 111.003C107.34 112.827 107.34 114.651 107.342 116.475C107.343 121.406 107.325 126.337 107.304 131.268C107.285 136.429 107.284 141.59 107.28 146.751C107.271 156.515 107.246 166.279 107.216 176.043C107.183 187.162 107.166 198.282 107.151 209.402C107.12 232.267 107.067 255.133 107 277.999C98.3068 278.092 89.6136 278.163 80.9199 278.206C76.8822 278.227 72.8448 278.255 68.8072 278.3C64.9039 278.344 61.0008 278.368 57.0973 278.378C55.615 278.385 54.1328 278.4 52.6507 278.422C34.1644 278.682 34.1644 278.682 27.0698 272.248C22.2028 267.017 20.753 262.202 20.726 255.069C20.7207 254.384 20.7155 253.699 20.7101 252.993C20.6951 250.703 20.6944 248.413 20.6937 246.124C20.6861 244.479 20.6777 242.834 20.6685 241.19C20.6465 236.724 20.6377 232.259 20.6327 227.794C20.629 225 20.6228 222.206 20.6157 219.412C20.5912 209.651 20.5781 199.891 20.5746 190.131C20.5709 181.055 20.5411 171.98 20.4992 162.905C20.4644 155.098 20.449 147.292 20.4483 139.485C20.4475 134.829 20.4389 130.174 20.4103 125.518C20.384 121.132 20.382 116.746 20.398 112.359C20.3998 110.759 20.3932 109.158 20.3772 107.557C20.2498 94.0234 22.7346 82.6671 31.836 72.151C48.688 55.3903 72.8965 55.3696 91.8673 68.2682Z" fill="white"/>
</svg>
