<svg width="512" height="512" viewBox="0 0 512 512" fill="none" xmlns="http://www.w3.org/2000/svg">
<g clip-path="url(#clip0_347_135)">
<path d="M312.756 -0.632064C313.903 -0.642796 313.903 -0.642796 315.074 -0.653746C317.593 -0.670605 320.11 -0.651251 322.629 -0.629866C324.383 -0.630695 326.138 -0.633155 327.892 -0.637175C331.565 -0.640031 335.237 -0.625351 338.91 -0.597884C343.617 -0.563776 348.323 -0.569829 353.03 -0.588546C356.651 -0.599115 360.272 -0.59018 363.893 -0.575162C365.628 -0.56998 367.364 -0.570461 369.099 -0.576707C371.525 -0.582159 373.948 -0.561787 376.373 -0.534407C377.09 -0.540933 377.806 -0.547459 378.544 -0.554183C381.956 -0.488713 383.702 -0.236528 386.414 1.90738C389.59 6.09577 389.162 9.9483 389.168 15.0225C389.171 15.9202 389.175 16.8179 389.178 17.7428C389.183 19.6443 389.185 21.5458 389.185 23.4473C389.187 26.3553 389.206 29.263 389.225 32.1709C389.228 34.0173 389.23 35.8636 389.23 37.71C389.238 38.5799 389.245 39.4498 389.252 40.3461C389.249 41.1601 389.246 41.9742 389.243 42.813C389.244 43.5264 389.246 44.2399 389.247 44.975C388.952 47.3925 388.295 48.9399 387 50.999C383.415 53.3891 381.857 53.2423 377.601 53.2261C376.957 53.2264 376.312 53.2267 375.649 53.227C373.522 53.2256 371.396 53.21 369.27 53.1944C367.794 53.1906 366.319 53.1878 364.843 53.1858C360.962 53.1781 357.08 53.1585 353.199 53.1364C348.541 53.1123 343.883 53.1031 339.225 53.0915C332.15 53.0721 325.075 53.0337 318 52.999C318 67.519 318 82.039 318 96.999C322.873 96.9676 322.873 96.9676 327.844 96.9356C338.628 96.869 349.413 96.825 360.198 96.7918C366.731 96.771 373.263 96.7428 379.796 96.6973C386.111 96.6535 392.426 96.6298 398.742 96.6195C401.14 96.6122 403.539 96.5979 405.937 96.5761C434.279 96.3296 458.616 102.924 479.32 123.198C498.095 142.821 504.326 168.243 504.275 194.76C504.279 196.175 504.284 197.591 504.29 199.007C504.303 202.804 504.304 206.601 504.302 210.398C504.3 213.577 504.305 216.756 504.31 219.935C504.321 227.428 504.322 234.921 504.316 242.414C504.31 250.139 504.322 257.865 504.343 265.59C504.361 272.242 504.367 278.894 504.364 285.545C504.362 289.511 504.364 293.476 504.378 297.442C504.391 301.159 504.389 304.876 504.376 308.594C504.372 310.61 504.384 312.627 504.395 314.643C504.388 315.838 504.381 317.034 504.374 318.266C504.374 319.827 504.374 319.827 504.375 321.42C503.934 324.456 503.36 325.129 501 326.999C497.957 327.294 495.118 327.403 492.073 327.38C490.687 327.387 490.687 327.387 489.273 327.394C486.163 327.406 483.054 327.397 479.945 327.387C477.721 327.391 475.498 327.397 473.274 327.403C467.224 327.417 461.175 327.412 455.126 327.402C448.806 327.394 442.486 327.401 436.166 327.406C424.872 327.412 413.578 327.403 402.285 327.387C392.038 327.374 381.791 327.376 371.544 327.39C359.652 327.406 347.76 327.412 335.868 327.403C329.57 327.399 323.272 327.398 316.974 327.408C311.055 327.417 305.137 327.411 299.218 327.393C297.04 327.389 294.863 327.39 292.685 327.397C289.723 327.405 286.762 327.395 283.8 327.38C282.929 327.387 282.057 327.393 281.159 327.4C278.767 327.377 278.767 327.377 275 326.999C272.677 323.515 272.748 322.165 272.742 318.051C272.735 316.808 272.728 315.565 272.721 314.284C272.723 312.904 272.726 311.523 272.729 310.143C272.724 308.691 272.719 307.238 272.713 305.786C272.701 302.654 272.696 299.523 272.695 296.392C272.693 291.426 272.675 286.46 272.654 281.495C272.605 269.149 272.574 256.803 272.553 244.457C272.536 234.884 272.513 225.311 272.47 215.737C272.448 210.817 272.44 205.897 272.442 200.976C272.441 197.889 272.426 194.801 272.409 191.714C272.404 190.3 272.403 188.886 272.408 187.472C272.492 161.49 264.13 136.706 247 116.999C246.557 116.413 246.113 115.826 245.656 115.222C241.772 110.189 236.798 106.539 231.761 102.73C227.094 99.1878 227.094 99.1878 226 96.999C250.42 96.999 274.84 96.999 300 96.999C299.942 90.4158 299.884 83.8326 299.824 77.0498C299.799 72.8799 299.775 68.71 299.756 64.5401C299.726 57.9208 299.691 51.3019 299.623 44.6829C299.568 39.3466 299.539 34.0107 299.526 28.6742C299.516 26.638 299.498 24.6018 299.471 22.5657C299.435 19.714 299.43 16.8639 299.432 14.012C299.414 13.1697 299.396 12.3274 299.378 11.4596C299.414 7.3531 299.689 5.45712 302.051 1.97518C305.687 -0.461524 308.519 -0.701406 312.756 -0.632064ZM383.688 245.437C382.951 246.301 382.951 246.301 382.199 247.183C380.13 250.317 379.874 253.49 379.823 257.182C379.81 257.996 379.797 258.811 379.784 259.651C379.777 260.524 379.769 261.397 379.762 262.296C379.754 263.204 379.746 264.111 379.737 265.046C379.723 266.966 379.713 268.886 379.705 270.806C379.693 272.761 379.673 274.716 379.643 276.671C379.6 279.504 379.584 282.337 379.574 285.171C379.557 286.036 379.539 286.901 379.521 287.792C379.545 294.54 380.875 299.473 385.403 304.583C392.184 310.056 402.027 308.697 410.254 308.628C412.042 308.629 413.83 308.631 415.617 308.635C419.354 308.638 423.09 308.624 426.826 308.596C431.603 308.562 436.379 308.568 441.156 308.587C444.845 308.597 448.532 308.588 452.221 308.573C453.982 308.568 455.743 308.569 457.504 308.575C459.968 308.58 462.432 308.56 464.897 308.533C465.616 308.539 466.336 308.546 467.078 308.552C472.548 308.45 475.595 307.024 480 303.999C483.339 299.693 485.111 296.248 485.161 290.806C485.171 289.965 485.18 289.124 485.19 288.257C485.194 287.351 485.199 286.445 485.203 285.511C485.209 284.575 485.215 283.639 485.22 282.675C485.23 280.693 485.236 278.712 485.24 276.731C485.25 273.709 485.281 270.687 485.312 267.665C485.319 265.739 485.324 263.812 485.328 261.886C485.347 260.535 485.347 260.535 485.366 259.158C485.344 253.136 484.52 248.731 480.281 244.136C479.4 243.418 479.4 243.418 478.5 242.687C477.618 241.95 477.618 241.95 476.719 241.198C472.911 238.542 468.943 238.845 464.503 238.838C463.741 238.833 462.98 238.828 462.196 238.823C459.676 238.808 457.156 238.801 454.637 238.796C452.884 238.79 451.132 238.784 449.379 238.779C445.703 238.768 442.027 238.762 438.351 238.759C433.647 238.753 428.943 238.729 424.238 238.701C420.617 238.682 416.996 238.677 413.375 238.675C411.641 238.672 409.907 238.664 408.173 238.651C405.744 238.634 403.315 238.636 400.885 238.643C400.173 238.633 399.461 238.624 398.727 238.615C392.424 238.667 387.719 240.557 383.688 245.437Z" fill="#93969A"/>
<path d="M221.754 115.347C240.314 130.266 251.999 150.462 256 173.999C256.091 176.104 256.131 178.212 256.134 180.319C256.14 182.231 256.14 182.231 256.147 184.182C256.146 185.587 256.146 186.991 256.145 188.396C256.148 189.881 256.152 191.367 256.155 192.852C256.164 196.878 256.167 200.905 256.167 204.932C256.168 208.292 256.172 211.652 256.175 215.012C256.184 222.935 256.186 230.858 256.185 238.781C256.185 246.962 256.195 255.144 256.211 263.325C256.224 270.347 256.229 277.369 256.229 284.39C256.229 288.586 256.231 292.781 256.242 296.976C256.252 300.917 256.252 304.857 256.245 308.798C256.243 310.247 256.246 311.695 256.252 313.144C256.26 315.116 256.254 317.088 256.247 319.06C256.248 320.165 256.248 321.27 256.249 322.409C256 324.999 256 324.999 254 326.999C252.121 327.226 252.121 327.226 249.867 327.194C248.659 327.185 248.659 327.185 247.426 327.175C246.584 327.158 245.742 327.141 244.875 327.124C244.026 327.115 243.176 327.106 242.301 327.097C240.2 327.073 238.1 327.037 236 326.999C236.243 325.688 236.243 325.688 236.491 324.351C236.955 321.293 237.133 318.459 237.147 315.372C237.154 314.276 237.161 313.179 237.169 312.05C237.172 310.863 237.174 309.675 237.177 308.451C237.187 306.557 237.187 306.557 237.197 304.625C237.218 300.453 237.228 296.281 237.238 292.108C237.242 290.667 237.246 289.225 237.251 287.783C237.27 281.009 237.284 274.234 237.292 267.46C237.302 259.662 237.328 251.865 237.369 244.067C237.399 238.025 237.414 231.982 237.417 225.939C237.419 222.337 237.428 218.736 237.453 215.134C237.481 211.11 237.477 207.088 237.47 203.065C237.483 201.885 237.496 200.705 237.509 199.49C237.455 190.983 235.688 184.479 231.312 177.187C224.92 171.139 217.98 168.898 209.312 168.841C208.177 168.831 207.043 168.821 205.874 168.811C204.639 168.805 203.404 168.8 202.132 168.794C200.824 168.784 199.516 168.774 198.169 168.764C194.591 168.737 191.013 168.716 187.435 168.696C183.692 168.674 179.95 168.647 176.208 168.62C169.125 168.57 162.042 168.525 154.959 168.482C146.893 168.432 138.828 168.377 130.763 168.322C114.175 168.208 97.5877 168.101 81 167.999C83.4386 146.891 96.0444 128.589 112 114.999C120.798 108.129 130.469 103.547 141 99.9991C141.987 99.6588 142.975 99.3185 143.992 98.9679C170.396 91.4038 200.35 98.8381 221.754 115.347Z" fill="white"/>
<path d="M275 344C277.398 343.612 277.398 343.612 280.375 343.602C281.976 343.596 281.976 343.596 283.609 343.59C284.728 343.601 285.847 343.613 287 343.625C288.119 343.613 289.238 343.602 290.391 343.59C291.458 343.594 292.525 343.598 293.625 343.602C294.607 343.605 295.59 343.608 296.602 343.612C297.393 343.74 298.185 343.868 299 344C301.241 347.362 301.25 348.454 301.252 352.383C301.257 353.5 301.262 354.618 301.268 355.769C301.262 357.609 301.262 357.609 301.255 359.486C301.261 361.468 301.266 363.45 301.272 365.432C301.277 367.563 301.276 369.695 301.274 371.826C301.272 376.267 301.286 380.709 301.303 385.15C301.35 397.78 301.374 410.41 301.381 423.039C301.385 430.014 301.403 436.989 301.436 443.964C301.456 448.38 301.459 452.795 301.448 457.21C301.444 460.602 301.467 463.993 301.486 467.385C301.478 468.609 301.469 469.834 301.461 471.095C301.472 472.216 301.483 473.336 301.494 474.49C301.496 475.463 301.497 476.436 301.498 477.439C302.15 480.765 303.319 481.979 306 484C309.414 483.94 311.875 483.813 314.691 481.778C316.5 479.321 316.379 477.647 316.385 474.61C316.395 473.491 316.405 472.372 316.415 471.22C316.41 469.992 316.405 468.763 316.401 467.498C316.408 466.205 316.415 464.912 316.422 463.58C316.437 460.768 316.443 457.956 316.441 455.143C316.439 450.698 316.459 446.253 316.481 441.807C316.522 433.175 316.541 424.542 316.558 415.909C316.58 404.92 316.613 393.931 316.665 382.942C316.685 378.521 316.694 374.1 316.696 369.68C316.698 367.593 316.704 365.506 316.713 363.42C316.723 360.873 316.726 358.327 316.721 355.78C316.728 354.661 316.735 353.543 316.742 352.39C316.743 351.416 316.745 350.442 316.747 349.438C317 347 317 347 319 344C322.117 343.612 322.117 343.612 326.09 343.602C326.79 343.599 327.491 343.596 328.212 343.593C329.694 343.591 331.176 343.596 332.658 343.609C334.926 343.625 337.191 343.609 339.459 343.59C340.898 343.592 342.338 343.596 343.777 343.602C345.09 343.605 346.402 343.608 347.754 343.612C351 344 351 344 352.679 345.14C354.588 347.828 354.381 349.863 354.388 353.142C354.398 354.428 354.407 355.714 354.418 357.038C354.413 358.466 354.409 359.894 354.404 361.322C354.41 362.823 354.417 364.325 354.425 365.826C354.443 369.907 354.442 373.987 354.436 378.068C354.433 381.472 354.439 384.877 354.445 388.282C354.459 396.313 354.457 404.344 354.446 412.375C354.435 420.665 354.449 428.954 354.475 437.243C354.498 444.357 354.504 451.47 354.498 458.584C354.495 462.834 354.497 467.084 354.515 471.334C354.53 475.33 354.526 479.326 354.507 483.323C354.504 484.79 354.507 486.258 354.517 487.725C354.53 489.727 354.516 491.729 354.501 493.731C354.501 495.412 354.501 495.412 354.501 497.127C353.883 500.672 352.842 501.853 350 504C346.775 504.501 346.775 504.501 342.908 504.502C342.202 504.507 341.496 504.513 340.768 504.518C338.439 504.531 336.111 504.514 333.781 504.496C332.16 504.496 330.538 504.498 328.917 504.501C325.521 504.502 322.125 504.489 318.729 504.467C314.378 504.438 310.027 504.441 305.675 504.454C302.328 504.461 298.981 504.453 295.633 504.44C294.029 504.436 292.424 504.436 290.82 504.439C288.577 504.442 286.335 504.426 284.092 504.404C282.816 504.399 281.54 504.393 280.225 504.388C276.659 503.959 275.487 503.532 273 501C272.502 498.234 272.502 498.234 272.506 494.813C272.497 493.517 272.489 492.222 272.48 490.887C272.491 489.448 272.502 488.009 272.514 486.57C272.512 485.058 272.508 483.545 272.503 482.032C272.493 477.92 272.508 473.809 272.529 469.698C272.546 465.399 272.543 461.1 272.542 456.801C272.544 449.582 272.561 442.362 272.588 435.143C272.62 426.791 272.63 418.439 272.629 410.087C272.628 402.059 272.638 394.032 272.654 386.004C272.662 382.584 272.665 379.165 272.666 375.746C272.668 371.72 272.68 367.695 272.701 363.67C272.706 362.191 272.709 360.712 272.708 359.233C272.707 357.218 272.719 355.202 272.733 353.187C272.738 351.494 272.738 351.494 272.743 349.766C273 347 273 347 275 344Z" fill="#93969A"/>
<path d="M17 185C81.35 185 145.7 185 212 185C212 185.66 212 186.32 212 187C210.513 188.354 208.956 189.631 207.375 190.875C202.887 194.466 198.477 198.121 194.125 201.875C189.071 206.226 183.996 210.55 178.899 214.851C174.872 218.253 170.871 221.686 166.875 225.125C162.814 228.618 158.725 232.064 154.562 235.438C150.128 239.036 145.804 242.747 141.5 246.5C135.43 251.79 129.303 256.988 123 262C121.975 262.843 121.975 262.843 120.93 263.703C118.413 265.394 116.187 265.667 113.184 265.523C108.598 264.424 105.445 261.062 102 258C100.927 257.081 99.8509 256.164 98.7734 255.25C96.3784 253.214 93.9923 251.168 91.6133 249.113C88.2386 246.201 84.8431 243.314 81.4375 240.438C80.9054 239.988 80.3734 239.538 79.8252 239.075C78.7532 238.17 77.6811 237.264 76.6089 236.359C73.9043 234.075 71.2023 231.787 68.5 229.5C67.4167 228.583 66.3333 227.667 65.25 226.75C45.75 210.25 45.75 210.25 44.1233 208.874C43.0457 207.962 41.968 207.05 40.8904 206.138C38.0943 203.773 35.2987 201.406 32.5039 199.039C31.9277 198.551 31.3515 198.063 30.7578 197.561C29.6678 196.638 28.578 195.714 27.4883 194.791C24.4044 192.179 24.4044 192.179 21.2886 189.604C19.8424 188.423 18.419 187.214 17 186C17 185.67 17 185.34 17 185ZM81.6575 206.312C79.6975 208.979 79.6975 208.979 79.9375 212.562C81.0996 216.322 81.9565 217.59 85 220C87.7397 220.603 87.7397 220.603 90.7908 220.518C92.5379 220.536 92.5379 220.536 94.3204 220.556C96.2018 220.544 96.2018 220.544 98.1211 220.531C100.059 220.537 100.059 220.537 102.036 220.543C104.769 220.549 107.502 220.54 110.235 220.521C113.73 220.499 117.224 220.512 120.719 220.536C124.061 220.554 127.403 220.541 130.746 220.531C131.998 220.539 133.25 220.547 134.541 220.556C135.709 220.543 136.877 220.531 138.08 220.518C139.617 220.513 139.617 220.513 141.186 220.508C144.742 219.866 146.426 218.489 149 216C150.162 213.606 150.162 213.606 150 211C148.614 208.163 147.23 206.23 145 204C142.407 203.672 142.407 203.672 139.344 203.694C138.16 203.678 136.975 203.662 135.754 203.645C134.467 203.64 133.181 203.634 131.855 203.629C130.538 203.62 129.221 203.611 127.864 203.602C125.073 203.585 122.281 203.577 119.489 203.574C115.918 203.569 112.347 203.531 108.776 203.486C105.365 203.449 101.954 203.447 98.543 203.441C97.2626 203.422 95.9823 203.402 94.6631 203.382C87.6206 203.154 87.6206 203.154 81.6575 206.312Z" fill="white"/>
<path d="M89 270C92.5866 270.452 94.5469 272.071 97.25 274.375C103.385 279.257 108.861 281.607 116.777 281.281C123.339 280.451 128.011 277.566 133.043 273.402C135.255 271.817 137.449 270.921 140 270C140.86 270.739 141.72 271.477 142.605 272.238C150.175 278.737 157.769 285.205 165.391 291.641C168.096 293.925 170.798 296.213 173.5 298.5C174.583 299.417 175.667 300.333 176.75 301.25C178.917 303.083 181.083 304.917 183.25 306.75C183.787 307.205 184.325 307.659 184.878 308.127C185.951 309.036 187.024 309.944 188.096 310.853C190.959 313.278 193.828 315.695 196.707 318.102C197.31 318.608 197.914 319.113 198.535 319.635C199.701 320.612 200.869 321.588 202.039 322.561C203.378 323.685 204.692 324.84 206 326C206 326.33 206 326.66 206 327C145.94 327 85.88 327 24 327C24 326.34 24 325.68 24 325C25.4874 323.646 27.0443 322.369 28.625 321.125C33.1132 317.534 37.5226 313.879 41.875 310.125C48.0195 304.837 54.1969 299.589 60.3911 294.359C63.6291 291.624 66.8637 288.885 70.0989 286.147C72.9554 283.729 75.8129 281.313 78.6719 278.898C79.2706 278.392 79.8694 277.887 80.4863 277.365C81.641 276.39 82.7959 275.414 83.9512 274.439C86.5386 272.289 86.5386 272.289 89 270Z" fill="white"/>
<path d="M8 201C12.5074 202.803 14.2616 203.873 17.625 207.062C21.063 210.247 24.539 213.308 28.1875 216.25C32.7094 219.908 37.1178 223.677 41.5 227.5C46.6204 231.965 51.806 236.322 57.0898 240.594C61.4837 244.227 65.7691 247.984 70.0508 251.748C70.6644 252.285 71.278 252.822 71.9102 253.375C72.4581 253.857 73.006 254.339 73.5706 254.836C75.0142 256.098 75.0142 256.098 77 257C76.1555 261.683 73.2937 263.675 69.75 266.562C69.121 267.088 68.492 267.613 67.844 268.154C66.5378 269.244 65.2286 270.331 63.9165 271.414C61.6043 273.327 59.3154 275.267 57.0286 277.21C55.4252 278.573 53.8186 279.932 52.2109 281.289C51.6808 281.737 51.1507 282.184 50.6045 282.646C49.5348 283.549 48.4652 284.451 47.3955 285.354C45.7842 286.715 44.1732 288.076 42.5625 289.438C42.0302 289.887 41.4979 290.337 40.9495 290.801C37.5069 293.714 34.0811 296.645 30.6631 299.587C25.741 303.821 20.8051 308.037 15.8125 312.188C14.9527 312.903 14.0929 313.618 13.207 314.355C11 316 11 316 8 317C8 278.72 8 240.44 8 201Z" fill="#93969A"/>
<path d="M221 201C221 239.28 221 277.56 221 317C214.256 312.504 214.256 312.504 211.52 310.082C210.919 309.555 210.318 309.028 209.699 308.484C209.077 307.933 208.454 307.381 207.812 306.812C203.43 302.969 199.035 299.165 194.5 295.5C190.083 291.925 185.782 288.234 181.5 284.5C175.429 279.21 169.262 274.063 163 269C160.935 267.315 158.874 265.626 156.812 263.938C155.891 263.183 154.969 262.429 154.02 261.652C153.02 260.834 153.02 260.834 152 260C153.584 255.643 156.979 253.177 160.438 250.312C161.069 249.781 161.7 249.249 162.35 248.701C166.889 244.887 171.486 241.146 176.09 237.41C179.609 234.495 183.056 231.503 186.5 228.5C191.643 224.016 196.846 219.63 202.156 215.344C204.373 213.517 206.552 211.666 208.719 209.781C209.675 208.951 209.675 208.951 210.65 208.104C211.906 207.01 213.158 205.911 214.406 204.808C218.78 201 218.78 201 221 201Z" fill="#93969A"/>
<path d="M398 255.999C406.979 255.976 415.958 255.958 424.938 255.947C429.107 255.942 433.276 255.935 437.445 255.924C441.465 255.913 445.485 255.907 449.505 255.904C451.042 255.902 452.579 255.899 454.116 255.893C456.261 255.886 458.407 255.885 460.552 255.886C461.776 255.883 463 255.881 464.26 255.879C467 255.999 467 255.999 468 256.999C468.126 259.424 468.189 261.819 468.203 264.245C468.209 264.972 468.215 265.698 468.22 266.446C468.23 267.985 468.236 269.525 468.24 271.064C468.25 273.424 468.281 275.782 468.312 278.142C468.319 279.635 468.324 281.127 468.328 282.62C468.34 283.329 468.353 284.037 468.366 284.767C468.356 286.759 468.356 286.759 468 289.999C464.452 292.364 462.946 292.252 458.74 292.258C456.803 292.267 456.803 292.267 454.827 292.277C453.416 292.273 452.005 292.269 450.594 292.265C449.148 292.266 447.702 292.268 446.256 292.271C443.227 292.274 440.197 292.269 437.167 292.26C433.283 292.249 429.4 292.255 425.516 292.267C422.53 292.274 419.545 292.272 416.56 292.267C415.127 292.265 413.695 292.267 412.263 292.272C410.262 292.277 408.261 292.268 406.26 292.258C405.121 292.256 403.982 292.255 402.808 292.253C400 291.999 400 291.999 397 289.999C396.644 286.866 396.644 286.866 396.672 282.874C396.674 282.171 396.676 281.469 396.678 280.745C396.684 279.259 396.698 277.772 396.719 276.286C396.75 274.008 396.76 271.731 396.766 269.452C396.836 258.326 396.836 258.326 398 255.999Z" fill="white"/>
</g>
<defs>
<clipPath id="clip0_347_135">
<rect width="512" height="512" fill="white"/>
</clipPath>
</defs>
</svg>
