<svg width="512" height="512" viewBox="0 0 512 512" fill="none" xmlns="http://www.w3.org/2000/svg">
<g clip-path="url(#clip0_338_65)">
<path d="M287 4.00132C288.06 4.36338 288.06 4.36338 289.141 4.73276C312.376 12.908 334.107 30.6136 344.978 53.0169C350.974 66.2331 355.192 79.2828 355.062 93.9388C355.058 94.6227 355.053 95.3065 355.049 96.0111C355.037 97.6745 355.019 99.3379 355 101.001C355.644 100.995 356.288 100.988 356.952 100.981C363.684 100.915 370.417 100.869 377.15 100.837C379.659 100.821 382.168 100.801 384.677 100.775C388.294 100.738 391.91 100.722 395.527 100.708C397.197 100.685 397.197 100.685 398.9 100.661C411.011 100.659 418.898 104.026 427.535 112.509C436.171 122.174 437.12 134.182 438.076 146.569C438.167 147.693 438.259 148.817 438.353 149.976C438.657 153.72 438.952 157.466 439.247 161.212C439.462 163.907 439.68 166.602 439.898 169.297C440.425 175.848 440.947 182.4 441.465 188.952C441.887 194.291 442.312 199.629 442.738 204.966C443.949 220.149 445.155 235.332 446.355 250.515C446.451 251.741 446.451 251.741 446.55 252.992C446.615 253.81 446.68 254.629 446.746 255.472C447.791 268.69 448.847 281.907 449.908 295.124C451.001 308.743 452.086 322.362 453.163 335.982C453.766 343.609 454.372 351.236 454.987 358.862C455.511 365.365 456.028 371.869 456.535 378.374C456.793 381.679 457.055 384.984 457.325 388.288C458.41 401.601 459.182 414.849 459.234 428.211C459.244 429.934 459.244 429.934 459.255 431.692C459.201 443.973 456.697 455.049 451 466.001C450.406 467.27 450.406 467.27 449.801 468.564C445.813 476.609 440.264 482.713 434 489.001C433.229 489.807 432.458 490.613 431.664 491.443C417.198 505.638 397.27 512.152 377.364 512.148C376.292 512.152 375.22 512.156 374.116 512.16C370.523 512.171 366.931 512.175 363.338 512.178C360.763 512.185 358.187 512.191 355.611 512.198C347.88 512.218 340.149 512.228 332.419 512.237C328.772 512.241 325.125 512.247 321.478 512.252C309.343 512.269 297.207 512.283 285.072 512.291C281.926 512.293 278.78 512.295 275.633 512.297C274.851 512.297 274.069 512.297 273.264 512.298C260.614 512.306 247.963 512.332 235.313 512.364C222.304 512.397 209.295 512.415 196.286 512.418C188.991 512.42 181.695 512.429 174.4 512.455C167.53 512.479 160.66 512.482 153.79 512.472C151.278 512.472 148.766 512.478 146.254 512.492C129.835 512.577 114.334 512.214 99.5625 504.126C98.897 503.775 98.2314 503.423 97.5457 503.061C95.6838 502.063 93.8402 501.038 92 500.001C91.1595 499.541 90.3191 499.081 89.4531 498.607C78.3725 491.914 69.128 481.261 63 470.001C62.3136 468.789 62.3136 468.789 61.6133 467.552C48.0533 442.265 52.7433 411.961 54.9719 384.493C55.1859 381.77 55.3967 379.046 55.6076 376.323C56.1167 369.774 56.6375 363.226 57.1627 356.678C57.5895 351.354 58.0119 346.03 58.4312 340.705C58.4914 339.941 58.5516 339.177 58.6136 338.389C58.7359 336.836 58.8583 335.282 58.9806 333.729C60.1205 319.256 61.2736 304.784 62.4316 290.312C63.4226 277.923 64.4025 265.533 65.3743 253.143C66.5079 238.689 67.6481 224.235 68.799 209.783C68.9218 208.241 69.0446 206.698 69.1674 205.156C69.2278 204.398 69.2882 203.639 69.3504 202.858C69.7734 197.538 70.1919 192.219 70.6085 186.899C71.1161 180.419 71.631 173.94 72.1552 167.462C72.422 164.163 72.6844 160.865 72.9401 157.565C73.2187 153.979 73.5098 150.395 73.804 146.81C73.8809 145.782 73.9578 144.755 74.037 143.696C75.1288 130.809 77.5841 118.781 87.3125 109.689C94.0229 104.074 100.514 100.867 109.319 100.888C110.38 100.888 111.441 100.888 112.534 100.888C114.242 100.896 114.242 100.896 115.984 100.904C117.155 100.905 118.326 100.906 119.532 100.908C123.271 100.914 127.011 100.926 130.75 100.939C133.285 100.944 135.82 100.948 138.355 100.952C144.57 100.964 150.785 100.98 157 101.001C156.979 99.5098 156.979 99.5098 156.958 97.9881C156.817 83.6109 159.195 71.2858 165 58.0013C165.357 57.1634 165.714 56.3255 166.082 55.4623C177.086 31.588 197.865 14.525 222 5.00132C242.652 -1.69608 266.234 -3.23195 287 4.00132ZM204.313 53.7513C192.075 67.8918 188 82.4817 188 101.001C232.88 101.001 277.76 101.001 324 101.001C324 80.0737 318.269 64.5813 303.691 49.6341C288.239 34.948 271.145 30.5344 250.465 30.7943C232.156 31.3004 216.695 40.7229 204.313 53.7513ZM158 101.001C157.91 110.285 157.836 119.569 157.793 128.853C157.772 133.165 157.744 137.476 157.698 141.787C157.655 145.95 157.631 150.112 157.621 154.275C157.613 155.861 157.599 157.447 157.577 159.033C157.548 161.259 157.544 163.484 157.546 165.711C157.537 166.977 157.528 168.242 157.519 169.546C158.209 174.501 160.415 177.602 164.125 180.876C168.444 182.566 172.427 182.661 177 182.001C181.468 179.808 183.909 177.514 186 173.001C186.999 169.054 187.121 165.347 187.114 161.283C187.114 160.629 187.114 159.975 187.114 159.301C187.113 157.153 187.106 155.005 187.098 152.857C187.096 151.362 187.094 149.867 187.093 148.372C187.09 144.448 187.08 140.523 187.069 136.599C187.057 131.885 187.052 127.171 187.046 122.457C187.037 115.305 187.017 108.153 187 101.001C177.43 101.001 167.86 101.001 158 101.001ZM325 101.001C324.942 112.739 324.942 112.739 324.902 124.476C324.89 129.267 324.876 134.057 324.849 138.848C324.827 142.712 324.815 146.577 324.81 150.441C324.807 151.912 324.799 153.382 324.789 154.853C324.774 156.921 324.772 158.988 324.773 161.056C324.769 162.231 324.764 163.406 324.759 164.616C325.133 169.867 325.96 173.802 329.438 177.814C334.051 181.752 336.59 182.447 342.492 182.318C346.192 181.851 348.258 180.476 351 178.001C354.062 173.898 354.367 170.892 354.341 165.824C354.341 165.121 354.341 164.418 354.342 163.694C354.34 161.383 354.317 159.074 354.293 156.763C354.287 155.156 354.283 153.549 354.28 151.942C354.269 147.721 354.239 143.502 354.206 139.282C354.175 134.971 354.162 130.661 354.146 126.351C354.114 117.901 354.062 109.451 354 101.001C344.43 101.001 334.86 101.001 325 101.001ZM300.456 255.944C299.241 257.144 298.04 258.359 296.85 259.584C296.185 260.248 295.521 260.911 294.836 261.595C292.66 263.775 290.502 265.972 288.344 268.169C286.832 269.691 285.319 271.211 283.804 272.73C279.835 276.719 275.88 280.723 271.928 284.73C267.889 288.821 263.834 292.898 259.781 296.976C251.84 304.971 243.915 312.981 236 321.001C234.886 320.054 233.772 319.105 232.659 318.156C232.039 317.627 231.419 317.099 230.78 316.555C228.449 314.521 226.279 312.358 224.117 310.146C223.26 309.276 222.403 308.407 221.52 307.511C219.747 305.703 217.976 303.893 216.207 302.081C215.352 301.216 214.498 300.35 213.617 299.458C212.85 298.674 212.083 297.89 211.292 297.083C206.442 292.679 202.869 291.439 196.438 291.65C191.775 292.322 189.148 294.7 186.125 298.126C184.468 302.361 184.146 306.528 185 311.001C188.257 316.652 192.681 320.989 197.273 325.576C198.075 326.381 198.876 327.187 199.702 328.017C201.392 329.713 203.085 331.406 204.78 333.097C207.368 335.682 209.942 338.279 212.516 340.878C214.163 342.528 215.812 344.177 217.461 345.826C218.61 346.988 218.61 346.988 219.782 348.174C226.041 354.453 226.041 354.453 234.273 357.286C243.976 356.259 250.152 349.148 256.745 342.515C257.473 341.79 258.201 341.066 258.951 340.32C261.333 337.946 263.708 335.566 266.082 333.185C267.745 331.524 269.408 329.863 271.071 328.202C274.544 324.731 278.015 321.257 281.482 317.78C285.925 313.325 290.377 308.88 294.832 304.437C298.263 301.014 301.689 297.586 305.113 294.156C306.753 292.514 308.395 290.875 310.038 289.236C312.331 286.948 314.617 284.654 316.902 282.358C317.58 281.685 318.258 281.011 318.956 280.316C325.458 273.793 325.458 273.793 327.438 265.064C327.282 260.325 326.241 257.593 323 254.001C315.366 248.176 307.282 249.721 300.456 255.944Z" fill="#93969A"/>
</g>
<defs>
<clipPath id="clip0_338_65">
<rect width="512" height="512" fill="white"/>
</clipPath>
</defs>
</svg>
