<svg width="512" height="512" viewBox="0 0 512 512" fill="none" xmlns="http://www.w3.org/2000/svg">
<g clip-path="url(#clip0_334_21)">
<path d="M376 70C376 122.8 376 175.6 376 230C359.232 235.61 342.464 241.22 325.188 247C319.89 248.775 314.592 250.55 309.134 252.379C302.672 254.537 302.672 254.537 299.649 255.546C297.534 256.252 295.419 256.961 293.305 257.671C290.106 258.744 286.905 259.812 283.704 260.879C282.759 261.197 281.814 261.516 280.841 261.844C279.55 262.272 279.55 262.272 278.233 262.709C277.484 262.96 276.734 263.211 275.962 263.469C274 264 274 264 271 264C271 211.53 271 159.06 271 105C295.301 96.7021 319.597 88.4114 343.961 80.3039C346.775 79.367 349.587 78.4279 352.4 77.4888C355.137 76.575 357.876 75.6626 360.614 74.7507C362.521 74.1155 364.427 73.4791 366.333 72.8427C367.462 72.4674 368.591 72.0922 369.754 71.7056C371.244 71.2093 371.244 71.2093 372.764 70.703C375 70 375 70 376 70Z" fill="white"/>
<path d="M136 70C159.368 77.5787 182.718 85.1848 206.019 92.9641C208.991 93.9556 211.964 94.9449 214.937 95.9343C217.827 96.8966 220.717 97.8602 223.607 98.8244C224.97 99.2789 226.333 99.7331 227.697 100.187C229.565 100.809 231.433 101.433 233.302 102.057C234.358 102.41 235.414 102.762 236.503 103.125C239 104 239 104 241 105C241 157.47 241 209.94 241 264C230.875 261.75 230.875 261.75 227.273 260.545C226.045 260.137 226.045 260.137 224.793 259.722C223.926 259.43 223.059 259.137 222.166 258.835C221.213 258.518 220.26 258.201 219.279 257.874C216.225 256.855 213.173 255.83 210.121 254.805C208.224 254.171 206.327 253.538 204.43 252.905C197.431 250.566 190.434 248.22 183.438 245.875C167.783 240.636 152.129 235.398 136 230C136 177.2 136 124.4 136 70Z" fill="white"/>
<path d="M271 321C278.015 322.913 284.892 324.867 291.77 327.17C293.131 327.622 293.131 327.622 294.519 328.083C297.474 329.065 300.429 330.052 303.383 331.039C305.45 331.728 307.517 332.416 309.584 333.104C313.893 334.539 318.201 335.977 322.509 337.416C328.041 339.264 333.576 341.107 339.111 342.948C343.368 344.364 347.624 345.784 351.881 347.204C353.922 347.885 355.965 348.566 358.007 349.245C360.847 350.19 363.686 351.139 366.524 352.088C367.373 352.37 368.221 352.652 369.096 352.942C374.886 354.886 374.886 354.886 376 356C376.097 358.012 376.122 360.028 376.12 362.043C376.122 364.014 376.122 364.014 376.124 366.024C376.121 367.494 376.117 368.964 376.114 370.434C376.113 371.971 376.113 373.508 376.114 375.045C376.114 379.231 376.108 383.417 376.101 387.602C376.095 391.972 376.095 396.341 376.093 400.711C376.09 408.991 376.082 417.271 376.072 425.552C376.061 434.976 376.055 444.4 376.05 453.825C376.04 473.216 376.022 492.608 376 512C369.551 510.668 363.401 508.94 357.166 506.835C356.213 506.518 355.26 506.201 354.279 505.874C351.225 504.855 348.173 503.83 345.121 502.805C343.224 502.171 341.327 501.538 339.43 500.905C332.431 498.566 325.434 496.22 318.438 493.875C302.783 488.636 287.129 483.398 271 478C271 426.19 271 374.38 271 321Z" fill="#93969A"/>
<path d="M0.999969 321C8.00091 322.849 14.9045 324.871 21.77 327.17C23.1306 327.622 23.1306 327.622 24.5187 328.083C27.4744 329.065 30.4286 330.052 33.3828 331.039C35.4497 331.728 37.5167 332.416 39.5837 333.104C43.8927 334.539 48.201 335.977 52.5088 337.416C58.0414 339.264 63.5758 341.107 69.1107 342.948C73.368 344.364 77.6244 345.784 81.8805 347.204C83.9224 347.885 85.9647 348.566 88.0072 349.245C90.8471 350.19 93.6857 351.139 96.5239 352.088C97.3726 352.37 98.2214 352.652 99.0958 352.942C104.886 354.886 104.886 354.886 106 356C106.097 358.012 106.122 360.028 106.12 362.043C106.122 364.014 106.122 364.014 106.124 366.024C106.121 367.494 106.117 368.964 106.113 370.434C106.113 371.971 106.113 373.508 106.114 375.045C106.114 379.231 106.108 383.417 106.101 387.602C106.095 391.972 106.095 396.341 106.093 400.711C106.09 408.991 106.082 417.271 106.072 425.552C106.061 434.976 106.055 444.4 106.05 453.825C106.04 473.216 106.022 492.608 106 512C99.8864 510.751 94.0033 509.15 88.0871 507.174C86.8268 506.759 86.8268 506.759 85.541 506.336C82.7926 505.429 80.0466 504.516 77.3008 503.602C75.3775 502.964 73.4541 502.326 71.5308 501.688C67.5128 500.355 63.4962 499.018 59.4802 497.679C54.3421 495.966 49.1999 494.266 44.0566 492.568C40.0885 491.257 36.1232 489.937 32.1586 488.615C30.2638 487.984 28.3681 487.357 26.4713 486.732C23.8195 485.858 21.1717 484.973 18.5246 484.084C17.7468 483.831 16.969 483.577 16.1676 483.316C10.7648 481.484 5.84536 479.512 2.3566 474.763C0.748595 471.488 0.63013 469.306 0.639206 465.666C0.635082 464.389 0.630958 463.111 0.626709 461.795C0.637325 460.387 0.648229 458.979 0.659393 457.571C0.66024 456.083 0.659764 454.594 0.658066 453.106C0.657206 449.071 0.674836 445.036 0.695788 441.002C0.71455 436.783 0.716305 432.564 0.719864 428.346C0.729186 420.359 0.753801 412.373 0.783912 404.387C0.817452 395.294 0.833941 386.201 0.848999 377.108C0.880351 358.405 0.933114 339.703 0.999969 321Z" fill="#93969A"/>
<path d="M241 321C241 372.81 241 424.62 241 478C224.232 483.61 207.464 489.22 190.188 495C184.89 496.775 179.592 498.55 174.134 500.379C167.672 502.537 167.672 502.537 164.649 503.546C162.534 504.252 160.419 504.961 158.305 505.671C155.106 506.744 151.905 507.812 148.704 508.879C147.759 509.197 146.814 509.516 145.841 509.844C144.55 510.272 144.55 510.272 143.233 510.709C142.484 510.96 141.734 511.211 140.962 511.469C139 512 139 512 136 512C136 460.52 136 409.04 136 356C160.456 347.649 184.909 339.319 209.438 331.188C213.422 329.866 217.406 328.545 221.389 327.221C223.818 326.414 226.247 325.608 228.677 324.804C229.746 324.448 230.815 324.093 231.916 323.727C232.854 323.416 233.791 323.106 234.758 322.785C239.855 321 239.855 321 241 321Z" fill="#93969A"/>
<path d="M511 321C511.093 340.584 511.164 360.169 511.207 379.753C511.228 388.846 511.256 397.94 511.302 407.033C511.342 414.959 511.367 422.885 511.376 430.811C511.382 435.008 511.394 439.204 511.423 443.401C511.45 447.352 511.458 451.303 511.452 455.255C511.454 456.704 511.461 458.152 511.477 459.601C511.497 461.583 511.49 463.564 511.481 465.546C511.485 466.654 511.488 467.762 511.492 468.903C510.781 473.376 508.844 476.634 505.18 479.348C504.566 479.621 503.953 479.894 503.32 480.174C502.621 480.487 501.922 480.8 501.202 481.122C497.466 482.612 493.699 483.95 489.878 485.208C489.004 485.501 488.129 485.794 487.229 486.096C484.367 487.055 481.502 488.004 478.637 488.953C476.637 489.62 474.638 490.287 472.639 490.954C468.464 492.346 464.287 493.734 460.109 495.119C454.749 496.896 449.392 498.683 444.036 500.473C439.915 501.849 435.792 503.22 431.67 504.59C429.693 505.248 427.716 505.906 425.74 506.566C422.987 507.485 420.231 508.398 417.475 509.31C416.657 509.584 415.839 509.858 414.996 510.141C411.89 511.162 409.292 512 406 512C406 460.52 406 409.04 406 356C430.456 347.649 454.909 339.319 479.438 331.188C483.422 329.866 487.406 328.545 491.389 327.221C493.818 326.414 496.247 325.608 498.677 324.804C499.746 324.448 500.815 324.093 501.916 323.727C502.854 323.416 503.791 323.106 504.758 322.785C509.855 321 509.855 321 511 321Z" fill="#93969A"/>
<path d="M273.827 3.48976C274.941 3.8604 276.054 4.23103 277.202 4.6129C280.844 5.82959 284.476 7.07149 288.109 8.31398C290.648 9.16753 293.186 10.0196 295.726 10.8699C301.701 12.8742 307.671 14.8967 313.638 16.926C320.438 19.2378 327.246 21.5288 334.054 23.8183C348.044 28.5232 362.025 33.2537 376 38.0015C376 38.6615 376 39.3215 376 40.0015C366.038 43.4428 356.063 46.8432 346.081 50.2249C338.399 52.8327 330.73 55.4777 323.065 58.1372C316.083 60.558 309.093 62.9542 302.098 65.3372C297.671 66.8464 293.249 68.3665 288.834 69.9121C284.599 71.3945 280.354 72.8474 276.102 74.2799C274.517 74.8193 272.936 75.3691 271.359 75.93C269.168 76.7078 266.966 77.4464 264.758 78.1775C263.521 78.6038 262.283 79.0301 261.008 79.4694C255.736 80.628 250.98 78.6637 246 77.0015C244.661 76.5777 244.661 76.5777 243.296 76.1454C240.478 75.2449 237.673 74.3123 234.869 73.3721C233.817 73.0221 232.765 72.6722 231.682 72.3116C228.244 71.1669 224.807 70.0179 221.371 68.8687C218.97 68.068 216.569 67.2676 214.168 66.4673C209.158 64.7965 204.147 63.1237 199.137 61.4492C193.346 59.5134 187.553 57.5808 181.76 55.65C176.172 53.7875 170.584 51.9232 164.997 50.0581C162.624 49.2659 160.25 48.474 157.876 47.6826C154.573 46.5806 151.269 45.4766 147.967 44.3721C146.981 44.0438 145.996 43.7154 144.98 43.3772C144.085 43.0772 143.189 42.7773 142.267 42.4682C141.486 42.2076 140.706 41.9469 139.902 41.6784C138 41.0015 138 41.0015 136 40.0015C136 39.3415 136 38.6815 136 38.0015C150.649 33.0248 165.305 28.069 179.97 23.1377C186.779 20.8472 193.587 18.5501 200.389 16.2368C206.322 14.2191 212.259 12.2144 218.201 10.2247C221.344 9.17205 224.483 8.11136 227.619 7.03892C231.131 5.83888 234.651 4.66189 238.173 3.48976C239.196 3.13443 240.219 2.7791 241.272 2.41301C252.923 -1.40483 262.375 -0.488618 273.827 3.48976Z" fill="white"/>
<path d="M408.487 254.601C409.6 254.972 410.713 255.343 411.86 255.725C415.515 256.945 419.166 258.177 422.816 259.41C425.359 260.261 427.902 261.112 430.446 261.961C436.44 263.966 442.431 265.979 448.422 267.996C455.247 270.293 462.075 272.58 468.903 274.867C482.939 279.566 496.971 284.278 511 288.999C511 289.659 511 290.319 511 290.999C495.908 296.124 480.809 301.227 465.702 306.306C458.687 308.665 451.674 311.031 444.667 313.412C438.557 315.489 432.443 317.553 426.324 319.601C423.086 320.686 419.85 321.776 416.619 322.882C413.006 324.116 409.385 325.327 405.762 326.533C404.7 326.901 403.639 327.269 402.545 327.649C391.663 331.216 384.119 329.006 373.513 325.398C372.4 325.027 371.287 324.656 370.14 324.274C366.485 323.054 362.834 321.822 359.184 320.589C356.641 319.738 354.098 318.887 351.554 318.038C345.56 316.033 339.569 314.02 333.578 312.003C326.753 309.706 319.925 307.418 313.097 305.132C299.061 300.433 285.029 295.72 271 290.999C271 290.339 271 289.679 271 288.999C286.092 283.875 301.191 278.772 316.298 273.693C323.313 271.334 330.326 268.968 337.333 266.587C343.443 264.51 349.557 262.446 355.676 260.398C358.914 259.313 362.15 258.222 365.381 257.116C368.994 255.883 372.615 254.672 376.238 253.466C377.3 253.098 378.361 252.729 379.455 252.35C390.337 248.783 397.881 250.992 408.487 254.601Z" fill="#93969A"/>
<path d="M138.487 254.601C139.6 254.972 140.713 255.343 141.86 255.725C145.515 256.945 149.166 258.177 152.816 259.41C155.359 260.261 157.902 261.112 160.446 261.961C166.44 263.966 172.431 265.979 178.422 267.996C185.247 270.293 192.075 272.58 198.903 274.867C212.939 279.566 226.971 284.278 241 288.999C241 289.659 241 290.319 241 290.999C225.908 296.124 210.809 301.227 195.702 306.306C188.687 308.665 181.674 311.031 174.667 313.412C168.557 315.489 162.443 317.553 156.324 319.601C153.086 320.686 149.85 321.776 146.619 322.882C143.006 324.116 139.385 325.327 135.762 326.533C134.7 326.901 133.639 327.269 132.545 327.649C121.663 331.216 114.119 329.006 103.513 325.398C102.4 325.027 101.287 324.656 100.14 324.274C96.485 323.054 92.8343 321.822 89.1836 320.589C86.6408 319.738 84.0978 318.887 81.5545 318.038C75.5599 316.033 69.5685 314.02 63.5782 312.003C56.7534 309.706 49.9252 307.418 43.0967 305.132C29.0606 300.433 15.0289 295.72 1 290.999C1 290.339 1 289.679 1 288.999C16.0921 283.875 31.191 278.772 46.2984 273.693C53.3134 271.334 60.326 268.968 67.3333 266.587C73.4431 264.51 79.5571 262.446 85.6763 260.398C88.9143 259.313 92.1499 258.222 95.3805 257.116C98.9943 255.883 102.615 254.672 106.238 253.466C107.3 253.098 108.361 252.729 109.455 252.35C120.337 248.783 127.881 250.992 138.487 254.601Z" fill="#93969A"/>
</g>
<defs>
<clipPath id="clip0_334_21">
<rect width="512" height="512" fill="white"/>
</clipPath>
</defs>
</svg>
