<svg width="512" height="512" viewBox="0 0 512 512" fill="none" xmlns="http://www.w3.org/2000/svg">
<g clip-path="url(#clip0_341_84)">
<path d="M188.321 263.437C196.553 268.849 204.844 273.369 214 277.002C214.628 277.251 215.256 277.5 215.902 277.757C246.52 289.573 275.891 285.856 305.57 273.517C314.405 269.387 322.417 263.963 330.48 258.507C349.341 245.853 349.341 245.853 359.75 246.439C360.512 246.463 361.273 246.486 362.058 246.511C387.33 247.626 411.211 257.905 428.509 276.636C460.98 313.935 469.116 367.256 470 415.002C470.04 416.212 470.08 417.422 470.121 418.669C470.583 440.525 466.34 464.734 451.375 481.564C449.932 483.058 448.476 484.54 447 486.002C446.134 486.909 445.267 487.817 444.375 488.752C443.591 489.494 442.807 490.237 442 491.002C441.29 491.686 441.29 491.686 440.566 492.384C419.959 511.262 393.467 512.456 367.155 512.406C364.453 512.411 361.751 512.418 359.049 512.426C352.502 512.443 345.954 512.444 339.407 512.439C334.079 512.435 328.751 512.437 323.423 512.442C322.662 512.443 321.9 512.443 321.116 512.444C319.568 512.446 318.02 512.447 316.473 512.449C301.995 512.462 287.517 512.457 273.04 512.446C259.832 512.436 246.624 512.449 233.417 512.473C219.813 512.497 206.209 512.507 192.606 512.5C184.985 512.496 177.365 512.499 169.744 512.516C163.256 512.531 156.769 512.531 150.281 512.514C146.98 512.506 143.678 512.505 140.377 512.519C111.392 512.626 86.4355 508.054 65 487.002C64.2265 486.253 63.4531 485.504 62.6562 484.732C48.4442 470.058 41.8982 449.597 41.7968 429.451C41.7898 428.528 41.7828 427.605 41.7756 426.654C41.7581 423.666 41.7517 420.678 41.75 417.689C41.7493 416.67 41.7486 415.651 41.7479 414.602C41.7642 399.172 42.3272 384.229 45 369.002C45.1769 367.935 45.3538 366.868 45.5361 365.77C47.9339 351.464 51.0633 337.649 56 324.002C56.233 323.347 56.466 322.692 56.706 322.018C62.4361 306.141 70.2222 291.968 81 279.002C81.5324 278.317 82.0647 277.633 82.6133 276.927C96.3876 259.661 119.395 249.723 140.909 247.218C160.781 245.164 172.099 252.664 188.321 263.437Z" fill="#93969A"/>
<path d="M328.938 25.433C337.571 32.6679 345.178 40.0076 352 48.9994C352.605 49.7883 353.209 50.5772 353.832 51.39C365.277 66.994 371.588 84.0035 375 102.999C375.186 104.023 375.371 105.046 375.563 106.101C379.338 139.743 371.649 172.002 351 198.999C348.133 202.471 345.118 205.752 342 208.999C341.157 209.906 340.314 210.812 339.445 211.745C332.846 218.641 326.003 223.878 318 228.999C317.169 229.554 316.337 230.108 315.48 230.679C297.022 242.495 274.412 247.42 252.75 247.312C251.573 247.307 250.395 247.302 249.182 247.297C239.812 247.172 231.078 246.292 222 243.999C221.01 243.75 221.01 243.75 220.001 243.495C201.96 238.796 184.885 229.87 171.27 217.113C169.379 215.352 167.455 213.734 165.438 212.124C160.623 208.023 156.848 202.987 153 197.999C152.402 197.228 151.804 196.458 151.188 195.663C135.606 174.527 128.589 150.168 128.625 124.062C128.626 123.387 128.626 122.712 128.627 122.016C128.692 104.23 131.481 88.1714 139 71.9994C139.451 70.9784 139.902 69.9575 140.367 68.9056C149.99 48.2462 166.99 30.2733 186 17.9994C186.879 17.4244 187.758 16.8495 188.664 16.2572C230.999 -9.9837 290.388 -5.92515 328.938 25.433Z" fill="white"/>
</g>
<defs>
<clipPath id="clip0_341_84">
<rect width="512" height="512" fill="white"/>
</clipPath>
</defs>
</svg>
