<svg width="512" height="512" viewBox="0 0 512 512" fill="none" xmlns="http://www.w3.org/2000/svg">
<path d="M50.5757 111.547C51.4154 111.547 52.2551 111.546 53.1202 111.546C55.88 111.548 58.6388 111.58 61.3985 111.611C63.318 111.618 65.2376 111.624 67.1572 111.628C72.1978 111.643 77.2379 111.683 82.2783 111.727C87.4264 111.768 92.5745 111.786 97.7227 111.806C107.815 111.849 117.908 111.917 128 112.002C128.006 112.583 128.012 113.164 128.018 113.763C128.082 119.848 128.167 125.931 128.262 132.015C128.296 134.282 128.324 136.548 128.346 138.815C128.38 142.084 128.433 145.353 128.488 148.623C128.495 149.626 128.501 150.63 128.508 151.664C128.658 158.941 129.137 166.208 134.563 171.502C139.387 174.471 143.388 174.622 149 174.002C153.468 171.808 155.909 169.515 158 165.002C158.803 161.642 159.142 158.477 159.205 155.028C159.226 154.054 159.246 153.08 159.266 152.076C159.283 151.066 159.299 150.055 159.316 149.013C159.335 148.075 159.354 147.136 159.373 146.169C159.441 142.676 159.501 139.182 159.563 135.689C159.707 127.872 159.851 120.055 160 112.002C191.68 112.002 223.36 112.002 256 112.002C256.313 135.439 256.313 135.439 256.388 142.785C256.42 144.731 256.454 146.677 256.488 148.623C256.495 149.613 256.501 150.603 256.507 151.624C256.657 158.914 257.126 166.198 262.563 171.502C267.387 174.471 271.388 174.622 277 174.002C281.468 171.808 283.909 169.515 286 165.002C286.803 161.642 287.142 158.477 287.205 155.028C287.225 154.067 287.245 153.106 287.266 152.117C287.282 151.093 287.299 150.068 287.316 149.013C287.348 147.426 287.348 147.426 287.379 145.806C287.445 142.434 287.504 139.062 287.562 135.689C287.606 133.399 287.649 131.11 287.693 128.82C287.8 123.214 287.902 117.608 288 112.002C299.109 111.909 310.219 111.838 321.328 111.794C326.487 111.773 331.646 111.745 336.804 111.7C341.784 111.656 346.763 111.632 351.743 111.622C353.642 111.615 355.54 111.6 357.439 111.579C360.101 111.55 362.762 111.546 365.424 111.547C366.207 111.533 366.99 111.519 367.796 111.504C372.976 111.543 375.951 112.501 380 116.002C384.983 121.362 384.545 126.681 384.454 133.607C384.455 134.768 384.455 135.93 384.456 137.126C384.453 140.958 384.422 144.788 384.391 148.619C384.383 151.278 384.377 153.938 384.373 156.597C384.361 162.876 384.328 169.155 384.288 175.434C384.243 182.585 384.221 189.736 384.201 196.888C384.16 211.592 384.089 226.297 384 241.002C383.438 241.091 382.876 241.181 382.297 241.273C345.2 247.16 345.2 247.16 308.133 253.231C305.974 253.59 303.813 253.944 301.652 254.294C298.37 254.826 295.091 255.373 291.812 255.923C290.862 256.075 289.911 256.226 288.931 256.381C279.061 258.073 269.626 260.863 263.375 269.158C256.057 280.276 256.698 292.806 256.734 305.662C256.733 307.377 256.731 309.093 256.729 310.809C256.726 314.4 256.73 317.991 256.739 321.583C256.751 326.104 256.744 330.625 256.732 335.147C256.62 386.496 261.066 434.571 297.824 473.673C299.519 475.487 301.092 477.304 302.625 479.252C305.771 482.894 309.324 485.908 313 489.002C315.353 490.982 317.685 492.976 320 495.002C320 495.332 320 495.662 320 496.002C288.39 496.116 256.78 496.204 225.169 496.257C221.432 496.263 217.695 496.27 213.958 496.276C213.214 496.278 212.47 496.279 211.703 496.28C199.678 496.302 187.654 496.341 175.629 496.387C163.278 496.434 150.927 496.462 138.575 496.472C130.963 496.479 123.35 496.5 115.737 496.541C109.886 496.571 104.035 496.574 98.1839 496.567C95.7935 496.569 93.4031 496.578 91.0127 496.598C72.5862 496.739 58.5998 495.327 44.8516 481.904C34.2431 470.724 31.6965 459.409 31.7326 444.444C31.7289 443.057 31.7242 441.669 31.7189 440.281C31.7066 436.478 31.7069 432.674 31.7092 428.871C31.7097 424.765 31.6986 420.659 31.6891 416.554C31.6725 408.515 31.667 400.476 31.6659 392.437C31.665 385.904 31.6608 379.371 31.6545 372.838C31.6369 354.316 31.6277 335.795 31.6292 317.273C31.6292 316.275 31.6293 315.277 31.6294 314.248C31.6295 313.249 31.6296 312.25 31.6297 311.22C31.6305 295.013 31.6113 278.806 31.5831 262.599C31.5544 245.958 31.5406 229.317 31.5423 212.676C31.543 203.334 31.5375 193.991 31.516 184.648C31.4978 176.696 31.4934 168.745 31.507 160.793C31.5135 156.735 31.5136 152.678 31.4963 148.621C31.4806 144.907 31.4834 141.193 31.5008 137.479C31.5054 135.499 31.4902 133.518 31.4744 131.538C31.5583 120.793 31.5583 120.793 36 116.002C40.8265 111.828 44.4867 111.436 50.5757 111.547Z" fill="#93969A"/>
<path d="M410.859 275.282C412.86 275.619 414.861 275.956 416.861 276.291C422.091 277.17 427.318 278.061 432.545 278.954C437.893 279.866 443.243 280.767 448.594 281.669C459.064 283.435 469.533 285.214 480 287.001C480.093 299.45 480.164 311.9 480.207 324.349C480.228 330.132 480.256 335.915 480.302 341.698C480.346 347.293 480.369 352.889 480.38 358.484C480.387 360.604 480.401 362.723 480.423 364.843C480.776 400.553 468.922 432.092 443.988 457.978C429.825 472.391 405.256 493.619 384.246 496.36C379.747 495.862 376.226 494.166 372.188 492.188C371.359 491.788 370.53 491.388 369.676 490.976C357.207 484.797 345.53 477.105 335 468.001C333.793 466.976 333.793 466.976 332.563 465.931C308.674 445.103 291.604 416.886 288 385.001C287.51 377.345 287.648 369.668 287.707 362.001C287.713 359.827 287.717 357.652 287.72 355.478C287.731 349.81 287.761 344.142 287.794 338.473C287.825 332.667 287.838 326.862 287.854 321.056C287.886 309.704 287.937 298.353 288 287.001C299.525 285.034 311.052 283.077 322.582 281.134C327.936 280.231 333.29 279.324 338.643 278.41C343.815 277.526 348.99 276.651 354.165 275.784C356.132 275.452 358.098 275.117 360.064 274.779C378.028 271.69 392.934 272.196 410.859 275.282ZM397.438 350.173C396.761 350.855 396.084 351.538 395.387 352.241C393.248 354.402 391.124 356.576 389 358.751C387.544 360.227 386.087 361.702 384.629 363.177C381.075 366.774 377.534 370.384 374 374.001C369.446 371.875 366.652 368.717 363.219 365.095C358.858 360.98 355.318 360.551 349.469 360.688C344.474 361.321 341.879 364.029 338.625 367.626C336.476 372.089 335.99 376.131 337 381.001C339.674 385.421 342.801 389.121 346.43 392.767C347.199 393.546 347.199 393.546 347.984 394.341C349.062 395.429 350.143 396.515 351.226 397.598C352.874 399.25 354.505 400.918 356.137 402.587C357.192 403.648 358.248 404.708 359.305 405.767C359.786 406.262 360.268 406.758 360.764 407.269C364.425 410.882 367.94 412.832 373.125 413.118C374.053 412.998 374.053 412.998 375 412.876C375.928 412.779 375.928 412.779 376.875 412.681C384.371 410.283 389.767 403.523 395.141 398.126C396.113 397.154 397.087 396.183 398.06 395.212C400.09 393.185 402.117 391.154 404.142 389.12C406.733 386.517 409.333 383.924 411.936 381.333C413.944 379.333 415.946 377.327 417.948 375.321C419.369 373.898 420.794 372.479 422.219 371.06C423.08 370.192 423.942 369.325 424.829 368.431C425.588 367.67 426.347 366.909 427.129 366.125C431.181 361.524 431.448 357.673 431.305 351.692C430.86 347.768 429.753 345.822 427 343.001C415.157 334.963 406.279 341.045 397.438 350.173Z" fill="white"/>
<path d="M257.188 31.7501C258.467 32.8235 259.738 33.907 261 35.0001C261.793 35.597 262.586 36.1938 263.402 36.8087C273.155 45.0362 279.476 56.2593 284 68.0001C284.433 69.0765 284.866 70.1529 285.313 71.2619C289.691 84.3504 288.251 98.4065 288 112C277.44 112 266.88 112 256 112C255.753 108.123 255.505 104.245 255.25 100.25C254.03 84.111 250.837 72.1717 238.688 60.6876C227.521 51.2715 215.345 49.0972 201.178 49.8092C188.735 50.8998 178.601 58.3002 170.754 67.6056C163.399 77.6471 161.716 87.8204 160.875 99.9376C160.586 103.918 160.298 107.899 160 112C149.44 112 138.88 112 128 112C127.511 85.4466 129.036 63.7444 147 43.0001C147.597 42.2074 148.194 41.4146 148.809 40.5978C157.009 30.8776 168.26 24.4547 180 20.0001C181.111 19.567 182.222 19.1339 183.367 18.6876C208.074 10.6201 236.73 15.9742 257.188 31.7501Z" fill="white"/>
</svg>
