<svg width="512" height="512" viewBox="0 0 512 512" fill="none" xmlns="http://www.w3.org/2000/svg">
<path d="M95.4441 97.6577C97.6132 97.6586 99.7822 97.6581 101.951 97.6564C107.814 97.6555 113.677 97.6731 119.54 97.6941C125.676 97.7129 131.813 97.7146 137.949 97.7182C149.558 97.7275 161.167 97.7521 172.776 97.7823C185.998 97.8158 199.219 97.8323 212.44 97.8473C239.627 97.8787 266.813 97.9314 294 97.9983C294.26 98.8853 294.519 99.7722 294.787 100.686C295.31 102.436 295.31 102.436 295.844 104.221C296.186 105.376 296.528 106.531 296.881 107.721C299.913 116.6 306.717 123.338 312.805 130.276C313.301 130.865 313.798 131.455 314.31 132.062C315.546 133.478 316.847 134.838 318.183 136.161C322.701 140.981 324.541 144.193 324.344 150.897C324.107 153.394 323.824 155.886 323.5 158.373C323.236 160.86 322.975 163.347 322.719 165.834C322.588 167.035 322.456 168.235 322.321 169.471C321.271 181.002 321.544 191.569 329 200.998C335.368 208.251 342.564 212.076 352.047 213.252C361.224 213.771 369.667 210.034 377.926 206.471C378.985 206.016 380.045 205.561 381.136 205.092C383.268 204.166 385.393 203.224 387.51 202.264C388.504 201.83 389.499 201.395 390.523 200.948C391.409 200.549 392.296 200.15 393.208 199.739C398.973 198.209 404.255 200.282 409.59 202.502C410.785 202.995 411.981 203.488 413.213 203.996C414.454 204.518 415.696 205.039 416.937 205.561C418.206 206.087 419.475 206.612 420.744 207.137C423.832 208.417 426.918 209.704 430 210.998C430.07 231.114 430.123 251.229 430.155 271.344C430.171 280.685 430.192 290.026 430.226 299.367C430.256 307.513 430.276 315.66 430.282 323.806C430.286 328.115 430.295 332.424 430.317 336.733C430.338 340.799 430.344 344.864 430.339 348.929C430.34 350.412 430.346 351.895 430.358 353.378C430.448 365.522 429.147 377.137 423.5 388.061C422.992 389.06 422.992 389.06 422.473 390.08C418.716 397.084 413.692 402.522 408 407.998C407.143 408.884 407.143 408.884 406.27 409.787C393.233 422.321 374.827 426.311 357.381 425.981C355.459 425.955 353.536 425.93 351.614 425.905C350.604 425.891 349.595 425.876 348.555 425.861C342.018 425.781 335.48 425.769 328.943 425.746C323.224 425.722 317.507 425.674 311.789 425.57C306.228 425.47 300.671 425.441 295.11 425.457C293.009 425.451 290.908 425.42 288.808 425.363C272.987 424.956 264.3 428.541 252.746 439.392C250.532 441.429 248.169 443.196 245.719 444.936C245.012 445.45 244.306 445.964 243.578 446.494C242.892 446.991 242.207 447.487 241.5 447.998C235.249 452.562 229.09 457.221 223 461.998C182.61 493.627 182.61 493.627 163 491.998C154.314 489.952 146.922 485.013 141.687 477.811C135.122 466.75 135.754 455.702 136.312 443.311C136.376 441.627 136.438 439.942 136.498 438.258C136.648 434.171 136.818 430.084 137 425.998C136.319 426.005 135.638 426.012 134.937 426.019C127.782 426.085 120.626 426.13 113.471 426.163C110.809 426.176 108.147 426.198 105.485 426.225C78.6276 426.482 56.9287 424.519 36.4179 405.471C19.44 388.109 16.5324 367.857 16.6118 344.721C16.6077 342.712 16.6024 340.703 16.5959 338.694C16.5823 333.277 16.5875 327.86 16.597 322.442C16.6046 316.75 16.5975 311.058 16.5928 305.366C16.5874 295.81 16.5945 286.254 16.6089 276.699C16.6252 265.68 16.6199 254.661 16.6034 243.642C16.5897 234.15 16.5879 224.659 16.5957 215.167C16.6004 209.512 16.6011 203.856 16.5911 198.201C16.5824 192.882 16.5885 187.563 16.6058 182.244C16.6097 180.302 16.6086 178.36 16.602 176.418C16.54 156.499 19.3881 139.147 32 122.998C32.5104 122.311 33.0209 121.624 33.5469 120.916C40.8667 111.73 52.014 104.887 63 100.998C63.6427 100.751 64.2854 100.504 64.9476 100.25C74.8695 96.9569 85.1224 97.6012 95.4441 97.6577ZM136.562 216.561C133.891 220.728 133.471 224.091 134 228.998C135.677 232.687 137.957 235.336 141 237.998C144.41 239.135 147.025 239.133 150.622 239.145C151.637 239.151 151.637 239.151 152.671 239.157C154.942 239.168 157.213 239.171 159.484 239.175C161.11 239.182 162.736 239.188 164.362 239.195C169.706 239.216 175.05 239.227 180.395 239.237C182.234 239.241 184.074 239.245 185.913 239.249C194.554 239.268 203.196 239.282 211.837 239.291C221.814 239.3 231.79 239.327 241.766 239.367C249.477 239.397 257.187 239.412 264.898 239.415C269.504 239.418 274.109 239.427 278.715 239.452C283.048 239.475 287.38 239.479 291.714 239.469C293.303 239.469 294.892 239.475 296.481 239.489C298.653 239.506 300.824 239.499 302.997 239.486C304.211 239.488 305.426 239.491 306.678 239.493C311.399 238.79 314.373 236.513 317.812 233.311C319.696 229.642 320.229 226.108 320 221.998C318.761 218.178 316.765 215.587 313.562 213.123C308.884 211.069 304.487 210.871 299.416 210.858C298.768 210.855 298.12 210.852 297.453 210.849C295.29 210.84 293.127 210.839 290.964 210.837C289.409 210.833 287.855 210.828 286.301 210.822C282.084 210.809 277.867 210.803 273.65 210.798C271.013 210.795 268.377 210.791 265.74 210.787C257.486 210.773 249.231 210.763 240.976 210.759C231.458 210.755 221.939 210.737 212.42 210.708C205.055 210.687 197.691 210.677 190.326 210.675C185.93 210.674 181.535 210.668 177.139 210.651C173.003 210.634 168.867 210.632 164.731 210.641C163.217 210.641 161.703 210.637 160.189 210.627C147.258 210.221 147.258 210.221 136.562 216.561ZM136.687 289.561C133.85 293.659 133.33 297.066 134 301.998C136.695 307.1 139.521 310.172 145 311.998C147.838 312.11 150.652 312.166 153.491 312.175C154.358 312.182 155.225 312.188 156.118 312.195C158.99 312.215 161.862 312.227 164.734 312.237C165.716 312.241 166.697 312.245 167.708 312.249C172.904 312.27 178.099 312.284 183.294 312.293C188.655 312.305 194.016 312.339 199.377 312.379C203.503 312.405 207.63 312.413 211.756 312.417C213.732 312.422 215.708 312.433 217.684 312.452C220.453 312.476 223.222 312.475 225.991 312.468C226.803 312.481 227.615 312.494 228.451 312.507C234.09 312.456 237.341 311.203 242 307.998C245.381 304.29 245.629 300.356 245.484 295.506C244.672 291.301 242.358 288.562 239 285.998C234.545 283.701 230.258 283.709 225.358 283.724C224.498 283.719 223.639 283.713 222.754 283.708C219.921 283.694 217.087 283.695 214.254 283.698C212.28 283.694 210.306 283.689 208.332 283.685C204.197 283.677 200.062 283.677 195.927 283.683C190.634 283.688 185.34 283.671 180.046 283.648C175.97 283.634 171.895 283.633 167.819 283.636C165.867 283.635 163.916 283.63 161.964 283.62C159.233 283.608 156.503 283.614 153.772 283.626C152.969 283.618 152.166 283.611 151.339 283.603C145.224 283.66 140.932 284.857 136.687 289.561Z" fill="#934C32"/>
<path d="M402 33.9997C408.334 38.1618 411.592 44.2324 415.438 50.6247C416.707 52.7005 417.976 54.776 419.246 56.8513C419.862 57.8674 420.478 58.8835 421.113 59.9304C423.581 63.9452 426.149 67.8929 428.735 71.8332C430 73.9997 430 73.9997 430 75.9997C430.586 76.094 431.172 76.1884 431.776 76.2856C440.135 77.7131 448.344 79.6561 456.564 81.7211C458.157 82.1178 459.752 82.5064 461.349 82.8871C463.684 83.4444 466.012 84.0258 468.34 84.613C469.05 84.7778 469.761 84.9425 470.493 85.1123C475.188 86.3365 477.417 87.8986 480 91.9997C481.011 95.167 480.826 97.7913 480 101C477.765 104.72 474.909 107.793 472 111C470.642 112.584 469.3 114.18 467.958 115.777C466.566 117.434 465.164 119.082 463.762 120.73C460.345 124.759 457.01 128.852 453.68 132.953C452 135 452 135 451 136C451.066 139.074 451.196 142.119 451.375 145.187C451.424 146.097 451.473 147.007 451.523 147.944C451.806 153.072 452.156 158.192 452.563 163.312C452.718 165.541 452.864 167.77 453 170C453.061 170.973 453.061 170.973 453.124 171.966C453.237 173.998 453.311 176.028 453.375 178.062C453.424 179.27 453.473 180.478 453.523 181.722C452.85 185.94 451.252 187.338 448 190C444.014 191.993 438.918 190.595 434.801 189.317C432.575 188.46 430.389 187.54 428.203 186.586C427.406 186.252 426.61 185.918 425.789 185.574C422.415 184.16 419.053 182.719 415.691 181.278C413.22 180.224 410.743 179.186 408.266 178.148C407.51 177.818 406.755 177.488 405.977 177.148C400.081 174.685 397.028 175.177 391.147 177.49C389.651 178.116 388.157 178.746 386.664 179.379C385.026 180.059 383.388 180.74 381.75 181.42C379.185 182.49 376.622 183.564 374.062 184.646C371.579 185.693 369.091 186.724 366.602 187.754C365.844 188.079 365.087 188.404 364.306 188.738C359.707 190.625 356.062 191.438 351 191C347.958 189.412 345.549 187.097 344 184C343.972 182.381 344.012 180.761 344.086 179.144C344.13 178.14 344.174 177.137 344.22 176.102C344.297 174.474 344.297 174.474 344.375 172.812C344.415 171.696 344.455 170.58 344.497 169.43C344.711 163.824 345.041 158.29 345.715 152.718C347.223 140.623 347.223 140.623 342.232 129.988C340.116 127.699 337.901 125.565 335.585 123.48C333.219 121.27 331.257 118.785 329.25 116.25C327.107 113.578 324.962 110.958 322.668 108.414C318.55 103.726 316.099 100.469 316.23 94.1052C317.44 90.7957 319.285 89.2142 322 86.9997C324.605 85.9985 326.938 85.2693 329.625 84.6247C330.387 84.416 331.149 84.2072 331.934 83.9921C336.848 82.6723 341.749 81.6802 346.766 80.8317C360.384 78.679 360.384 78.679 371.008 70.6989C373.673 66.5415 375.748 62.1495 377.75 57.6418C379.795 53.3203 382.417 49.4096 385.063 45.4372C385.517 44.7297 385.971 44.0221 386.439 43.2932C390.589 36.8751 393.649 33.0172 402 33.9997Z" fill="#FF6C2F"/>
</svg>
