<svg width="512" height="512" viewBox="0 0 512 512" fill="none" xmlns="http://www.w3.org/2000/svg">
<path d="M267 285C267.657 285.21 268.315 285.42 268.992 285.636C286.661 291.396 303.471 300.428 318 312C318.826 312.658 318.826 312.658 319.669 313.328C354.393 341.254 378.83 382.036 383.826 426.769C384.222 431.842 384.312 436.914 384.375 442C384.412 443.137 384.45 444.274 384.488 445.446C384.573 453.602 383.2 458.592 377.556 464.516C370.756 470.706 363.344 470.289 354.677 470.261C353.424 470.265 352.171 470.269 350.88 470.273C347.409 470.283 343.938 470.281 340.466 470.276C336.72 470.274 332.973 470.283 329.227 470.291C321.889 470.303 314.552 470.305 307.215 470.303C301.251 470.301 295.287 470.303 289.322 470.307C288.049 470.308 288.049 470.308 286.75 470.309C285.025 470.31 283.301 470.311 281.576 470.312C265.403 470.323 249.23 470.321 233.057 470.315C218.264 470.31 203.471 470.321 188.678 470.34C173.486 470.359 158.294 470.368 143.102 470.364C134.574 470.362 126.046 470.365 117.518 470.379C110.257 470.391 102.997 470.392 95.7368 470.38C92.0335 470.374 88.3304 470.373 84.6272 470.385C80.6102 470.398 76.5936 470.387 72.5766 470.375C71.4095 470.382 70.2423 470.389 69.0398 470.397C60.5311 470.34 53.2933 469.294 47 463C37.5488 449.334 42.2842 429.305 45 414C46.3123 407.562 48.0321 401.267 50 395C50.2097 394.33 50.4193 393.66 50.6353 392.97C56.1793 375.791 65.0807 359.335 76 345C76.6471 344.132 77.2942 343.263 77.961 342.368C105.73 306.725 146.463 283.582 191.21 277.71C216.854 274.798 242.49 277.061 267 285Z" fill="#934C32"/>
<path d="M284.716 68.4941C303.586 85.6367 317.406 109.296 320 135.001C321.46 166.277 316.763 193.416 296 218.001C294.983 219.219 294.983 219.219 293.945 220.462C276.972 240.093 253.585 252.244 228 256.001C195.718 257.87 166.962 251.68 142 230.001C134.66 223.403 128.23 216.415 123 208.001C122.417 207.101 121.835 206.201 121.234 205.274C106.28 181.152 102.572 151.979 108.409 124.43C112.556 107.381 120.591 92.2763 132 79.0009C132.517 78.3396 133.034 77.6784 133.566 76.997C149.487 57.2463 175.423 45.8707 200.062 42.3759C230.833 39.5062 261.223 48.0551 284.716 68.4941Z" fill="#FF6C2F"/>
<path d="M420.34 46.8168C422.97 49.1399 425.489 51.5489 428 54.0004C428.889 54.828 429.779 55.6556 430.695 56.5083C455.353 80.0422 469.257 112.83 470.349 146.783C470.76 182.025 456.709 214.386 433 240C432.193 240.878 431.386 241.756 430.555 242.661C423.645 249.871 416.612 256.09 406.375 256.375C398.766 256.313 394.916 254.665 389.48 249.579C385.361 245.162 384.287 240.534 383.625 234.688C384.66 224.514 389.128 219.553 396.507 213.023C412.326 198.928 423.696 178.32 425.141 156.913C426.206 131.655 418.507 109.23 401.312 90.4379C398.618 87.5601 395.909 84.8845 392.844 82.4145C390.367 80.3119 388.824 78.6917 387.188 75.9379C386.789 75.287 386.391 74.636 385.98 73.9653C383.467 68.9283 383.224 63.3183 384.496 57.8793C386.89 50.7258 391.594 46.8169 398 43.0004C405.523 39.9911 414.144 42.007 420.34 46.8168Z" fill="#934C32"/>
<path d="M373 80.2498C389.653 90.0541 401.163 110.426 406.5 128.437C410.299 144.088 409.579 161.934 404 177C403.649 178.027 403.299 179.055 402.938 180.113C397.372 195.013 385.393 211.663 371 219C364.089 221.177 357.538 220.52 351.078 217.336C346.016 214.082 342.858 209.684 341 204C340.119 196.571 340.521 190.145 345 184C346.893 181.749 348.764 179.944 351 178C351.66 178 352.32 178 353 178C353.269 177.434 353.539 176.868 353.816 176.285C355.055 173.893 356.474 171.698 357.938 169.437C363.068 160.92 365.413 151.818 363.379 142.004C360.628 131.624 355.376 124.127 347.688 116.75C342.704 111.903 340.878 107.501 340.562 100.562C340.768 94.3032 342.342 89.8283 346.648 85.2459C353.882 78.6912 363.671 76.3773 373 80.2498Z" fill="#934C32"/>
</svg>
