<svg width="512" height="512" viewBox="0 0 512 512" fill="none" xmlns="http://www.w3.org/2000/svg">
<path d="M238.773 100.848C239.68 100.843 240.588 100.839 241.523 100.834C244.577 100.821 247.631 100.815 250.684 100.809C252.869 100.801 255.053 100.793 257.238 100.784C264.423 100.758 271.608 100.742 278.793 100.728C281.265 100.723 283.737 100.717 286.21 100.712C296.493 100.69 306.776 100.672 317.059 100.66C319.727 100.657 322.395 100.655 325.063 100.652C326.057 100.65 326.057 100.65 327.072 100.649C337.811 100.637 348.549 100.603 359.288 100.562C370.317 100.519 381.346 100.496 392.375 100.491C398.566 100.487 404.756 100.475 410.947 100.442C416.772 100.412 422.597 100.406 428.423 100.418C430.559 100.418 432.696 100.41 434.832 100.392C437.753 100.369 440.672 100.378 443.592 100.394C444.435 100.38 445.277 100.366 446.145 100.352C452.216 100.433 456.284 102.167 461 106.002C464.631 110.495 464.502 114.537 464.352 120.123C463.717 125.318 461.212 127.881 457.5 131.314C452.722 134.539 447.828 134.15 442.221 134.149C441.325 134.152 440.428 134.156 439.505 134.16C436.496 134.171 433.487 134.175 430.478 134.179C428.322 134.185 426.167 134.192 424.012 134.199C416.93 134.22 409.848 134.23 402.766 134.24C400.328 134.244 397.89 134.248 395.452 134.252C384 134.271 372.548 134.286 361.096 134.294C347.875 134.304 334.654 134.33 321.432 134.37C311.214 134.401 300.996 134.415 290.777 134.419C284.674 134.421 278.57 134.43 272.467 134.455C266.724 134.478 260.982 134.483 255.24 134.472C253.134 134.472 251.028 134.478 248.922 134.492C246.044 134.51 243.166 134.503 240.287 134.489C239.042 134.506 239.042 134.506 237.772 134.523C232.129 134.461 227.677 133.258 223 130.002C218.831 124.763 217.453 120.678 218 114.002C219.81 108.729 222.235 105.056 227 102.002C230.93 100.692 234.676 100.85 238.773 100.848Z" fill="#93969A"/>
<path d="M239.666 249.861C240.562 249.858 241.458 249.855 242.381 249.852C245.396 249.843 248.41 249.842 251.425 249.84C253.581 249.836 255.738 249.83 257.894 249.825C263.762 249.812 269.63 249.806 275.498 249.801C279.163 249.798 282.827 249.794 286.492 249.79C297.954 249.776 309.416 249.766 320.878 249.762C334.116 249.758 347.355 249.74 360.593 249.711C370.821 249.69 381.048 249.68 391.276 249.678C397.387 249.677 403.498 249.671 409.608 249.654C415.357 249.637 421.106 249.635 426.855 249.644C428.964 249.644 431.074 249.64 433.183 249.63C436.065 249.618 438.945 249.623 441.826 249.634C442.66 249.626 443.493 249.618 444.352 249.609C450.193 249.659 455.198 250.533 459.742 254.536C464.388 260.801 464.711 265.243 464 273.001C461.692 278.171 458.174 280.881 453 283.001C449.903 283.545 446.878 283.542 443.739 283.509C442.828 283.515 441.916 283.522 440.977 283.528C437.933 283.544 434.89 283.531 431.846 283.519C429.659 283.524 427.472 283.531 425.286 283.54C419.354 283.558 413.422 283.551 407.491 283.539C401.281 283.528 395.072 283.538 388.862 283.544C377.767 283.552 366.672 283.539 355.577 283.519C345.525 283.501 335.472 283.504 325.419 283.523C313.736 283.544 302.052 283.552 290.368 283.54C284.187 283.534 278.006 283.533 271.825 283.546C266.013 283.558 260.202 283.55 254.391 283.527C252.259 283.522 250.127 283.523 247.995 283.532C245.083 283.543 242.172 283.529 239.261 283.509C238.418 283.518 237.576 283.527 236.708 283.536C231.009 283.461 227.683 282.296 223 279.001C218.886 273.697 217.45 269.714 218 263.001C219.899 257.185 222.506 253.923 228 251.001C231.9 249.701 235.601 249.857 239.666 249.861Z" fill="white"/>
<path d="M237.742 399.854C239.116 399.849 239.116 399.849 240.519 399.843C243.608 399.832 246.697 399.828 249.786 399.824C251.993 399.818 254.201 399.812 256.408 399.805C262.418 399.787 268.429 399.777 274.439 399.768C278.192 399.763 281.944 399.757 285.697 399.751C296.086 399.734 306.474 399.719 316.862 399.712C319.559 399.71 322.255 399.708 324.952 399.706C325.957 399.706 325.957 399.706 326.982 399.705C337.839 399.697 348.695 399.671 359.552 399.639C370.696 399.606 381.84 399.588 392.984 399.584C399.242 399.582 405.5 399.573 411.758 399.548C417.644 399.525 423.531 399.52 429.418 399.531C431.579 399.531 433.741 399.525 435.902 399.511C438.852 399.494 441.8 399.501 444.75 399.514C445.607 399.503 446.463 399.492 447.346 399.48C452.715 399.538 455.724 400.465 460 404.001C463.628 407.821 464.31 410.884 464.5 416.001C464.31 421.119 463.628 424.182 460 428.001C454.879 432.231 451.133 432.576 444.777 432.509C443.857 432.516 442.938 432.522 441.99 432.528C438.913 432.544 435.837 432.532 432.76 432.519C430.552 432.524 428.344 432.532 426.136 432.54C420.142 432.559 414.149 432.551 408.155 432.539C401.884 432.529 395.613 432.538 389.341 432.544C378.135 432.552 366.929 432.54 355.723 432.519C345.566 432.501 335.41 432.505 325.253 432.523C313.453 432.544 301.653 432.552 289.853 432.54C283.609 432.534 277.364 432.533 271.12 432.547C265.25 432.558 259.38 432.55 253.509 432.527C251.354 432.522 249.199 432.523 247.044 432.532C244.103 432.543 241.164 432.529 238.223 432.509C237.369 432.518 236.515 432.527 235.635 432.536C230.28 432.466 227.262 431.533 223 428.001C218.919 423.479 217.676 420.21 217.789 414.056C218.279 409.288 220.532 406.21 224.062 403.189C228.732 399.711 232.078 399.853 237.742 399.854Z" fill="#93969A"/>
<path d="M157.312 358.186C161.778 361.198 164.518 364.813 166 369.998C166.751 376.631 164.696 381.586 160.617 386.749C159.026 388.488 157.384 390.155 155.706 391.81C155.084 392.439 154.463 393.067 153.822 393.715C151.782 395.773 149.728 397.816 147.672 399.858C146.239 401.294 144.806 402.73 143.375 404.167C140.378 407.169 137.375 410.163 134.367 413.153C130.522 416.975 126.696 420.814 122.875 424.66C119.922 427.627 116.96 430.584 113.995 433.539C112.581 434.95 111.17 436.365 109.761 437.782C107.788 439.766 105.801 441.737 103.812 443.704C103.239 444.285 102.666 444.866 102.076 445.465C97.2736 450.169 92.2431 453.535 85.5 454.498C75.7378 453.104 69.819 446.382 63.2524 439.662C61.6186 437.992 59.969 436.338 58.3164 434.686C57.2647 433.624 56.2139 432.562 55.1641 431.498C54.4297 430.761 54.4297 430.761 53.6806 430.008C49.2569 425.46 47.7056 422.46 47.625 416.123C47.7264 410.916 48.3005 407.893 52 403.998C55.8193 400.37 58.8828 399.688 64 399.498C73.749 399.894 78.5768 406.318 85 412.998C90.8495 408.19 96.1674 402.924 101.477 397.536C103.038 395.952 104.604 394.373 106.17 392.794C110.62 388.312 115.065 383.825 119.5 379.328C122.224 376.565 124.957 373.81 127.693 371.059C128.73 370.014 129.765 368.967 130.796 367.916C132.236 366.449 133.685 364.992 135.137 363.537C135.958 362.706 136.778 361.876 137.624 361.021C143.418 356.09 150.323 355.68 157.312 358.186Z" fill="#93969A"/>
<path d="M159.375 60.5642C163.703 64.5831 165.667 68.6717 166.5 74.5017C165.381 82.335 160.967 87.6242 155.475 93.0286C154.829 93.68 154.183 94.3315 153.517 95.0027C151.397 97.1347 149.264 99.2521 147.129 101.369C145.644 102.854 144.159 104.34 142.676 105.827C139.572 108.931 136.463 112.029 133.347 115.121C129.356 119.084 125.381 123.062 121.411 127.045C118.351 130.111 115.284 133.17 112.215 136.227C110.746 137.692 109.279 139.158 107.815 140.627C105.768 142.676 103.713 144.715 101.655 146.751C101.052 147.358 100.45 147.965 99.8296 148.59C95.3166 153.024 91.5484 155.274 85.0625 155.377C84.2491 155.405 83.4357 155.433 82.5977 155.463C76.6625 154.41 72.3429 149.644 68.2344 145.502C67.7149 144.984 67.1954 144.467 66.6602 143.933C65.5721 142.847 64.4865 141.757 63.4033 140.666C61.7476 138.999 60.0815 137.344 58.4141 135.689C57.3535 134.627 56.2936 133.565 55.2344 132.502C54.4906 131.764 54.4906 131.764 53.7319 131.011C49.4839 126.705 47.7106 123.742 47.625 117.689C47.7494 112.201 48.573 109.307 52 105.002C56.7207 101.32 60.5368 100.28 66.5195 100.56C74.3859 101.96 79.7807 108.408 85 114.002C90.7704 109.256 95.999 104.084 101.23 98.7548C102.75 97.2083 104.274 95.6665 105.8 94.126C110.132 89.7509 114.462 85.373 118.776 80.979C121.427 78.2791 124.088 75.5891 126.756 72.9053C127.764 71.8871 128.769 70.8653 129.77 69.8397C138.803 60.5875 146.441 54.5761 159.375 60.5642Z" fill="#93969A"/>
<path d="M155 208C159.388 210.154 162.521 212.776 165 217C166.586 223.39 166.245 228.197 163 234C161.011 236.527 158.774 238.754 156.481 241.006C155.495 241.997 155.495 241.997 154.489 243.009C152.327 245.179 150.15 247.334 147.973 249.489C146.461 250.998 144.951 252.508 143.441 254.018C140.28 257.175 137.113 260.326 133.941 263.471C129.874 267.504 125.82 271.55 121.771 275.601C118.655 278.716 115.534 281.826 112.411 284.935C110.914 286.425 109.419 287.917 107.925 289.41C105.838 291.492 103.744 293.568 101.649 295.642C101.032 296.26 100.415 296.878 99.7797 297.514C98.9197 298.361 98.9197 298.361 98.0424 299.225C97.5485 299.716 97.0546 300.206 96.5458 300.712C92.9938 303.673 89.8198 304.358 85.25 304.5C84.2652 304.552 83.2803 304.604 82.2656 304.657C73.4747 302.89 66.7572 294.092 60.6875 288C59.7948 287.124 58.9022 286.247 57.9824 285.344C57.1258 284.488 56.2693 283.632 55.3867 282.75C54.2298 281.598 54.2298 281.598 53.0496 280.422C48.5184 275.068 47.4446 270.45 47.6484 263.621C48.3025 258.745 50.9196 256.176 54.125 252.688C59.3591 249.616 64.6603 249.457 70.5 250.813C75.8845 253.525 79.9477 258.655 84 263C87.7596 261.44 90.1097 259.115 92.9487 256.231C93.4274 255.748 93.906 255.265 94.3991 254.767C95.4347 253.72 96.4681 252.672 97.4993 251.621C99.1344 249.955 100.776 248.297 102.42 246.64C107.091 241.929 111.75 237.206 116.405 232.479C119.256 229.585 122.114 226.699 124.977 223.816C126.064 222.719 127.148 221.619 128.228 220.516C129.743 218.97 131.267 217.434 132.792 215.899C133.655 215.024 134.518 214.148 135.407 213.246C141.492 207.976 147.195 206.954 155 208Z" fill="white"/>
</svg>
